<svg xmlns="http://www.w3.org/2000/svg" xmlns:xlink="http://www.w3.org/1999/xlink" width="104" height="104" viewBox="0 0 104 104">
  <defs>
    <clipPath id="clip-path">
      <rect id="Rectángulo_454588" data-name="Rectángulo 454588" width="96" height="96" transform="translate(745.746 9172)" fill="#fff" stroke="#707070" stroke-width="1"/>
    </clipPath>
  </defs>
  <g id="Grupo_1177226" data-name="Grupo 1177226" transform="translate(-741.746 -9168)">
    <path id="Elipse_5729" data-name="Elipse 5729" d="M52,0A52,52,0,1,1,0,52,52,52,0,0,1,52,0Z" transform="translate(741.746 9168)" fill="#02614b"/>
    <g id="Enmascarar_grupo_1119146" data-name="Enmascarar grupo 1119146" clip-path="url(#clip-path)">
      <g id="monitoreo-ambiental" transform="translate(745.558 9171.813)">
        <g id="Grupo_1177238" data-name="Grupo 1177238">
          <g id="Grupo_1177233" data-name="Grupo 1177233">
            <path id="Trazado_994570" data-name="Trazado 994570" d="M57.9,62.465l-29.041.372L22.412,73.909A.677.677,0,0,0,23,74.929h40.99a.677.677,0,0,0,.586-1.02Z" fill="#003748" fill-rule="evenodd"/>
            <path id="Trazado_994571" data-name="Trazado 994571" d="M57.9,62.465l-3.36.043,6.644,11.4a.677.677,0,0,1-.586,1.02h3.385a.677.677,0,0,0,.586-1.02Z" fill="#00242f" fill-rule="evenodd"/>
            <path id="Trazado_994572" data-name="Trazado 994572" d="M80.927,3.5a4.377,4.377,0,0,1,4.364,4.364V58.708a4.377,4.377,0,0,1-4.364,4.364H6.058a4.377,4.377,0,0,1-4.364-4.364V7.864A4.377,4.377,0,0,1,6.058,3.5Z" fill="#e5f7ff" fill-rule="evenodd"/>
            <path id="Trazado_994573" data-name="Trazado 994573" d="M80.927,3.5a4.377,4.377,0,0,1,4.364,4.364V58.709a4.377,4.377,0,0,1-4.364,4.364H75.851a4.378,4.378,0,0,0,4.364-4.364V7.865A4.377,4.377,0,0,0,75.851,3.5Z" fill="#cff0ff" fill-rule="evenodd"/>
            <path id="Trazado_994574" data-name="Trazado 994574" d="M85.291,57.458H1.694V60.4a4.377,4.377,0,0,0,4.364,4.364H80.927A4.377,4.377,0,0,0,85.291,60.4Z" fill="#004960" fill-rule="evenodd"/>
            <path id="Trazado_994575" data-name="Trazado 994575" d="M85.291,57.458H80.215V60.4a4.377,4.377,0,0,1-4.364,4.364h5.077A4.377,4.377,0,0,0,85.291,60.4Z" fill="#003748" fill-rule="evenodd"/>
          </g>
          <g id="Grupo_1177234" data-name="Grupo 1177234">
            <path id="Trazado_994576" data-name="Trazado 994576" d="M21.563,52.943H8.11A1.133,1.133,0,0,1,6.98,51.813V46.98A1.133,1.133,0,0,1,8.11,45.85H21.563a1.133,1.133,0,0,1,1.129,1.129v4.834A1.133,1.133,0,0,1,21.563,52.943ZM62.844,8.324H76.3a1.133,1.133,0,0,1,1.129,1.129v4.834A1.133,1.133,0,0,1,76.3,15.416H62.844a1.133,1.133,0,0,1-1.129-1.129V9.453A1.133,1.133,0,0,1,62.844,8.324Z" fill="#fb685b" fill-rule="evenodd"/>
            <path id="Trazado_994577" data-name="Trazado 994577" d="M21.563,52.943H8.11A1.133,1.133,0,0,1,6.98,51.813V51.06h12.7a1.133,1.133,0,0,0,1.129-1.129V45.85h.753a1.133,1.133,0,0,1,1.129,1.129v4.834A1.133,1.133,0,0,1,21.563,52.943ZM75.544,8.324H76.3a1.133,1.133,0,0,1,1.129,1.129v4.834A1.133,1.133,0,0,1,76.3,15.416H62.844a1.133,1.133,0,0,1-1.129-1.129v-.753h12.7A1.133,1.133,0,0,0,75.544,12.4Z" fill="#f25244" fill-rule="evenodd"/>
          </g>
          <g id="Grupo_1177235" data-name="Grupo 1177235">
            <path id="Trazado_994578" data-name="Trazado 994578" d="M17.655,13.68C33.948,15.03,40.033,24.489,34.62,30.108,19.5,37.439,23.365,17.748,17.655,13.68Zm43.256,9.577c-16.344-.424-23.418,8.32-18.646,14.493C56.5,46.677,54.794,26.683,60.911,23.257Z" fill="#72d461" fill-rule="evenodd"/>
            <path id="Trazado_994579" data-name="Trazado 994579" d="M17.655,13.68q.839.069,1.642.168c3.428,6.29,1.956,20.934,15.324,14.451a6.608,6.608,0,0,0,1.86-3.621,6.335,6.335,0,0,1-1.86,5.43C19.5,37.439,23.365,17.748,17.655,13.68Zm43.256,9.577c-.633-.016-1.251-.018-1.856-.007-4.079,5.891-4.213,20.578-16.79,12.691A6.786,6.786,0,0,1,40.871,32.8a6.4,6.4,0,0,0,1.394,4.951C56.5,46.677,54.794,26.683,60.911,23.257Z" fill="#57c95a" fill-rule="evenodd"/>
          </g>
          <g id="Grupo_1177236" data-name="Grupo 1177236">
            <path id="Trazado_994580" data-name="Trazado 994580" d="M80.912,76.152l3.675-2.288-4.227-7.321-3.825,2.028Z" fill="#b3d1d6" fill-rule="evenodd"/>
            <path id="Trazado_994581" data-name="Trazado 994581" d="M80.912,76.152l3.675-2.288-.023-.039-2.056,1.28-4.288-7.427-1.685.893Z" fill="#9ab8c2" fill-rule="evenodd"/>
            <circle id="Elipse_13674" data-name="Elipse 13674" cx="18.12" cy="18.12" r="18.12" transform="translate(52.21 35.377)" fill="#64b4f5"/>
            <path id="Trazado_994582" data-name="Trazado 994582" d="M81.092,38.918A18.12,18.12,0,1,1,57.308,66.095,18.12,18.12,0,0,0,81.092,38.918Z" fill="#42a4f4" fill-rule="evenodd"/>
            <circle id="Elipse_13675" data-name="Elipse 13675" cx="13.353" cy="13.353" r="13.353" transform="translate(54.995 64.537) rotate(-80.792)" fill="#e5f7ff"/>
            <path id="Trazado_994583" data-name="Trazado 994583" d="M70.33,40.142a13.326,13.326,0,0,1,10.257,4.8A13.354,13.354,0,0,0,61.779,63.753,13.354,13.354,0,0,1,70.33,40.142Z" fill="#cff0ff" fill-rule="evenodd"/>
            <path id="Trazado_994584" data-name="Trazado 994584" d="M84.871,71.728l-6.022,3.477a.35.35,0,0,0-.128.477l8.823,15.282a3.826,3.826,0,0,0,6.628-3.826L85.349,71.856a.35.35,0,0,0-.477-.128Z" fill="#8c9ba7" fill-rule="evenodd"/>
            <path id="Trazado_994585" data-name="Trazado 994585" d="M80.542,74.228l-1.694.978a.35.35,0,0,0-.128.477l8.823,15.282a3.837,3.837,0,0,0,5.227,1.4,3.794,3.794,0,0,0,.783-.6,3.842,3.842,0,0,1-4.316-1.779L80.414,74.7A.35.35,0,0,1,80.542,74.228Z" fill="#7a8b97" fill-rule="evenodd"/>
            <path id="Trazado_994586" data-name="Trazado 994586" d="M78.849,75.205a.35.35,0,0,0-.128.477l2.289,3.966,6.627-3.826-2.289-3.966a.35.35,0,0,0-.477-.128l-6.022,3.477Z" fill="#7a8b97" fill-rule="evenodd"/>
            <path id="Trazado_994587" data-name="Trazado 994587" d="M78.849,75.205a.35.35,0,0,0-.128.477l2.289,3.966,1.694-.978L80.414,74.7a.351.351,0,0,1,.128-.477Z" fill="#596c76" fill-rule="evenodd"/>
          </g>
          <g id="Grupo_1177237" data-name="Grupo 1177237">
            <path id="Trazado_994588" data-name="Trazado 994588" d="M71.925,47.084a7.428,7.428,0,1,1-6.949,4.791,2.968,2.968,0,0,0,4.116-4.232,7.409,7.409,0,0,1,2.833-.559Z" fill="#cff0ff" fill-rule="evenodd"/>
            <path id="Trazado_994589" data-name="Trazado 994589" d="M70.33,46.064a7.428,7.428,0,1,1-6.949,4.791A2.968,2.968,0,0,0,67.5,46.624,7.411,7.411,0,0,1,70.33,46.064Z" fill="#64b4f5" fill-rule="evenodd"/>
            <path id="Trazado_994590" data-name="Trazado 994590" d="M74.56,47.385A7.433,7.433,0,1,1,64.218,57.726,7.433,7.433,0,0,0,74.56,47.385Z" fill="#42a4f4" fill-rule="evenodd"/>
          </g>
        </g>
        <path id="Trazado_994591" data-name="Trazado 994591" d="M70.328,59.423A5.935,5.935,0,0,1,64.4,53.5c0-.19.009-.38.027-.569a4.412,4.412,0,0,0,.789.072,4.478,4.478,0,0,0,4.472-4.474,4.62,4.62,0,0,0-.092-.911,6.311,6.311,0,0,1,.731-.043,5.926,5.926,0,1,1,0,11.853Zm0-14.865a8.891,8.891,0,0,0-3.407.672,1.506,1.506,0,0,0-.581,2.359,1.431,1.431,0,0,1,.339.936,1.464,1.464,0,0,1-1.461,1.463,1.447,1.447,0,0,1-.905-.315,1.505,1.505,0,0,0-2.34.648,8.939,8.939,0,1,0,8.355-5.762Zm-61.844,2.8h12.7v4.081H8.484Zm-.376,7.093H21.561A2.638,2.638,0,0,0,24.2,51.813V50.9h5.014a1.5,1.5,0,0,0,1.435-1.048l3.066-9.621a1.506,1.506,0,1,0-2.869-.915L28.111,47.89H24.2v-.911a2.638,2.638,0,0,0-2.635-2.635H8.109a2.639,2.639,0,0,0-2.636,2.635v4.834a2.639,2.639,0,0,0,2.636,2.635ZM63.219,9.83h12.7V13.91h-12.7Zm-13.9,11.478a1.486,1.486,0,0,0,.793.228,1.5,1.5,0,0,0,1.28-.712l4.634-7.448h4.179v.911a2.638,2.638,0,0,0,2.635,2.635H76.3a2.638,2.638,0,0,0,2.635-2.635V9.453A2.638,2.638,0,0,0,76.3,6.818H62.843a2.638,2.638,0,0,0-2.635,2.635v.911H55.191a1.508,1.508,0,0,0-1.278.71l-5.075,8.16A1.507,1.507,0,0,0,49.322,21.308ZM34.689,23.746a4.724,4.724,0,0,1-.166,3.962,16.584,16.584,0,0,0-6.148-5.777,1.505,1.505,0,0,0-1.341,2.7,13.73,13.73,0,0,1,5.09,4.913c-2.131.781-3.828.888-5.059.318-2.392-1.108-3.362-4.89-4.3-8.547a33.887,33.887,0,0,0-1.806-5.7c8.333,1.419,12.591,5.123,13.728,8.137Zm8.2,7.67c1.455-2.871,6.089-6.093,14.527-6.6A33.712,33.712,0,0,0,55,30.288c-1.33,3.533-2.7,7.187-5.2,8.032-1.3.439-3,.136-5.061-.9a15.476,15.476,0,0,1,5.658-4.3A1.506,1.506,0,0,0,49.356,30.3,18.407,18.407,0,0,0,42.6,35.333a4.72,4.72,0,0,1,.28-3.917ZM16.779,14.906a1.506,1.506,0,0,1,1-2.727c12,.994,18.059,6.078,19.728,10.5A7.778,7.778,0,0,1,36.2,30.588a38.612,38.612,0,0,1,3.148,9.022c.378-.591.772-1.169,1.182-1.728a7.758,7.758,0,0,1-.331-7.827c2.137-4.218,8.717-8.619,20.748-8.3a1.5,1.5,0,0,1,.7,2.818c-1.623.909-2.745,3.893-3.828,6.778-1.5,3.994-3.2,8.523-7.053,9.826a6.979,6.979,0,0,1-2.234.358,12.211,12.211,0,0,1-5.711-1.715,30.383,30.383,0,0,0-2.755,4.663,1.535,1.535,0,0,1-.2.437,22.533,22.533,0,0,0-1.409,4.013,1.506,1.506,0,0,1-1.463,1.154,1.484,1.484,0,0,1-.351-.042,1.505,1.505,0,0,1-1.113-1.816,25.308,25.308,0,0,1,1.528-4.4,39.01,39.01,0,0,0-3.424-11.64,13.1,13.1,0,0,1-4.768,1.048,7.189,7.189,0,0,1-3.063-.646c-3.69-1.711-4.891-6.4-5.949-10.534-.767-2.985-1.557-6.072-3.072-7.151Zm53.55,50.439A11.849,11.849,0,1,0,58.479,53.5,11.863,11.863,0,0,0,70.328,65.345Zm0-26.71A14.861,14.861,0,1,0,85.189,53.5a14.877,14.877,0,0,0-14.86-14.861ZM92.015,91.059a2.32,2.32,0,0,1-3.169-.849L83.066,80.2l4.022-2.321L92.867,87.89a2.323,2.323,0,0,1-.852,3.169ZM84.62,73.61l.959,1.66-4.018,2.321-.959-1.66ZM80.7,70.149l.973,1.685-1.139.657-.971-1.683q.579-.311,1.137-.659ZM53.716,53.5A16.615,16.615,0,1,0,70.328,36.882,16.63,16.63,0,0,0,53.716,53.5Zm8.83,19.926H24.436L28.6,66.269H55.441a19.757,19.757,0,0,0,5.551,4.485ZM3.2,60.4V58.962h48.28a19.46,19.46,0,0,0,1.828,4.3H6.057A2.861,2.861,0,0,1,3.2,60.4Zm2.857-55.4A2.861,2.861,0,0,0,3.2,7.864V55.95H50.856a19.619,19.619,0,0,1,32.93-16.728V7.864a2.863,2.863,0,0,0-2.86-2.859Zm89.42,81.379-8.841-15.3a1.818,1.818,0,0,0-2.343-.747l-1.15-1.984A19.592,19.592,0,0,0,86.8,42.83V7.864a5.879,5.879,0,0,0-5.869-5.871H6.057A5.876,5.876,0,0,0,.187,7.864V60.4a5.876,5.876,0,0,0,5.869,5.869H25.119l-4.01,6.88a2.151,2.151,0,0,0-.013,2.18A2.2,2.2,0,0,0,23,76.434H63.985a2.2,2.2,0,0,0,1.9-1.105,2.155,2.155,0,0,0-.013-2.18l-.368-.627a19.674,19.674,0,0,0,11.285-.495L77.931,74a1.832,1.832,0,0,0-.529,2.409l8.834,15.3a5.334,5.334,0,0,0,9.241-5.333Z" fill-rule="evenodd"/>
      </g>
    </g>
  </g>
</svg>
