<svg xmlns="http://www.w3.org/2000/svg" xmlns:xlink="http://www.w3.org/1999/xlink" width="33.491" height="42" viewBox="0 0 33.491 42">
  <defs>
    <clipPath id="clip-path">
      <rect id="Rectángulo_454712" data-name="Rectángulo 454712" width="33.491" height="42" transform="translate(202.746 3480)" fill="#02614b" stroke="#02614b" stroke-width="1"/>
    </clipPath>
  </defs>
  <g id="Enmascarar_grupo_1119147" data-name="Enmascarar grupo 1119147" transform="translate(-202.746 -3480)" clip-path="url(#clip-path)">
    <g id="sembrar" transform="translate(202.746 3484.255)">
      <g id="Grupo_1177239" data-name="Grupo 1177239">
        <line id="Línea_3264" data-name="Línea 3264" x1="7.006" transform="translate(15.524 8.573)" fill="none" stroke="#02614b" stroke-miterlimit="10" stroke-width="0.981"/>
        <line id="Línea_3265" data-name="Línea 3265" x1="5.487" transform="translate(17.683 11.19)" fill="none" stroke="#02614b" stroke-miterlimit="10" stroke-width="0.981"/>
        <line id="Línea_3266" data-name="Línea 3266" x1="4.797" transform="translate(16.571 13.806)" fill="none" stroke="#02614b" stroke-miterlimit="10" stroke-width="0.981"/>
        <path id="Trazado_994592" data-name="Trazado 994592" d="M14.013,5.956H22.53a1.308,1.308,0,0,1,0,2.616h1.89a1.308,1.308,0,1,1,0,2.616H23.17a1.308,1.308,0,1,1,0,2.616h-1.8a1.308,1.308,0,1,1,0,2.616H19.474" fill="none" stroke="#02614b" stroke-miterlimit="10" stroke-width="0.981"/>
        <path id="Trazado_994593" data-name="Trazado 994593" d="M0,14.737H7.21l.33.222a8.563,8.563,0,0,0,4.789,1.464h5.138" fill="none" stroke="#02614b" stroke-miterlimit="10" stroke-width="0.981"/>
        <line id="Línea_3267" data-name="Línea 3267" x1="3.706" transform="translate(0 7.061)" fill="none" stroke="#02614b" stroke-miterlimit="10" stroke-width="0.981"/>
        <path id="Trazado_994594" data-name="Trazado 994594" d="M4.687,7.061H7.268l2.675-2.79L16.571.724a3,3,0,0,1-.763,3.688L14.071,5.841A4.059,4.059,0,0,1,10,9.911" fill="none" stroke="#02614b" stroke-miterlimit="10" stroke-width="0.981"/>
        <path id="Trazado_994595" data-name="Trazado 994595" d="M0,20.2H3l4.944,2.46s.949,3.858,3.507,3.858a2.905,2.905,0,0,1,2.371,2.826c0,1.936.736,3.6,5.175,3.6,3.721,0,4.662-.829,4.969-2.108" fill="none" stroke="#02614b" stroke-miterlimit="10" stroke-width="0.981"/>
        <path id="Trazado_994596" data-name="Trazado 994596" d="M24.11,29.856c0-.01,0-.02,0-.029.175-2.052.641-2.6,1.377-2.6,2.3,0,2.6-3.057,2.6-3.057l.334-.209" fill="none" stroke="#02614b" stroke-miterlimit="10" stroke-width="0.981"/>
        <line id="Línea_3268" data-name="Línea 3268" x1="1.933" transform="translate(31.558 22.163)" fill="none" stroke="#02614b" stroke-miterlimit="10" stroke-width="0.981"/>
        <line id="Línea_3269" data-name="Línea 3269" x1="5.862" transform="translate(5.593 26.522)" fill="none" stroke="#02614b" stroke-miterlimit="10" stroke-width="0.981"/>
        <line id="Línea_3270" data-name="Línea 3270" x2="6.758" transform="translate(25.49 27.224)" fill="none" stroke="#02614b" stroke-miterlimit="10" stroke-width="0.981"/>
        <line id="Línea_3271" data-name="Línea 3271" x2="3.808" transform="translate(28.09 24.167)" fill="none" stroke="#02614b" stroke-miterlimit="10" stroke-width="0.981"/>
        <line id="Línea_3272" data-name="Línea 3272" x1="6.563" transform="translate(1.385 22.664)" fill="none" stroke="#02614b" stroke-miterlimit="10" stroke-width="0.981"/>
        <ellipse id="Elipse_13676" data-name="Elipse 13676" cx="1.635" cy="2.649" rx="1.635" ry="2.649" transform="translate(12.864 20.015)" fill="none" stroke="#02614b" stroke-miterlimit="10" stroke-width="0.981"/>
        <path id="Trazado_994597" data-name="Trazado 994597" d="M28.762,19.641a5.121,5.121,0,0,0-.238-.672A7.465,7.465,0,0,0,24.99,15.6a7.466,7.466,0,0,0,.063,4.885,7.353,7.353,0,0,0,3.4,3.313" fill="none" stroke="#02614b" stroke-miterlimit="10" stroke-width="0.981"/>
        <path id="Trazado_994598" data-name="Trazado 994598" d="M28.488,20.044c-.9,1.6-.007,3.81-.007,3.81s2.345-.4,3.242-2,.007-3.81.007-3.81S29.386,18.439,28.488,20.044Z" fill="none" stroke="#02614b" stroke-miterlimit="10" stroke-width="0.981"/>
        <ellipse id="Elipse_13677" data-name="Elipse 13677" cx="2.649" cy="1.635" rx="2.649" ry="1.635" transform="translate(12.495 13.198) rotate(-45)" fill="none" stroke="#02614b" stroke-miterlimit="10" stroke-width="0.981"/>
        <ellipse id="Elipse_13678" data-name="Elipse 13678" cx="1.211" cy="1.962" rx="1.211" ry="1.962" transform="translate(19.452 25.261)" fill="none" stroke="#02614b" stroke-miterlimit="10" stroke-width="0.981"/>
        <ellipse id="Elipse_13679" data-name="Elipse 13679" cx="1.211" cy="1.962" rx="1.211" ry="1.962" transform="translate(17.259 15.501)" fill="none" stroke="#02614b" stroke-miterlimit="10" stroke-width="0.981"/>
      </g>
      <g id="Grupo_1177240" data-name="Grupo 1177240">
        <line id="Línea_3273" data-name="Línea 3273" x2="0.981" transform="translate(7.261 30.029)" fill="none" stroke="#02614b" stroke-miterlimit="10" stroke-width="0.981"/>
        <line id="Línea_3274" data-name="Línea 3274" x2="0.981" transform="translate(9.224 30.029)" fill="none" stroke="#02614b" stroke-miterlimit="10" stroke-width="0.981"/>
      </g>
    </g>
  </g>
</svg>
