<svg xmlns="http://www.w3.org/2000/svg" width="188.063" height="371.616" viewBox="0 0 188.063 371.616">
  <g id="Grupo_1177067" data-name="Grupo 1177067" transform="translate(0 0)">
    <g id="Grupo_1177068" data-name="Grupo 1177068">
      <path id="Trazado_993746" data-name="Trazado 993746" d="M196.237,9.047a53.868,53.868,0,0,0-4.073-4.819c-2.847-2.612-6.948-3.786-10.723-4.1-10.65-.88-25.46,2.774-33.6,9.82-2.292,1.984-4.551,5.165-4.785,8.286-.165,2.169-.188,4.98,1.3,6.671l.147-.606c2.526-.032,5.033.25,7.564.144a82.468,82.468,0,0,0,28.579-6.091,52.76,52.76,0,0,0,7.591-4.023c2.163-1.365,5.662-5.1,8-5.284" transform="translate(-73.838 0)" fill="#8bad4c"/>
      <path id="Trazado_993747" data-name="Trazado 993747" d="M176.586,71.936c-2.09-.66-6.5,1.588-8.7,2.293L146.17,81.146c-2.3.7-5.534,1.023-7.568,2.138l-.3.22c-2.048.4-7.633,1.047-9.033,2.371-2.044.159-5.708.431-7.389,1.621a31.7,31.7,0,0,0-4.712.619l-.161.612c-.868,1.969-.317,3.647.413,5.581a13.508,13.508,0,0,0,7.2,7.37,33.411,33.411,0,0,0,5.681,1.657,65.682,65.682,0,0,0-.253,9.512c6.939,3.48,13.764,5.358,21.378,2.8a3.689,3.689,0,0,0,2.062-1.248,2.1,2.1,0,0,1,1.139-.361l.317-.03a19.926,19.926,0,0,1,3.77-.057l.055-.955c2.549-.975,4.753-2.592,7.371-3.429.266-.894,1.86-1.746,2.627-2.353a29.3,29.3,0,0,0,4.032-3.9,21.313,21.313,0,0,0,4.124-8.18c1.456-5.443.735-10.914.069-16.431-.253-2.1-1.015-4.715-.409-6.77" transform="translate(-43.243 -38.835)" fill="#9a4227"/>
      <path id="Trazado_993748" data-name="Trazado 993748" d="M177.211,106.839l-2.034-.357a3.265,3.265,0,0,0-1.695,1.992c.358,1.691.491,1.736,1.819,2.687l.349.224c1.148-.182,1.166-.374,1.933-1.278.464-1.218.037-2.114-.372-3.268" transform="translate(-69.393 -57.581)" fill="#0c1421"/>
      <path id="Trazado_993749" data-name="Trazado 993749" d="M132.731,100.011a7.012,7.012,0,0,0-1.662-.109c-.914.04-1.047.473-1.653,1.131a3.4,3.4,0,0,0-.175,1.838c.308,1.169.859,1.295,1.809,1.865l.289.167c1.24-.1,1.249-.3,2.122-1.217a5.944,5.944,0,0,0-.73-3.675" transform="translate(-4.751 -54.018)" fill="#0c1421"/>
      <path id="Trazado_993750" data-name="Trazado 993750" d="M211.544,97.267c-2.048.4-7.633,1.047-9.033,2.371l.142.6,6.071,3.2c.693-2,1.29-4.205,2.6-5.9Z" transform="translate(-116.484 -52.598)" fill="#0c1421"/>
      <path id="Trazado_993751" data-name="Trazado 993751" d="M174.757,105.959a31.7,31.7,0,0,0-4.712.619l-.161.612c-.868,1.969-.317,3.647.413,5.581a13.508,13.508,0,0,0,7.2,7.37,33.411,33.411,0,0,0,5.681,1.657,65.684,65.684,0,0,0-.253,9.512c6.939,3.48,13.764,5.358,21.378,2.8a3.689,3.689,0,0,0,2.062-1.248,24.872,24.872,0,0,1-5.667-.1c-5.4-.911-10.342-5.489-12.721-10.237-.937-1.872-1.433-4.04-2.622-5.758l-.974-.122a10.393,10.393,0,0,1-6.967-4.674c-1.042-1.47-2.985-4.177-2.659-6.009" transform="translate(-96.119 -57.298)" fill="#0c1421"/>
      <path id="Trazado_993752" data-name="Trazado 993752" d="M137.874,19.7c-2.342.183-5.842,3.919-8,5.284a52.761,52.761,0,0,1-7.591,4.023A82.468,82.468,0,0,1,93.7,35.1c-2.53.106-5.038-.176-7.564-.144l-.147.606a12.451,12.451,0,0,0,1.189,6.791,3.451,3.451,0,0,0,.514.623c-4.707,2.248-18.654,10.741-20.34,15.7a3.246,3.246,0,0,0-.152.836,2.616,2.616,0,0,0,2.25,1.356c3.977.774,8.45.343,12.459-.007,1.966-.172,5.589-1.093,7.33-.309l.161-.612a31.705,31.705,0,0,1,4.712-.619c1.681-1.19,5.346-1.462,7.389-1.621,1.4-1.324,6.985-1.971,9.033-2.371l.3-.22c2.034-1.115,5.268-1.436,7.568-2.138l21.713-6.917c2.2-.706,6.613-2.953,8.7-2.293l.165-.775c2.664-1.715,6.425-2.754,9.369-4.045a142.5,142.5,0,0,0,14.324-7.373c-9.649-4.75-20.955-6.5-31.656-6.135l-.987-.643c-.781-1.479-2.1-3.414-2.158-5.082" transform="translate(-15.475 -10.652)" fill="#8bad4c"/>
      <path id="Trazado_993753" data-name="Trazado 993753" d="M188.132,19.7c-2.342.183-5.842,3.919-8,5.284a52.76,52.76,0,0,1-7.591,4.023A82.468,82.468,0,0,1,143.958,35.1c-2.53.106-5.038-.176-7.564-.144l-.147.606a12.451,12.451,0,0,0,1.189,6.791,3.452,3.452,0,0,0,.514.623l.436.3c13.359.291,26.93-1.3,39.2-6.941,4.822-2.216,11.757-5.728,13.69-10.906l-.987-.643c-.781-1.479-2.1-3.414-2.158-5.082" transform="translate(-65.733 -10.652)" fill="#0b7c3b"/>
      <path id="Trazado_993754" data-name="Trazado 993754" d="M88.318,304.206c-2.269,1.569-3.821,4.523-5.231,6.846-4.358,7.172-8.634,15.207-10.172,23.55a4.371,4.371,0,0,0,.266,2.99c-.611,1.669.257,3.9.969,5.427,2.071,4.424,5.617,8.287,8.657,12.078l20.28,23.666c3.614,3.988,7.082,8.271,10.971,11.977a3.578,3.578,0,0,0-.533,1.615c-.1,2.5.648,5.46.923,7.973l1.323,10.805a30.554,30.554,0,0,0,.7,5.165,4.278,4.278,0,0,0,.487.94,29.128,29.128,0,0,0,.22,7.121l1.148,12.1.767,14.051c.087,1.763-.179,4.357.716,5.883a6.558,6.558,0,0,0,.253,4.607c-1.254,2.973-.147,9.037.055,12.352a17.7,17.7,0,0,0,.5,4.64l.175.433c-.6,2.089-.23,4.364-.1,6.5l.432,10.293a30.841,30.841,0,0,1,.129,5.479c-.716,4.685-4.84,9.046-5.217,13.734a2.447,2.447,0,0,0-.684,1.627c-1.966,1.76-3.2,5.818-4.271,8.273a10.408,10.408,0,0,0-1.153,2.951l.018.271a29.225,29.225,0,0,0-3.55,7.768l.455.623,36.074.09,10.815,0c2.1,0,4.331.221,6.338-.445,1.511.868,13.47.486,15.559.017a5.713,5.713,0,0,0,3.224.3l32.243.061,10.209.034c2.039,0,4.147.213,6.1-.429a5.061,5.061,0,0,1-.528-1.177c-.606-2.248-.271-5.569-.344-7.968l-.648-16.269-3.031-76.02a4.614,4.614,0,0,1,.524-2.575l-.312-.53c-.684-1.352-2.875-61.164-2.241-63.173l-.243.091c-1.828.78-2.958,2.984-4.381,4.343a23.559,23.559,0,0,1-7.793,4.665c-18.875,7.441-43.4,5.147-62.742.922-3.022-.66-7.633-1.229-10.374-2.571l-.4-.234a35.5,35.5,0,0,1-9.079-2.447l-1.759-.62c-2.14-2.278-3.706-5.541-5.29-8.24a32.018,32.018,0,0,1-3.274-6.105c.5-.744-.317-6.9-.367-8.376a165.7,165.7,0,0,1,.4-21.517c-.055-1.508,2.471-4.549,3.32-5.946-2.305-.476-4.542-1.881-6.618-2.959-5.2-2.7-10.135-5.771-15.086-8.9a87.718,87.718,0,0,1-8.831-5.768" transform="translate(-72.771 -164.502)" fill="#0f293e"/>
      <path id="Trazado_993755" data-name="Trazado 993755" d="M197.771,730.736l-.147-.225a4.562,4.562,0,0,1-.794-2.073c-1.713,3.882-2.6,8.382-3.917,12.435-1.226,3.783-8.161,21.3-7.32,24.133,1.511.867,13.47.486,15.559.017l-.363-.884c-.854-2.611-.854-5.782-1.18-8.53l-1.984-18.2c-.17-2.082-.808-4.748.147-6.671" transform="translate(-98.287 -393.908)" fill="#f5f9ed"/>
      <path id="Trazado_993756" data-name="Trazado 993756" d="M143.727,648.973c.84-.6,2.177-.373,3.215-.376l9.64-.026c.836-1.374-.129-25.162-.165-28.54l-.542-59.787c-.083-13.536.271-27.386-.808-40.872l7.954-6.1c-6.792,2.895-13.1,6.931-19.357,10.824-2.025,14.6-2.581,29.682-3.816,44.384L137.779,591.7c-.675,7-2.071,15.385-.721,22.387l.064.3c-.955,1.923-.317,4.59-.147,6.671l1.984,18.2c.326,2.748.326,5.919,1.18,8.53l.363.885a5.714,5.714,0,0,0,3.224.3" transform="translate(-37.64 -277.555)" fill="#0c1421"/>
      <path id="Trazado_993757" data-name="Trazado 993757" d="M223.808,304.206c-2.269,1.569-3.821,4.523-5.231,6.846-4.358,7.172-8.634,15.207-10.172,23.55a4.371,4.371,0,0,0,.266,2.99c-.611,1.669.257,3.9.969,5.427,2.071,4.424,5.617,8.287,8.657,12.078l20.28,23.666c3.614,3.988,7.082,8.271,10.971,11.977.951,1.654,2.843,3.195,4.2,4.554a25.589,25.589,0,0,0,4.129,3.806c2.3,1.421,5.97,2.067,8.648,2.438,2.388.332,4.776.6,6.916,1.808,3.853,2.173,5.313,5.635,8.367,8.518a2.461,2.461,0,0,0,2.535-.837,4.023,4.023,0,0,0-.018-2.259c-1.061-3.772-5.139-9.279-8.514-11.179a1.3,1.3,0,0,1-.712-.743l.588-.132c4.464,1.657,8.34,6.281,11.394,9.791a25.032,25.032,0,0,0,4.349,4.521c1.5-.043,1.506-.141,2.622-1.174.85-3.333-5.832-10.493-8.3-12.717-1.1-1-3.518-2.117-4.041-3.35,2.82-.629,9.956,7.543,11.623,9.592,1.46,1.791,3.082,4.723,5.208,5.551.822-.416,1.033-.4,1.419-1.264-1.134-5.143-5.814-12.95-10.388-15.728-2.939-1.783-6.342-2.755-8.923-5.094a45.135,45.135,0,0,1,10.223,3.915c2.177,1.074,5.938,3.81,8.28,3.665,1.065-.693,1.235-.652,1.534-1.862-2.328-2.989-6.53-5.55-9.814-7.417a25.675,25.675,0,0,0-6.526-2.9c-5.428-1.248-12.491-.231-17.819,1.25-.863-.589-1.5-2.119-2.034-3.018l-4.253-7.1,1.075-.733-1.759-.62c-2.14-2.278-3.706-5.541-5.29-8.24a32.018,32.018,0,0,1-3.274-6.105c.5-.744-.317-6.9-.367-8.376a165.7,165.7,0,0,1,.4-21.517c-.055-1.508,2.471-4.549,3.32-5.946-2.305-.476-4.542-1.881-6.618-2.959-5.2-2.7-10.136-5.771-15.086-8.9a87.716,87.716,0,0,1-8.831-5.768" transform="translate(-208.261 -164.502)" fill="#9a4227"/>
      <path id="Trazado_993758" data-name="Trazado 993758" d="M326.144,385.437c.5-.744-.317-6.9-.367-8.376a165.7,165.7,0,0,1,.4-21.517c-1.653.945-2.811,2.852-3.991,4.317l-6.067,6.995,6.507,12.473c1.043,1.99,2.012,4.456,3.513,6.108" transform="translate(-283.419 -192.263)" fill="#ddebe9"/>
      <path id="Trazado_993759" data-name="Trazado 993759" d="M61.776,189.387l-.615,1.132a105.579,105.579,0,0,1,6.448,16.523l2.411,9.164c.45,1.78.739,3.775,1.768,5.324l12.547-.25c-1.69-1.334-2.475-4.959-3.279-6.946a65.739,65.739,0,0,0-3.628-7.445,50.782,50.782,0,0,0-10.09-12.814c-1.75-1.555-3.761-2.857-5.405-4.523Z" transform="translate(75.64 -102.412)" fill="#ea6f34"/>
      <path id="Trazado_993760" data-name="Trazado 993760" d="M97.911,151.514a3.689,3.689,0,0,1-2.062,1.248c-7.614,2.558-14.439.68-21.378-2.8a65.685,65.685,0,0,1,.253-9.512c-.9,1.967-1.093,9.791-.344,11.858l.381.841a127.729,127.729,0,0,0-15.578,1.364,63.55,63.55,0,0,0-36.675,20.755C12.492,186.41,6.149,199.772,0,213.278c.468.947,2.273,1.785,3.21,2.376a87.714,87.714,0,0,0,8.831,5.768c4.951,3.132,9.883,6.2,15.086,8.9,2.076,1.078,4.312,2.483,6.618,2.959-.85,1.4-3.375,4.438-3.32,5.946a165.7,165.7,0,0,0-.4,21.517c.051,1.472.863,7.632.367,8.376a32.018,32.018,0,0,0,3.274,6.105c1.584,2.7,3.15,5.962,5.29,8.24l1.759.62a35.5,35.5,0,0,0,9.079,2.447l.4.234c2.742,1.342,7.352,1.911,10.374,2.571,19.339,4.225,43.867,6.519,62.742-.922a23.56,23.56,0,0,0,7.793-4.665c1.424-1.36,2.553-3.564,4.381-4.344l.243-.091c-.129-2.232.032-4.448-.147-6.684-.17-2.178-1.02-5.573-.707-7.611a9.146,9.146,0,0,1,.7-1.568c6.925-1.209,14.586-.158,21.653-.9,4.767-.5,2.866-12.817,5.35-15.742l.156-.168,2.636-.249a4.886,4.886,0,0,0,3.274-1.96,39.193,39.193,0,0,0,1.961-4.24c2.361-4.727,6.044-10.434,4.909-15.955-.877-4.239-3.527-4.008-6.475-6.044l-.161-.118c-.524-1.713.367-4.068.753-5.844.951-4.364,2.149-8.823,2.7-13.251a3.12,3.12,0,0,0-.772-2.863,3.331,3.331,0,0,0-1.9-1.187,48.169,48.169,0,0,0-6.985-.078l-15.04-.041-12.547.25c-1.029-1.55-1.318-3.544-1.768-5.324l-2.411-9.164a105.577,105.577,0,0,0-6.448-16.523l.615-1.132c-1.883-.839-3.761-2.4-5.6-3.446-5.222-2.953-10.5-4.428-16.349-5.6l.184-1.164-.175-1.652a19.927,19.927,0,0,0-3.77.057l-.317.03a2.1,2.1,0,0,0-1.139.361" transform="translate(12.337 -75.949)" fill="#f2a43b"/>
      <path id="Trazado_993761" data-name="Trazado 993761" d="M209.41,391.847c-6.912.073-14.31-.61-21.139.179,4.184,2.605,8.974,4.19,13.538,6,2.126.843,4.455,2.226,6.788,2.067a4.31,4.31,0,0,1-.5-1.326c-.276-1.873.234-5.358,1.309-6.918" transform="translate(-107.81 -211.783)" fill="#7d5e5d"/>
      <path id="Trazado_993762" data-name="Trazado 993762" d="M181.674,151.514a3.689,3.689,0,0,1-2.062,1.248c-7.614,2.558-14.439.68-21.378-2.8a65.686,65.686,0,0,1,.253-9.512c-.9,1.967-1.093,9.791-.344,11.858l.381.841a4.841,4.841,0,0,0-.395.853,5.2,5.2,0,0,0,.551,3.48c1.451,3,4.8,5.169,7.848,6.261,4.652,1.663,10.636,1.988,15.15-.255,1.764-.875,4.3-2.942,4.629-5.009.294-1.864.037-3.66.661-5.486l.106-.276-.175-1.652a19.927,19.927,0,0,0-3.77.057l-.317.03a2.1,2.1,0,0,0-1.139.361" transform="translate(-71.426 -75.949)" fill="#9a4227"/>
      <path id="Trazado_993763" data-name="Trazado 993763" d="M266.185,331.052c-1.272-2.143-.565-7.922-.537-10.488a219.9,219.9,0,0,1,2.953-34.68L273.409,263c2.971-12.254,9.111-28.118,3.026-40.226l.294,3.2c1.676,20.9-10.723,38.223-23.587,53.314a15.521,15.521,0,0,1-3-1.481c-.85,1.4-3.375,4.438-3.32,5.946a165.7,165.7,0,0,0-.4,21.517c.051,1.472.863,7.632.367,8.376a32.018,32.018,0,0,0,3.274,6.105c1.584,2.7,3.15,5.962,5.29,8.24l1.759.62a35.5,35.5,0,0,0,9.079,2.447" transform="translate(-204.057 -120.466)" fill="#ea6f34"/>
      <path id="Trazado_993764" data-name="Trazado 993764" d="M59.757,258.768l-12.547.25-22.09.063c-3.031.011-6.723-.377-9.695.182a5.188,5.188,0,0,0-2.682,1.577,5.261,5.261,0,0,0-1.442,2.34c-.845,3.025-1.111,6.359-1.695,9.456L5.116,296.718l-2.9,15.437c-.367,2.076-1.121,4.723-1.1,6.8a2.571,2.571,0,0,0,.262,1.008C.308,321.525-.2,325.011.074,326.883a4.311,4.311,0,0,0,.5,1.326c1.791.917,8.152.037,10.383-.017l36.739-.785c6.925-1.209,14.586-.158,21.653-.9,4.767-.5,2.866-12.818,5.35-15.742l.156-.168,2.636-.249a4.886,4.886,0,0,0,3.274-1.96,39.19,39.19,0,0,0,1.961-4.24c2.361-4.727,6.044-10.434,4.909-15.955-.877-4.239-3.527-4.008-6.475-6.044L81,282.032c-.524-1.713.367-4.068.753-5.844.951-4.364,2.149-8.822,2.7-13.251a3.12,3.12,0,0,0-.772-2.863,3.331,3.331,0,0,0-1.9-1.187,48.165,48.165,0,0,0-6.985-.078Z" transform="translate(100.218 -139.901)" fill="#0b7c3b"/>
      <path id="Trazado_993765" data-name="Trazado 993765" d="M76.966,261.586c-4.253-.527-8.964-.179-13.268-.17-1.7,0-4-.3-5.529.407a3.6,3.6,0,0,0-1.208,2.621c.652,1.068,1.208,1.031,2.365,1.383l17.41.039a2.83,2.83,0,0,0,1.842-1.422c-.106-1.673-.445-1.762-1.612-2.858" transform="translate(83.326 -141.297)" fill="#025620"/>
      <path id="Trazado_993766" data-name="Trazado 993766" d="M80.26,314.056a9.071,9.071,0,0,0-5.653.373,8.975,8.975,0,0,0-4.643,5.1,6.669,6.669,0,0,0,.294,5.194,5.737,5.737,0,0,0,3.761,2.97,4.017,4.017,0,0,0,1.3.312c2.181.127,4.23-1.351,5.681-2.808a6.962,6.962,0,0,0,2.4-5.308c-.069-2.75-1.245-4.022-3.146-5.833" transform="translate(72.702 -169.682)" fill="#fefefe"/>
      <path id="Trazado_993767" data-name="Trazado 993767" d="M19.789,308.57c-4.772-.013-10.232-2.107-14.622.615a5.576,5.576,0,0,0-.951,2.852l.542.8-.23.061a7.658,7.658,0,0,0-4.041,2.4A3.8,3.8,0,0,0,.68,318.38l.969.574.018.506-.262.253A3.41,3.41,0,0,0,0,322.507a4.683,4.683,0,0,0,1.254,3.407,7.109,7.109,0,0,0,1.125.82l-.138.375a4.874,4.874,0,0,0,.1,4.206c1.8,3.493,7.059,4.586,10.494,5.588l.808.232,2.636-.249a4.886,4.886,0,0,0,3.274-1.96,39.194,39.194,0,0,0,1.961-4.24c2.361-4.727,6.044-10.434,4.909-15.955-.877-4.239-3.527-4.008-6.475-6.044Z" transform="translate(161.426 -166.439)" fill="#9a4227"/>
    </g>
  </g>
</svg>
