<svg xmlns="http://www.w3.org/2000/svg" width="61" height="61" viewBox="0 0 61 61">
  <g id="Grupo_1177003" data-name="Grupo 1177003" transform="translate(-340.5 -8475)">
    <g id="Grupo_156312" data-name="Grupo 156312" transform="translate(340.5 8475)">
      <path id="Elipse_5845" data-name="Elipse 5845" d="M30.5,0A30.5,30.5,0,1,1,0,30.5,30.5,30.5,0,0,1,30.5,0Z" transform="translate(0 0)" fill="#02614b"/>
    </g>
    <g id="Grupo_1176892" data-name="Grupo 1176892" transform="translate(349.297 8483.336)">
      <g id="Grupo_1176890" data-name="Grupo 1176890" transform="translate(9.411 38.211)">
        <path id="Trazado_992746" data-name="Trazado 992746" d="M111.01,451.581h1.272v1.272H111.01Z" transform="translate(-111.01 -451.581)" fill="#fbaf00"/>
        <path id="Trazado_992747" data-name="Trazado 992747" d="M141.01,451.581h1.272v1.272H141.01Z" transform="translate(-138.467 -451.581)" fill="#fbaf00"/>
      </g>
      <g id="Grupo_1176891" data-name="Grupo 1176891" transform="translate(0 0)">
        <path id="Trazado_992748" data-name="Trazado 992748" d="M33.3,11.936a2.313,2.313,0,0,0-1.649-.684h-.373A2.336,2.336,0,0,0,29.2,7.861H19.827l1.064-.876a4.551,4.551,0,0,0,1.15-5.561l-.3-.575L12.5,5.8,9.148,9.293H6.075v1.272H9.691l3.584-3.739,7.873-4.213A3.276,3.276,0,0,1,20.084,6L17.6,8.047a4.666,4.666,0,0,1-4.639,4.939v1.272A5.921,5.921,0,0,0,18.82,9.133H29.2a1.06,1.06,0,0,1,0,2.119H20.12v1.272H31.649a1.05,1.05,0,0,1,.749.311,1.063,1.063,0,0,1-.749,1.809H23.377c-.851-1.8-3.488-1.318-5.205.362a5.139,5.139,0,0,0-1.407,2.516c-.646,3.38,2.789,3.495,4.85,1.785h6.079a1.06,1.06,0,0,1,0,2.119H25.632c-.9-1.583-2.491-1.582-3.388,0H15.978a10.755,10.755,0,0,1-6.44-2.185H0v1.272H9.15A11.769,11.769,0,0,0,15.978,22.7h5.817c-.362,1.717.733,3.926,2.144,3.893,1.411.033,2.506-2.176,2.144-3.893h1.612a2.342,2.342,0,0,0,2.078-3.391,2.35,2.35,0,0,0,2.314-3.432A2.339,2.339,0,0,0,33.3,11.936Zm-9.36,13.382c-.277,0-.934-.74-.934-1.907s.657-1.907.934-1.907.934.74.934,1.907S24.215,25.318,23.938,25.318ZM21.169,18c-1.208,1.208-2.667,1.289-3.027.929a1.319,1.319,0,0,1-.133-1.146A3.91,3.91,0,0,1,19.071,15.9c.851-.877,2.347-1.438,3.027-.929.36.36.279,1.82-.929,3.027Zm8.86.032H22.773a4.68,4.68,0,0,0,.777-2.119h6.479a1.06,1.06,0,0,1,0,2.119Z" transform="translate(0 -0.849)" fill="#fbaf00"/>
        <path id="Trazado_992749" data-name="Trazado 992749" d="M0,100.451H4.8v1.272H0Z" transform="translate(0 -92.007)" fill="#fbaf00"/>
        <path id="Trazado_992750" data-name="Trazado 992750" d="M24.626,317.885c-5.6,0-6.072-2.078-6.072-4.026a4.373,4.373,0,0,0-3.708-4.3c-2.9-.035-3.979-4.7-4-4.8l-6.8-3.386H0v1.272H3.744L7.6,304.562h-5.8v1.272H9.823a9.554,9.554,0,0,0,2.121,3.728h-4.7v1.272h7.6a3.168,3.168,0,0,1,2.437,3.026,4.773,4.773,0,0,0,1.409,3.747c1.173,1.044,3.114,1.551,5.934,1.551,4.523,0,6.5-.9,7.058-3.219l-1.237-.3C30.175,316.777,29.5,317.885,24.626,317.885Z" transform="translate(0 -275.896)" fill="#fbaf00"/>
        <path id="Trazado_992751" data-name="Trazado 992751" d="M189.167,302.553c0,2.168,1.287,4.069,2.755,4.069s2.755-1.9,2.755-4.069-1.288-4.069-2.755-4.069S189.167,300.386,189.167,302.553Zm4.239,0c0,1.708-.974,2.8-1.484,2.8s-1.484-1.09-1.484-2.8.974-2.8,1.484-2.8S193.406,300.845,193.406,302.553Z" transform="translate(-173.13 -273.252)" fill="#fbaf00"/>
        <path id="Trazado_992752" data-name="Trazado 992752" d="M371.649,238.372h2.25V237.1h-1.482a7.611,7.611,0,0,0-.4-5.417,8.247,8.247,0,0,0-3.983,1.633,10.191,10.191,0,0,0-5.522-4.944c-1.466,3.776-1.238,8.7,3.785,11.612-.079,1.251-.824,3.742-2.766,3.674h0c-1.85,0-2.261,2.049-2.422,4l1.269.088c.214-2.735.861-2.852,1.154-2.82.013-.005,8.745,0,8.759,0v-1.272H366.22a6.113,6.113,0,0,0,1.226-2.689h4.389V239.7h-1.893A5.947,5.947,0,0,0,371.649,238.372Zm-8.1-3.07a8.572,8.572,0,0,1-.262-5.155,8.29,8.29,0,0,1,3.784,4.2,5.711,5.711,0,0,0-.692,4.172A8,8,0,0,1,363.547,235.3Zm4.281,3.873c-.906-3.161.211-5.144,3.369-6.025.906,3.161-.21,5.144-3.369,6.025Z" transform="translate(-330.494 -209.084)" fill="#fbaf00"/>
        <path id="Trazado_992753" data-name="Trazado 992753" d="M289.871,381.865c0,1.694,1.031,3.179,2.206,3.179s2.206-1.486,2.206-3.179-1.031-3.179-2.206-3.179S289.871,380.172,289.871,381.865Zm3.14,0c0,1.167-.657,1.907-.934,1.907s-.934-.74-.934-1.907.657-1.907.934-1.907S293.011,380.7,293.011,381.865Z" transform="translate(-265.297 -346.655)" fill="#fbaf00"/>
      </g>
    </g>
  </g>
</svg>
