<svg xmlns="http://www.w3.org/2000/svg" xmlns:xlink="http://www.w3.org/1999/xlink" width="42" height="42" viewBox="0 0 42 42">
  <defs>
    <clipPath id="clip-path">
      <rect id="Rectángulo_454634" data-name="Rectángulo 454634" width="42" height="42" transform="translate(206.711 1191)" fill="#fff" stroke="#707070" stroke-width="1"/>
    </clipPath>
  </defs>
  <g id="Enmascarar_grupo_1119134" data-name="Enmascarar grupo 1119134" transform="translate(-206.711 -1191)" clip-path="url(#clip-path)">
    <g id="campesino" transform="translate(206.711 1191)">
      <g id="Grupo_1177088" data-name="Grupo 1177088">
        <path id="Trazado_994015" data-name="Trazado 994015" d="M16.2,20.777V19.443a5.532,5.532,0,0,1-3.19-3.633h-.912a2.043,2.043,0,0,1-.315-.024A4.305,4.305,0,0,0,12.8,23l2.634-1.088A1.231,1.231,0,0,0,16.2,20.777Z" fill="#d6694b"/>
      </g>
      <path id="Trazado_994016" data-name="Trazado 994016" d="M12.332,19.072a4.285,4.285,0,0,1,.894-2.626,5.473,5.473,0,0,1-.221-.636h-.912a2.043,2.043,0,0,1-.315-.024A4.305,4.305,0,0,0,12.8,23l1.228-.507A4.3,4.3,0,0,1,12.332,19.072Z" fill="#c4573a"/>
      <g id="Grupo_1177089" data-name="Grupo 1177089">
        <path id="Trazado_994017" data-name="Trazado 994017" d="M16.2,20.777V19.443a5.532,5.532,0,0,1-3.19-3.633h-.912a2.043,2.043,0,0,1-.315-.024A4.305,4.305,0,0,0,12.8,23l2.634-1.088A1.231,1.231,0,0,0,16.2,20.777Z" fill="none" stroke="#000" stroke-linecap="round" stroke-linejoin="round" stroke-miterlimit="10" stroke-width="1.23"/>
      </g>
      <g id="Grupo_1177090" data-name="Grupo 1177090">
        <path id="Trazado_994018" data-name="Trazado 994018" d="M18.806.615h-1.12a7.233,7.233,0,0,0-7.233,7.233v2.475A7.233,7.233,0,0,1,17.686,3.09h1.12a7.233,7.233,0,0,1,7.233,7.233V7.848A7.233,7.233,0,0,0,18.806.615Z" fill="#feb137"/>
      </g>
      <g id="Grupo_1177091" data-name="Grupo 1177091">
        <path id="Trazado_994019" data-name="Trazado 994019" d="M19.887.7a7.29,7.29,0,0,0-1.081-.08h-1.12a7.233,7.233,0,0,0-7.233,7.233v2.475a7.236,7.236,0,0,1,4.7-6.776A7.23,7.23,0,0,1,19.887.7Z" fill="#eca026"/>
      </g>
      <g id="Grupo_1177092" data-name="Grupo 1177092">
        <path id="Trazado_994020" data-name="Trazado 994020" d="M26.039,10.323V7.848A7.233,7.233,0,0,0,18.806.615h-1.12a7.233,7.233,0,0,0-7.233,7.233v2.475" fill="none" stroke="#000" stroke-linecap="round" stroke-linejoin="round" stroke-miterlimit="10" stroke-width="1.23"/>
      </g>
      <path id="Trazado_994021" data-name="Trazado 994021" d="M26.007,11.94l.032.041V10.323A7.233,7.233,0,0,0,18.806,3.09h-1.12a7.233,7.233,0,0,0-7.233,7.233V11.98l.032-.041a7.234,7.234,0,0,1,7.2-6.553h1.12A7.234,7.234,0,0,1,26.007,11.94Z" fill="#fff3de"/>
      <g id="Grupo_1177093" data-name="Grupo 1177093">
        <path id="Trazado_994022" data-name="Trazado 994022" d="M19.559,3.129a7.311,7.311,0,0,0-.753-.039h-1.12a7.233,7.233,0,0,0-7.233,7.233V11.98l.032-.041a7.236,7.236,0,0,1,3.891-5.752A7.228,7.228,0,0,1,19.559,3.129Z" fill="#ffe5c2"/>
      </g>
      <path id="Trazado_994023" data-name="Trazado 994023" d="M26.007,11.94l.032.041V10.323a7.236,7.236,0,0,0-4.682-6.77" fill="none" stroke="#000" stroke-linecap="round" stroke-linejoin="round" stroke-miterlimit="10" stroke-width="1.23"/>
      <path id="Trazado_994024" data-name="Trazado 994024" d="M18.519,3.09h-.833a7.233,7.233,0,0,0-7.233,7.233V11.98l.032-.041" fill="none" stroke="#000" stroke-linecap="round" stroke-linejoin="round" stroke-miterlimit="10" stroke-width="1.23"/>
      <g id="Grupo_1177094" data-name="Grupo 1177094">
        <path id="Trazado_994025" data-name="Trazado 994025" d="M12.094,11.156h.71v.082a2.051,2.051,0,0,1,2.051-2.051h6.783a2.051,2.051,0,0,1,2.051,2.051v-.082h.71a2.049,2.049,0,0,1,1.609.783,7.234,7.234,0,0,0-7.2-6.553h-1.12a7.234,7.234,0,0,0-7.2,6.553A2.049,2.049,0,0,1,12.094,11.156Z" fill="#d6694b"/>
      </g>
      <g id="Grupo_1177095" data-name="Grupo 1177095">
        <path id="Trazado_994026" data-name="Trazado 994026" d="M15.258,9.188a7.241,7.241,0,0,1,4.957-3.663,7.267,7.267,0,0,0-1.409-.138h-1.12a7.234,7.234,0,0,0-7.2,6.553,2.05,2.05,0,0,1,1.609-.783h.71v.082a2.051,2.051,0,0,1,2.051-2.051h.4Z" fill="#c4573a"/>
      </g>
      <g id="Grupo_1177096" data-name="Grupo 1177096">
        <path id="Trazado_994027" data-name="Trazado 994027" d="M26.007,11.94a7.234,7.234,0,0,0-7.2-6.553h-1.12a7.234,7.234,0,0,0-7.2,6.553" fill="none" stroke="#000" stroke-linecap="round" stroke-linejoin="round" stroke-miterlimit="10" stroke-width="1.23"/>
      </g>
      <g id="Grupo_1177097" data-name="Grupo 1177097">
        <path id="Trazado_994028" data-name="Trazado 994028" d="M12.8,14.407V11.156h-.71a2.057,2.057,0,0,0-2.051,2.051v.552a2.057,2.057,0,0,0,2.051,2.051h.893A5.449,5.449,0,0,1,12.8,14.407Z" fill="#f89580"/>
        <path id="Trazado_994029" data-name="Trazado 994029" d="M12.8,14.407V11.156h-.71a2.057,2.057,0,0,0-2.051,2.051v.552a2.057,2.057,0,0,0,2.051,2.051h.893A5.449,5.449,0,0,1,12.8,14.407Z" fill="none" stroke="#000" stroke-linecap="round" stroke-linejoin="round" stroke-miterlimit="10" stroke-width="1.23"/>
        <path id="Trazado_994030" data-name="Trazado 994030" d="M24.4,11.156h-.71v3.251a5.45,5.45,0,0,1-.183,1.4H24.4a2.057,2.057,0,0,0,2.051-2.051v-.552A2.057,2.057,0,0,0,24.4,11.156Z" fill="#ffb09e"/>
        <path id="Trazado_994031" data-name="Trazado 994031" d="M24.4,11.156h-.71v3.251a5.45,5.45,0,0,1-.183,1.4H24.4a2.057,2.057,0,0,0,2.051-2.051v-.552A2.057,2.057,0,0,0,24.4,11.156Z" fill="none" stroke="#000" stroke-linecap="round" stroke-linejoin="round" stroke-miterlimit="10" stroke-width="1.23"/>
      </g>
      <path id="Trazado_994032" data-name="Trazado 994032" d="M12.8,11.238v3.088a5.443,5.443,0,1,0,10.885.081V11.238a2.051,2.051,0,0,0-2.051-2.051H14.854A2.051,2.051,0,0,0,12.8,11.238Z" fill="#ffcebf"/>
      <path id="Trazado_994033" data-name="Trazado 994033" d="M15.429,14.326V11.238a2.051,2.051,0,0,1,2.051-2.051H14.854A2.051,2.051,0,0,0,12.8,11.238v3.088a5.446,5.446,0,0,0,6.763,5.362A5.525,5.525,0,0,1,15.429,14.326Z" fill="#ffb09e"/>
      <path id="Trazado_994034" data-name="Trazado 994034" d="M12.8,11.238v3.088a5.443,5.443,0,1,0,10.885.081V11.238a2.051,2.051,0,0,0-2.051-2.051H14.854A2.051,2.051,0,0,0,12.8,11.238Z" fill="none" stroke="#000" stroke-linecap="round" stroke-linejoin="round" stroke-miterlimit="10" stroke-width="1.23"/>
      <path id="Trazado_994035" data-name="Trazado 994035" d="M29.131,25.248l-8.073-3.333a1.231,1.231,0,0,1-.761-1.137V19.449a5.424,5.424,0,0,1-2.051.4h0a5.424,5.424,0,0,1-2.051-.4v1.329a1.231,1.231,0,0,1-.761,1.137L7.361,25.248a3.281,3.281,0,0,0-2.029,3.033V40.564a.82.82,0,0,0,.82.82H30.34a.82.82,0,0,0,.82-.82V28.281A3.281,3.281,0,0,0,29.131,25.248Z" fill="#e2e2e2"/>
      <g id="Grupo_1177099" data-name="Grupo 1177099">
        <path id="Trazado_994036" data-name="Trazado 994036" d="M20.3,19.511v-.062l-.082.031Z" fill="#cecece"/>
        <g id="Grupo_1177098" data-name="Grupo 1177098">
          <path id="Trazado_994037" data-name="Trazado 994037" d="M5.332,28.281V40.564a.82.82,0,0,0,.82.82H10.09a.82.82,0,0,1-.82-.82V25.656a3.276,3.276,0,0,1,.272-1.308l-2.181.9A3.281,3.281,0,0,0,5.332,28.281Z" fill="#cecece"/>
        </g>
      </g>
      <path id="Trazado_994038" data-name="Trazado 994038" d="M5.332,37.119v3.445a.82.82,0,0,0,.82.82H30.34a.82.82,0,0,0,.82-.82V28.281a3.281,3.281,0,0,0-2.029-3.033l-8.073-3.333a1.231,1.231,0,0,1-.761-1.137V19.449a5.424,5.424,0,0,1-2.051.4h0a5.424,5.424,0,0,1-2.051-.4v1.329a1.231,1.231,0,0,1-.761,1.137L7.361,25.248a3.281,3.281,0,0,0-2.029,3.033v5.967" fill="none" stroke="#000" stroke-linecap="round" stroke-linejoin="round" stroke-miterlimit="10" stroke-width="1.23"/>
      <g id="Grupo_1177100" data-name="Grupo 1177100">
        <path id="Trazado_994039" data-name="Trazado 994039" d="M11.437,23.565,8.816,24.648v4.8h2.622Z" fill="#838383"/>
        <path id="Trazado_994040" data-name="Trazado 994040" d="M25.055,23.565v5.884h2.622v-4.8Z" fill="#838383"/>
      </g>
      <g id="Grupo_1177101" data-name="Grupo 1177101">
        <path id="Trazado_994041" data-name="Trazado 994041" d="M11.437,23.565,8.816,24.648v4.8h2.622Z" fill="none" stroke="#000" stroke-linecap="round" stroke-linejoin="round" stroke-miterlimit="10" stroke-width="1.23"/>
        <path id="Trazado_994042" data-name="Trazado 994042" d="M25.055,23.565v5.884h2.622v-4.8Z" fill="none" stroke="#000" stroke-linecap="round" stroke-linejoin="round" stroke-miterlimit="10" stroke-width="1.23"/>
      </g>
      <rect id="Rectángulo_454646" data-name="Rectángulo 454646" width="18.86" height="11.936" transform="translate(8.816 29.449)" fill="#e9b665"/>
      <rect id="Rectángulo_454647" data-name="Rectángulo 454647" width="3.281" height="11.936" transform="translate(8.816 29.449)" fill="#d8aa5e"/>
      <rect id="Rectángulo_454648" data-name="Rectángulo 454648" width="18.86" height="11.936" transform="translate(8.816 29.449)" fill="none" stroke="#000" stroke-linecap="round" stroke-linejoin="round" stroke-miterlimit="10" stroke-width="1.23"/>
      <g id="Grupo_1177105" data-name="Grupo 1177105">
        <g id="Grupo_1177104" data-name="Grupo 1177104">
          <g id="Grupo_1177102" data-name="Grupo 1177102">
            <line id="Línea_3206" data-name="Línea 3206" y2="1.23" transform="translate(15.515 11.648)" fill="none" stroke="#000" stroke-linecap="round" stroke-linejoin="round" stroke-miterlimit="10" stroke-width="1.23"/>
            <line id="Línea_3207" data-name="Línea 3207" y2="1.23" transform="translate(20.977 11.648)" fill="none" stroke="#000" stroke-linecap="round" stroke-linejoin="round" stroke-miterlimit="10" stroke-width="1.23"/>
          </g>
          <g id="Grupo_1177103" data-name="Grupo 1177103">
            <path id="Trazado_994043" data-name="Trazado 994043" d="M16.932,16.611a3.434,3.434,0,0,0,2.628,0" fill="none" stroke="#000" stroke-linecap="round" stroke-linejoin="round" stroke-miterlimit="10" stroke-width="1.23"/>
          </g>
          <path id="Trazado_994044" data-name="Trazado 994044" d="M18.081,12.715l-.9,1.26.9.708" fill="none" stroke="#000" stroke-linecap="round" stroke-linejoin="round" stroke-miterlimit="10" stroke-width="1.23"/>
        </g>
      </g>
      <path id="Trazado_994045" data-name="Trazado 994045" d="M18.246,25.348a6.225,6.225,0,0,0,5.011-2.525l-2.2-.908a1.231,1.231,0,0,1-.761-1.137V19.449a5.424,5.424,0,0,1-2.051.4h0a5.424,5.424,0,0,1-2.051-.4v1.329a1.231,1.231,0,0,1-.761,1.137l-2.2.908A6.225,6.225,0,0,0,18.246,25.348Z" fill="#ffb09e"/>
      <g id="Grupo_1177106" data-name="Grupo 1177106">
        <path id="Trazado_994046" data-name="Trazado 994046" d="M14.708,24.246l2.572-1.183a1.231,1.231,0,0,0,.761-1.137V19.845a5.423,5.423,0,0,1-1.846-.4v1.329a1.231,1.231,0,0,1-.761,1.137l-2.2.908A6.273,6.273,0,0,0,14.708,24.246Z" fill="#f89580"/>
      </g>
      <path id="Trazado_994047" data-name="Trazado 994047" d="M18.246,25.348a6.225,6.225,0,0,0,5.011-2.525l-2.2-.908a1.231,1.231,0,0,1-.761-1.137V19.449a5.424,5.424,0,0,1-2.051.4h0a5.424,5.424,0,0,1-2.051-.4v1.329a1.231,1.231,0,0,1-.761,1.137l-2.2.908A6.225,6.225,0,0,0,18.246,25.348Z" fill="none" stroke="#000" stroke-linecap="round" stroke-linejoin="round" stroke-miterlimit="10" stroke-width="1.23"/>
      <g id="Grupo_1177109" data-name="Grupo 1177109">
        <path id="Trazado_994048" data-name="Trazado 994048" d="M24.732,33.838V30.716a1.145,1.145,0,0,1,1.143-1.143h6a1.145,1.145,0,0,1,1.143,1.143v3.122h2.051V30.716a3.2,3.2,0,0,0-3.194-3.194h-6a3.2,3.2,0,0,0-3.194,3.194v3.122Z" fill="#8c3d27"/>
        <path id="Trazado_994049" data-name="Trazado 994049" d="M24.732,33.838V30.716a1.145,1.145,0,0,1,1.143-1.143h6a1.145,1.145,0,0,1,1.143,1.143v3.122h2.051V30.716a3.2,3.2,0,0,0-3.194-3.194h-6a3.2,3.2,0,0,0-3.194,3.194v3.122Z" fill="none" stroke="#000" stroke-linecap="round" stroke-linejoin="round" stroke-miterlimit="10" stroke-width="1.23"/>
        <g id="Grupo_1177107" data-name="Grupo 1177107">
          <path id="Trazado_994050" data-name="Trazado 994050" d="M32.081,27.677a.842.842,0,0,0-.79-.852.821.821,0,0,0-.826.614.821.821,0,0,0-1.589,0,.821.821,0,0,0-1.589,0,.821.821,0,0,0-.826-.614.842.842,0,0,0-.79.852v1.646a1.6,1.6,0,0,0,1.6,1.6h3.206a1.6,1.6,0,0,0,1.6-1.6Z" fill="#ffcebf"/>
        </g>
        <path id="Trazado_994051" data-name="Trazado 994051" d="M30.478,29.34H27.272a1.6,1.6,0,0,1-1.6-1.6v1.586a1.6,1.6,0,0,0,1.6,1.6h3.206a1.6,1.6,0,0,0,1.6-1.6V27.737A1.6,1.6,0,0,1,30.478,29.34Z" fill="#ffb09e"/>
        <g id="Grupo_1177108" data-name="Grupo 1177108">
          <path id="Trazado_994052" data-name="Trazado 994052" d="M32.081,27.677a.842.842,0,0,0-.79-.852.821.821,0,0,0-.826.614.821.821,0,0,0-1.589,0,.821.821,0,0,0-1.589,0,.821.821,0,0,0-.826-.614.842.842,0,0,0-.79.852v1.646a1.6,1.6,0,0,0,1.6,1.6h3.206a1.6,1.6,0,0,0,1.6-1.6Z" fill="none" stroke="#000" stroke-linecap="round" stroke-linejoin="round" stroke-miterlimit="10" stroke-width="1.23"/>
        </g>
        <path id="Trazado_994053" data-name="Trazado 994053" d="M31.417,41.385H26.333a4.512,4.512,0,0,1-4.512-4.512V33.838H35.93v3.035A4.513,4.513,0,0,1,31.417,41.385Z" fill="#d6694b"/>
        <path id="Trazado_994054" data-name="Trazado 994054" d="M25.1,36.872V33.838H21.82v3.035a4.512,4.512,0,0,0,4.512,4.512h3.281A4.512,4.512,0,0,1,25.1,36.872Z" fill="#c4573a"/>
        <path id="Trazado_994055" data-name="Trazado 994055" d="M35.522,38.746a4.494,4.494,0,0,0,.408-1.874V33.838H21.82v3.035a4.512,4.512,0,0,0,4.512,4.512h5.085a4.492,4.492,0,0,0,2.142-.54" fill="none" stroke="#000" stroke-linecap="round" stroke-linejoin="round" stroke-miterlimit="10" stroke-width="1.23"/>
        <line id="Línea_3208" data-name="Línea 3208" x2="15.586" transform="translate(21.082 33.838)" fill="none" stroke="#000" stroke-linecap="round" stroke-linejoin="round" stroke-miterlimit="10" stroke-width="1.23"/>
        <path id="Trazado_994056" data-name="Trazado 994056" d="M26,33.838l3.764,3.844a.41.41,0,0,0,.586,0l3.771-3.844Z" fill="#fff3de"/>
        <path id="Trazado_994057" data-name="Trazado 994057" d="M28.629,33.838H26l3.764,3.844a.41.41,0,0,0,.586,0l1.021-1.04Z" fill="#ffe5c2"/>
        <path id="Trazado_994058" data-name="Trazado 994058" d="M26,33.838l3.764,3.844a.41.41,0,0,0,.586,0l3.771-3.844Z" fill="none" stroke="#000" stroke-linecap="round" stroke-linejoin="round" stroke-miterlimit="10" stroke-width="1.23"/>
      </g>
    </g>
  </g>
</svg>
