<svg xmlns="http://www.w3.org/2000/svg" width="84" height="91" viewBox="0 0 84 91">
  <g id="Grupo_1177247" data-name="Grupo 1177247" transform="translate(-185.67 -328)">
    <g id="Grupo_1177212" data-name="Grupo 1177212">
      <rect id="Rectángulo_454662" data-name="Rectángulo 454662" width="84" height="91" rx="10" transform="translate(185.67 328)" fill="#4d240b"/>
      <g id="Grupo_1177211" data-name="Grupo 1177211" transform="translate(186 335.167)">
        <g id="Grupo_1177210" data-name="Grupo 1177210" transform="translate(0 0)">
          <path id="Trazado_994458" data-name="Trazado 994458" d="M165.455,210.4a6.114,6.114,0,0,0,5.979-4.882H174V204.3a6.109,6.109,0,0,0-6.1-6.1h-4.882a6.109,6.109,0,0,0-6.1,6.1v1.22h2.564a6.114,6.114,0,0,0,5.979,4.882Zm-1.22-9.763h2.441v2.441h-2.441Zm7.114,2.441h-2.232V200.85A3.68,3.68,0,0,1,171.348,203.076Zm-9.555-2.226v2.226h-2.232A3.679,3.679,0,0,1,161.794,200.85Zm7.1,4.667a3.64,3.64,0,0,1-6.874,0Z" transform="translate(-133.722 -168.903)" fill="#fbaf00"/>
          <path id="Trazado_994459" data-name="Trazado 994459" d="M145.278,151.086a2.443,2.443,0,0,1,2.441,2.441h2.441a4.882,4.882,0,0,0-9.763,0h2.441a2.443,2.443,0,0,1,2.441-2.441Z" transform="translate(-119.647 -126.677)" fill="#fbaf00"/>
          <path id="Trazado_994460" data-name="Trazado 994460" d="M227.858,151.086a2.443,2.443,0,0,1,2.441,2.441h2.441a4.882,4.882,0,0,0-9.763,0h2.441A2.443,2.443,0,0,1,227.858,151.086Z" transform="translate(-190.023 -126.677)" fill="#fbaf00"/>
          <path id="Trazado_994461" data-name="Trazado 994461" d="M54.715,41.112l-6.144,6.911-1.216-.912a3.764,3.764,0,0,0-5.125.73,3.659,3.659,0,0,0,.731,5.128l1.264.948a3.608,3.608,0,0,0-1.362.858A3.642,3.642,0,0,0,40.276,53.7h-.09a10.431,10.431,0,0,0-4.5-7.414A13.44,13.44,0,0,0,47.6,32.952v-1.22a4.856,4.856,0,0,0,3.852-7.846,15.8,15.8,0,0,0,.968-4.358h2.5a2.443,2.443,0,0,0,2.441-2.441V14.645A2.443,2.443,0,0,0,54.921,12.2H51.7a11.026,11.026,0,0,1-4.1-8.543A3.665,3.665,0,0,0,43.937,0H19.528a3.666,3.666,0,0,0-3.661,3.661A11.031,11.031,0,0,1,11.761,12.2H8.544A2.443,2.443,0,0,0,6.1,14.645v2.441a2.443,2.443,0,0,0,2.441,2.441h2.5a15.829,15.829,0,0,0,.967,4.359,4.857,4.857,0,0,0,3.854,7.845v1.22A13.426,13.426,0,0,0,23.412,45a6.1,6.1,0,0,0-2.663,5.034v7.324a8.513,8.513,0,0,0,2.441,5.968v5.017H0v2.441H31.235a13.487,13.487,0,0,0,10.6-5.244,3.659,3.659,0,0,0,1.875-2.078H45.86a15.91,15.91,0,0,1-14.626,9.764H0v2.441H31.235A18.358,18.358,0,0,0,48.527,63.328,3.657,3.657,0,0,0,51.26,59.8V59.19l1.465,1.1a3.66,3.66,0,1,0,4.391-5.857l-1.563-1.173,4.636-8.5Zm-5.9,18.69a1.221,1.221,0,0,1-1.22,1.22H43.937V57.648l.417-.835a1.212,1.212,0,0,1,1.091-.674H47.6a1.221,1.221,0,0,1,1.22,1.22ZM37.74,53.7H32.952V50.037a6.031,6.031,0,0,0-.72-2.815l.733.315A8.021,8.021,0,0,1,37.74,53.7ZM47.6,29.29V24.409a2.441,2.441,0,0,1,0,4.882Zm1.826-6.961a4.86,4.86,0,0,0-1.826-.361V19.527h2.379a13.345,13.345,0,0,1-.553,2.8ZM48.235,12.2H40.781l-.715-.715A7.562,7.562,0,0,1,37.94,7.323h7.753A13.531,13.531,0,0,0,48.235,12.2ZM35.476,7.323A9.937,9.937,0,0,0,37.469,12.2H26A9.953,9.953,0,0,0,27.99,7.323ZM19.528,2.441H43.937a1.221,1.221,0,0,1,1.22,1.22c0,.41.035.815.072,1.22H18.236c.038-.405.072-.81.072-1.22a1.221,1.221,0,0,1,1.22-1.22ZM17.772,7.323h7.753A7.561,7.561,0,0,1,23.4,11.489l-.715.715H15.23a13.526,13.526,0,0,0,2.542-4.882ZM8.544,14.645H54.921v2.441H8.544Zm7.323,4.882v2.441a4.853,4.853,0,0,0-1.828.363,13.339,13.339,0,0,1-.552-2.8Zm-2.441,7.323a2.443,2.443,0,0,1,2.441-2.441V29.29a2.443,2.443,0,0,1-2.441-2.441Zm4.882,6.1V19.527h26.85V32.952A11,11,0,0,1,34.173,43.936H29.292A11,11,0,0,1,18.308,32.952Zm4.882,17.084a3.666,3.666,0,0,1,3.661-3.661v0h.023a3.664,3.664,0,0,1,3.637,3.66V54.55L28.276,57.9l2.031,1.353,2.077-3.117h7.891a1.221,1.221,0,0,1,1.22,1.22v4.882a1.221,1.221,0,0,1-1.22,1.22H29.29a6.108,6.108,0,0,1-6.1-6.1V50.035ZM25.63,68.344V65.066a8.479,8.479,0,0,0,3.66.836h8.795a10.982,10.982,0,0,1-6.85,2.441h-5.6Zm30.5-11.157a1.2,1.2,0,0,1-.234.908,1.244,1.244,0,0,1-1.7.24l-3.229-2.421a3.657,3.657,0,0,0-2.891-2.169l-3.645-2.734a1.216,1.216,0,0,1-.243-1.707,1.249,1.249,0,0,1,1.707-.242l9.764,7.325a1.2,1.2,0,0,1,.477.8Zm-5.6-7.7,4.6-5.171,1.849,1.233-3.4,6.227Z" transform="translate(0 0)" fill="#fbaf00"/>
          <path id="Trazado_994462" data-name="Trazado 994462" d="M385.225,189.935a8.583,8.583,0,0,0-6.834,3.418l-5.126,6.834,1.953,1.463,5.126-6.834a6.1,6.1,0,0,1,10.984,3.661v10.984h2.441V198.478A8.554,8.554,0,0,0,385.225,189.935Z" transform="translate(-318.101 -161.865)" fill="#fbaf00"/>
          <path id="Trazado_994463" data-name="Trazado 994463" d="M495.484,338.581h2.441v2.441h-2.441Z" transform="translate(-422.258 -288.543)" fill="#fbaf00"/>
          <path id="Trazado_994464" data-name="Trazado 994464" d="M495.484,371.613h2.441v2.441h-2.441Z" transform="translate(-422.258 -316.693)" fill="#fbaf00"/>
          <path id="Trazado_994465" data-name="Trazado 994465" d="M413.206,222.968a3.6,3.6,0,0,0-3,1.6l-4.174,6.261,2.031,1.353,4.174-6.261a1.165,1.165,0,0,1,2.133.647v15.922h2.441V226.573A3.609,3.609,0,0,0,413.206,222.968Z" transform="translate(-346.026 -190.016)" fill="#fbaf00"/>
          <path id="Trazado_994466" data-name="Trazado 994466" d="M462.452,371.613h2.441v2.441h-2.441Z" transform="translate(-394.108 -316.693)" fill="#fbaf00"/>
          <path id="Trazado_994467" data-name="Trazado 994467" d="M462.452,404.645h2.441v2.441h-2.441Z" transform="translate(-394.108 -344.844)" fill="#fbaf00"/>
        </g>
      </g>
    </g>
  </g>
</svg>
