<svg xmlns="http://www.w3.org/2000/svg" width="84" height="115" viewBox="0 0 84 115">
  <g id="Grupo_1177134" data-name="Grupo 1177134" transform="translate(-185.67 -328)">
    <rect id="Rectángulo_454662" data-name="Rectángulo 454662" width="84" height="115" rx="10" transform="translate(185.67 328)" fill="#4d240b"/>
    <path id="Trazado_994199" data-name="Trazado 994199" d="M73.729,71.922v-.035a6.416,6.416,0,0,0-5.124-6.275V61.64h1.281a6.412,6.412,0,0,0,6.4-6.4,1.281,1.281,0,0,0-1.281-1.281H71.167a5.108,5.108,0,0,0-4.387,2.517,5.073,5.073,0,0,0-3.3-1.236H62.6a6.389,6.389,0,0,0-2.352-11.359L57.371,43.2a1.281,1.281,0,0,0-.588,2.494l2.878.678a3.843,3.843,0,0,1-1.76,7.482l-6.235-1.468.587-2.489,3.106.733a1.225,1.225,0,0,0,.295.035,1.281,1.281,0,0,0,.293-2.527L52.84,47.4l.883-3.745a1.281,1.281,0,0,0-2.494-.588l-.883,3.744-1.533-.362A4.23,4.23,0,0,0,47,41.211L40.84,37.687,36.153,26.434a8.975,8.975,0,0,0-5.317-5.013,6.345,6.345,0,0,0,2.014-3.171,1.281,1.281,0,1,0-2.475-.663A3.843,3.843,0,0,1,22.951,15.6l.994-3.712L36.317,15.2a1.3,1.3,0,0,0,.333.045,1.282,1.282,0,0,0,.33-2.519l-2.475-.663A6.4,6.4,0,1,0,22.134,8.747l-2.475-.663A1.281,1.281,0,1,0,19,10.56l2.475.663-.994,3.711a6.358,6.358,0,0,0,.639,4.86c.01.018.024.031.035.049l-.642,2.394a4.483,4.483,0,1,0,8.661,2.321l.237-.884a6.406,6.406,0,0,1,4.382,3.748l4.855,11.656a1.271,1.271,0,0,0,.547.62l2.788,1.593-1.732,3.118L38.61,43.59a5.158,5.158,0,0,1-2.39-2.5l-4.188-9.427a1.281,1.281,0,0,0-2.434.31L28,41.539,15.149,38.5l1.609-11.265a1.282,1.282,0,0,0-1.743-1.372l-6.4,2.562a1.28,1.28,0,0,0-.8,1.347l.371,2.986-2.877.36L4.62,29.331a3.872,3.872,0,0,1,2.066-4.126l6.972-3.487a6.36,6.36,0,0,1,3.574-.631,1.282,1.282,0,0,0,.281-2.548,8.917,8.917,0,0,0-5,.888L5.544,22.91A6.446,6.446,0,0,0,2.1,29.781l1.486,8.177a3.87,3.87,0,0,0,6.6,2c.012,0,.02.012.033.015l2.061.487-.6,4.2-1.645,4.115a6.415,6.415,0,0,0,.209,5.258l3.387,6.748a1.322,1.322,0,0,1-.115,1.363l-7.507,10a3.841,3.841,0,0,0,3.074,6.148H19.33a1.281,1.281,0,0,0,1.281-1.281,6.608,6.608,0,0,0-3.054-5.571l4.8-5.6a6.4,6.4,0,0,0,1.3-5.923l-.633-2.21,4.629,3.973a1.252,1.252,0,0,1,.424,1.171L26.253,73.808a3.833,3.833,0,0,0,3.785,4.483h8.506a1.281,1.281,0,0,0,1.281-1.281V75.73a5.131,5.131,0,0,0-3.579-4.885l1.783-8.009a6.468,6.468,0,0,0-1.011-5.054L35.29,55.309a1.281,1.281,0,0,0-2.1,1.469l1.728,2.47a3.9,3.9,0,0,1,.608,3.038l-1.853,8.321H29.38L30.6,63.281a3.816,3.816,0,0,0-1.286-3.548l-7.865-6.75a1.281,1.281,0,0,0-2.066,1.324l1.807,6.315a3.841,3.841,0,0,1-.78,3.553L14.9,70.606H10.364l5.206-6.937a3.89,3.89,0,0,0,.357-4.026l-3.39-6.757a3.849,3.849,0,0,1-.126-3.157l1.7-4.265a1.381,1.381,0,0,0,.079-.293l.589-4.121,12.795,3.02-.544,3.27a1.284,1.284,0,0,0,.213.944l3,4.291a1.281,1.281,0,0,0,2.1-1.468l-2.7-3.863.43-2.585,9.366,2.211,3.574,1.787a4.2,4.2,0,0,0,3.23.231,4.324,4.324,0,0,0,.6-.269l2.908.687-.877,3.738a1.281,1.281,0,0,0,.953,1.541l7.482,1.761a6.323,6.323,0,0,0,1.049.147c0,.009-.005.015-.005.024a6.412,6.412,0,0,0,6.4,6.4h1.281v2.7a6.415,6.415,0,0,0-5.016,5.092,6.31,6.31,0,0,0-3.175,1.613,5.007,5.007,0,0,0-2.056-.439,5.122,5.122,0,0,0-4.447,2.608,5.142,5.142,0,0,0-4.473,1.657,1.281,1.281,0,1,0,1.9,1.716,2.523,2.523,0,0,1,2.846-.669,1.282,1.282,0,0,0,1.714-.853,2.56,2.56,0,0,1,2.459-1.9,2.523,2.523,0,0,1,1.536.53,1.288,1.288,0,0,0,.953.248,1.275,1.275,0,0,0,.847-.5A3.809,3.809,0,0,1,62.2,73.168a1.281,1.281,0,0,0,1.281-1.281,3.843,3.843,0,1,1,7.685,0,3.807,3.807,0,0,1-.161,1.025,1.281,1.281,0,0,0,1.477,1.6,3.137,3.137,0,0,1,3.738,2.683,1.281,1.281,0,0,0,1.267,1.1,1.306,1.306,0,0,0,.186-.013,1.281,1.281,0,0,0,1.084-1.453,5.711,5.711,0,0,0-5.027-4.9ZM29.314,6.694A3.844,3.844,0,0,1,32.031,11.4L24.607,9.411a3.847,3.847,0,0,1,4.707-2.717ZM25.8,25.06A1.922,1.922,0,0,1,22.981,22.9l.25-.931A6.111,6.111,0,0,0,26.659,23c.095,0,.187-.019.282-.023l-.246.92a1.905,1.905,0,0,1-.9,1.167Zm8.9,48.107h0a2.564,2.564,0,0,1,2.562,2.562H30.038a1.272,1.272,0,0,1-1.26-1.495l.178-1.067Zm-19.422,0a4.068,4.068,0,0,1,2.566,2.562H9.083A1.28,1.28,0,0,1,8.057,73.68l.384-.512ZM8.4,38.14a1.3,1.3,0,0,1-.993.444A1.331,1.331,0,0,1,6.1,37.5l-.337-1.851L8.5,35.3l.222,1.783A1.323,1.323,0,0,1,8.4,38.14Zm2.879-.549a3.954,3.954,0,0,0-.013-.816l-.786-6.333,3.43-1.372-1.263,8.844Zm34.454,5.845a1.675,1.675,0,0,1,.67,2.186,1.665,1.665,0,0,1-2.239.745l-1.624-.812L44.2,42.561ZM31.42,36.6l2.455,5.526a7.533,7.533,0,0,0,.507.918L30.5,42.127ZM71.167,56.516H73.51a3.85,3.85,0,0,1-3.624,2.562H68.605A2.564,2.564,0,0,1,71.167,56.516Zm-6.4,3.843A3.85,3.85,0,0,1,61.139,57.8h2.343a2.564,2.564,0,0,1,2.562,2.562Z" transform="translate(187.284 344.354)" fill="#9bbe50"/>
  </g>
</svg>
