<svg xmlns="http://www.w3.org/2000/svg" width="84" height="91" viewBox="0 0 84 91">
  <g id="Grupo_1177222" data-name="Grupo 1177222" transform="translate(-185.842 -341)">
    <rect id="Rectángulo_454662" data-name="Rectángulo 454662" width="84" height="91" rx="10" transform="translate(185.842 341)" fill="#4d240b"/>
    <path id="Trazado_994472" data-name="Trazado 994472" d="M20.289,25.38a23.239,23.239,0,0,0,.521,2.755c0,.016.009.032.014.05.97,3.052,3.476,3.541,5.675,3.541.531,0,1.044-.029,1.512-.056a15.438,15.438,0,0,1,2.751,7.083l.015.251a1,1,0,0,0,1,.936h.056a1,1,0,0,0,.945-1.045c0-.089-.009-.179-.015-.267A18.1,18.1,0,0,1,34.888,28.7h.1a11.115,11.115,0,0,0,11-12.634,1,1,0,0,0-1.686-.585,8.12,8.12,0,0,1-4.495,2.1,27.492,27.492,0,0,0-3.2.886l-.049.019c-4.306,1.775-3.7,6-3.3,8.8.01.066.019.13.027.195a18.4,18.4,0,0,0-2.134,5.636,21.269,21.269,0,0,0-1.611-2.745A9.479,9.479,0,0,0,19.6,19.929a1,1,0,0,0-.721,1.632A6.562,6.562,0,0,1,20.289,25.38ZM37.3,20.342a25.6,25.6,0,0,1,2.96-.814,12.056,12.056,0,0,0,3.817-1.345,9.108,9.108,0,0,1-7.728,8.408A10.328,10.328,0,0,1,39.364,24.1a1,1,0,0,0-.931-1.771,12.159,12.159,0,0,0-3.414,2.751c-.176-2.271.186-3.867,2.281-4.742ZM25.649,24.358a7.436,7.436,0,0,1,1.775,3.42,14.372,14.372,0,0,0-1.132-1.047,1,1,0,1,0-1.272,1.545A13.559,13.559,0,0,1,26.5,29.72c-1.9,0-3.2-.374-3.765-2.119a21.644,21.644,0,0,1-.47-2.506,11.013,11.013,0,0,0-.74-3.05,7.467,7.467,0,0,1,4.119,2.312Zm4.367,17.358H47.4a1,1,0,1,1,0,2H30.016a1,1,0,0,1,0-2ZM39.708,47.1a1,1,0,0,1-1,1H30.016a1,1,0,0,1,0-2h8.691A1,1,0,0,1,39.708,47.1Zm-13.78-7.475H17.357a1,1,0,0,0-1,1V49.19a1,1,0,0,0,1,1h8.571a1,1,0,0,0,1-1V40.623A1,1,0,0,0,25.927,39.622Zm-1,8.567H18.358V41.623h6.568Zm-5.793-2.907a1,1,0,0,1,1.415-1.416l.716.715,1.469-1.469a1,1,0,0,1,1.415,1.415L21.973,46.7a1,1,0,0,1-1.415,0Zm6.795,7.407H17.357a1,1,0,0,0-1,1v8.567a1,1,0,0,0,1,1h8.571a1,1,0,0,0,1-1V53.69a1,1,0,0,0-1-1Zm-1,8.567H18.358V54.69h6.568Zm-5.793-2.9a1,1,0,1,1,1.415-1.416l.716.714,1.469-1.471a1,1,0,0,1,1.417,1.414l-2.175,2.179a1,1,0,0,1-1.416,0Zm20.575-2.569a1,1,0,0,1-1,1H30.016a1,1,0,1,1,0-2h8.691A1,1,0,0,1,39.708,55.784Zm-2.99,4.384a1,1,0,0,1-1,1h-5.7a1,1,0,0,1,0-2h5.7A1,1,0,0,1,36.718,60.167ZM53.246,48.742V17.852a6.768,6.768,0,0,0-6.758-6.762H6.748A6.768,6.768,0,0,0-.01,17.852V25.5a1,1,0,0,0,1,1H11.509V66.368a1,1,0,0,0,1,1H42.574A11.809,11.809,0,1,0,53.246,48.742ZM1.991,24.5V17.852a4.758,4.758,0,1,1,9.516,0V24.5ZM13.511,65.367V17.852a6.736,6.736,0,0,0-1.964-4.76H46.489a4.763,4.763,0,0,1,4.756,4.76V48.73a11.81,11.81,0,0,0-9.828,16.638H13.511Zm38.668,4.946A9.809,9.809,0,1,1,61.988,60.5,9.82,9.82,0,0,1,52.178,70.313Zm6.2-13.975a1,1,0,0,1,0,1.416L51.458,64.67a1,1,0,0,1-1.415,0l-4.061-4.06A1,1,0,0,1,47.4,59.194l3.352,3.352,6.208-6.208a1,1,0,0,1,1.416,0Z" transform="translate(195.852 344.91)" fill="#9bbe50"/>
  </g>
</svg>
