<svg xmlns="http://www.w3.org/2000/svg" xmlns:xlink="http://www.w3.org/1999/xlink" width="292" height="223.375" viewBox="0 0 292 223.375">
  <defs>
    <clipPath id="clip-path">
      <path id="Trazado_992795" data-name="Trazado 992795" d="M195.253,40.611c-17.1.546-33.986,3.693-50.962,5.774a410.2,410.2,0,0,1-43.68,3c-8.56.131-17.206-.016-25.54-1.97C63.52,44.708,51.434,38.6,40.457,43.092l1.906.231c-13.344,6.522-22.526,20.092-25.5,34.642s-.192,29.893,5.929,43.427a52.465,52.465,0,0,0,9.588,14.939c7.559,7.862,18.19,11.925,28.661,14.985,39.921,11.664,82.244,12.076,123.771,9.787,13.767-.759,27.657-1.83,40.837-5.875,6.438-1.977,12.742-4.7,17.986-8.925a62.65,62.65,0,0,0,10.856-12.059c10.82-14.763,19.842-32.231,18.435-50.481a31.635,31.635,0,0,0-3.876-13.617c-2.6-4.444-6.586-7.9-10.661-11.049a94.417,94.417,0,0,0-13.338-8.8c-13.683-7.269-29.41-9.766-44.958-9.766q-2.422,0-4.837.077" transform="translate(-15.661 -40.534)" fill="none"/>
    </clipPath>
  </defs>
  <g id="Grupo_1177242" data-name="Grupo 1177242" transform="translate(-601 -677.5)">
    <rect id="Rectángulo_402012" data-name="Rectángulo 402012" width="292" height="223.375" transform="translate(601 677.5)" fill="#e5efec"/>
    <rect id="Rectángulo_454557" data-name="Rectángulo 454557" width="292" height="27.538" transform="translate(601 873.337)" fill="#99c0b7"/>
    <g id="Grupo_1176900" data-name="Grupo 1176900" transform="translate(601 690.459)">
      <g id="Grupo_1176897" data-name="Grupo 1176897" transform="translate(20.555 53.201)">
        <g id="Grupo_1176896" data-name="Grupo 1176896" clip-path="url(#clip-path)">
          <rect id="Rectángulo_454556" data-name="Rectángulo 454556" width="279.045" height="127.349" transform="translate(-0.623 -5.451)" fill="#a4f6ff"/>
          <path id="Trazado_992754" data-name="Trazado 992754" d="M62.213,34.871A12.152,12.152,0,0,0,57.3,39.7c-.98,2.114-.659,4.991,1.271,6.3,3.054,2.071,7.026-.933,10.715-.9-.961,3.432.757,7.227,3.546,9.447s6.444,3.08,10.005,3.244c3.8.175,8.271-.816,9.867-4.275.864,3.913,5.5,6.216,9.405,5.327s6.888-4.28,8.232-8.055c3.283,2.349,8.254.173,10.117-3.406s1.423-7.9.588-11.847q-.534.975-1.07,1.95" transform="translate(-2.818 -42.304)" fill="#fffaf0"/>
          <path id="Trazado_992755" data-name="Trazado 992755" d="M64.438,65.253A10.375,10.375,0,0,1,70.33,59.37a4.077,4.077,0,0,1,2.758-.24c1.915.665,2,3.934.122,4.7a26.062,26.062,0,0,1,12.218-3.3c1.945-.052,4.039.144,5.535,1.385s1.956,3.855.45,5.086a21.862,21.862,0,0,1,8.689-2.987c1.7-.2,3.578-.151,4.9.934,2.041,1.676,1.663,5.133-.139,7.063s-4.527,2.666-7.131,3.1c1.206.243,1.341,2.112.454,2.964a5.155,5.155,0,0,1-3.462,1l-7.178.28" transform="translate(-0.418 -34.77)" fill="#fffaf0"/>
          <path id="Trazado_992756" data-name="Trazado 992756" d="M38.972,119.157C43.19,116.3,223.753,45.762,266.784,48.548S291.253,164.3,287.878,163.93,83.69,153.43,83.69,153.43" transform="translate(-8.376 -38.055)" fill="#708e26"/>
          <path id="Trazado_992757" data-name="Trazado 992757" d="M18.643,160.568s-19.407-120.535,9.281-113,229.5,104.564,239.625,113-248.906,0-248.906,0" transform="translate(-16.734 -38.443)" fill="#7eaa29"/>
          <path id="Trazado_992758" data-name="Trazado 992758" d="M139.65,160.533c-6.409-8.837-12.908-17.849-16.411-28.189-3.259-9.622-3.763-19.95-3.646-30.109.038-3.217.786-7.284,3.922-8a126,126,0,0,1,7.572,35.653,129.408,129.408,0,0,1,.27-37.964c.941-6.041,2.712-12.625,7.825-15.978,1.214,1.32,1.138,3.339.982,5.127q-1.979,22.7-5.173,45.263A90.412,90.412,0,0,1,143.6,99.845c.839-1.654,2.17-3.532,4.014-3.326.973,3.474.161,7.169-.652,10.684q-2.7,11.673-5.4,23.348a84.9,84.9,0,0,1,9.571-16.774c1.31-1.785,3.142-3.712,5.327-3.352.818,2.789-.193,5.751-1.193,8.48l-8.529,23.3a19.746,19.746,0,0,1,6.456-6.769,2.647,2.647,0,0,1,1.873-.57c1.309.27,1.516,2.046,1.339,3.372a34.015,34.015,0,0,1-13.41,22.642" transform="translate(16.813 -29.468)" fill="#e2c430"/>
          <path id="Trazado_992759" data-name="Trazado 992759" d="M169.807,80.528a25.755,25.755,0,0,1-5.855-15.967,20.161,20.161,0,0,1,6.914-15.3c.484-.4,1.141-.8,1.7-.512.522.266.625.959.641,1.546a23.848,23.848,0,0,1-2.7,11.618,48.22,48.22,0,0,1,6.355-15.161c3.447-5.392,8.815-10.449,15.209-10.227q-6.517,9.59-13.664,18.728a26.579,26.579,0,0,1,14.441-6.645,2,2,0,0,1,1.461.2c.988.74.022,2.268-.929,3.054L177.93,64.63a36.754,36.754,0,0,1,13.487-5.468,3.542,3.542,0,0,1,2.764.277,2.5,2.5,0,0,1,.511,3.044,6.794,6.794,0,0,1-2.311,2.376,66.376,66.376,0,0,1-11.854,6.822c1.74-.652,3.59-1.314,5.414-.963s3.506,2.143,3.021,3.937c-.386,1.431-1.887,2.225-3.273,2.751a32.289,32.289,0,0,1-15.369,1.855" transform="translate(30.68 -41.789)" fill="#97c427"/>
          <path id="Trazado_992760" data-name="Trazado 992760" d="M172.769,82.449a25.753,25.753,0,0,1-11.658-12.382,20.16,20.16,0,0,1,.346-16.788c.286-.56.736-1.181,1.364-1.139.585.039.952.635,1.2,1.169A23.833,23.833,0,0,1,166.1,65.055a48.208,48.208,0,0,1-.112-16.438c1.05-6.312,4-13.071,9.967-15.38q-2.223,11.377-5.207,22.589a26.566,26.566,0,0,1,10.669-11.784,2,2,0,0,1,1.424-.386c1.2.293.91,2.078.344,3.174l-9.19,17.808A36.761,36.761,0,0,1,184.245,54.31a3.548,3.548,0,0,1,2.651-.832,2.5,2.5,0,0,1,1.667,2.6,6.817,6.817,0,0,1-1.193,3.092,66.374,66.374,0,0,1-8.22,10.93c1.344-1.282,2.785-2.618,4.6-3.013s4.065.595,4.325,2.433c.207,1.469-.862,2.789-1.929,3.818a32.3,32.3,0,0,1-13.4,7.744" transform="translate(29.274 -42.814)" fill="#8aaa27"/>
          <path id="Trazado_992761" data-name="Trazado 992761" d="M182.337,74.5a3.794,3.794,0,0,1,4.188,3.209.661.661,0,0,0,1.265,0,5.727,5.727,0,0,1,2.894-4.239c.74-.407.079-1.541-.663-1.133a6.942,6.942,0,0,0-3.5,5.023h1.265a5.1,5.1,0,0,0-5.8-4.125.662.662,0,0,0-.458.807.672.672,0,0,0,.807.458" transform="translate(36.167 -30.623)" fill="#8aaa27"/>
          <path id="Trazado_992762" data-name="Trazado 992762" d="M190.042,61.765a4.6,4.6,0,0,1,2.567,1.666.659.659,0,0,0,.928,0,6.649,6.649,0,0,1,2.647-2.116,1.912,1.912,0,0,1,2.345.77.662.662,0,0,0,1.134,0,4.31,4.31,0,0,1,5.186-2.049c.8.274,1.145-.994.349-1.265a5.624,5.624,0,0,0-6.669,2.651h1.134a3.119,3.119,0,0,0-3.29-1.491c-1.576.231-2.744,1.448-3.764,2.571h.928a5.738,5.738,0,0,0-3.146-2,.657.657,0,0,0-.349,1.265" transform="translate(38.687 -34.923)" fill="#8aaa27"/>
          <path id="Trazado_992763" data-name="Trazado 992763" d="M173.02,83.887a1.592,1.592,0,0,1,1.722,1.365.662.662,0,0,0,1.223.332,9.169,9.169,0,0,1,5.379-4.279.657.657,0,0,0-.349-1.265,10.52,10.52,0,0,0-6.163,4.881l1.223.331a2.92,2.92,0,0,0-3.384-2.63.66.66,0,0,0-.458.807.672.672,0,0,0,.807.458" transform="translate(33.255 -28.198)" fill="#8aaa27"/>
          <path id="Trazado_992764" data-name="Trazado 992764" d="M181.836,86.643a2.579,2.579,0,0,1,2.415,1.584.662.662,0,0,0,1.265,0,3.517,3.517,0,0,1,3.07-2.368c.839-.049.844-1.361,0-1.312a4.875,4.875,0,0,0-4.335,3.331h1.265a3.922,3.922,0,0,0-3.68-2.548.657.657,0,0,0,0,1.313" transform="translate(36.07 -26.78)" fill="#8aaa27"/>
          <path id="Trazado_992765" data-name="Trazado 992765" d="M64.638,133.26c-3.752-1.414-7.577-2.865-10.694-5.388s-5.464-6.345-5.184-10.345a2.921,2.921,0,0,1,1.231-2.494c2.032-1.064,4.255,2.385,6.4,1.559,1.192-2.328-1.26-4.725-2.906-6.757A13.041,13.041,0,0,1,52.728,94.9c.7-1.071,1.881-2.135,3.105-1.765,1.042.315,1.515,1.495,1.832,2.536a93.591,93.591,0,0,1,2.344,9.443A38.051,38.051,0,0,1,71.744,68.5c1.141-1,2.524-1.979,4.025-1.782,2.286.3,3.347,3.246,2.679,5.452s-2.437,3.867-3.927,5.627-2.814,4-2.321,6.251A10.857,10.857,0,0,1,78.52,79.1c2.672-.618,5.86.56,6.9,3.1a7.461,7.461,0,0,1-.1,4.99c-2.473,7.939-10.715,13.433-11.94,21.66-.539,3.624.391,7.284.962,10.9s.724,7.564-1.163,10.706-6.492,4.848-9.367,2.574" transform="translate(-5.325 -32.359)" fill="#3c721d"/>
          <path id="Trazado_992766" data-name="Trazado 992766" d="M63.941,117a92.674,92.674,0,0,0-.374-12.586,99.042,99.042,0,0,0-1.977-12.4,76.483,76.483,0,0,0-3.734-11.967,62.676,62.676,0,0,0-5.866-11.046A62.5,62.5,0,0,1,57.58,80.161a76.132,76.132,0,0,1,3.43,11.984,98.3,98.3,0,0,1,1.67,12.345,91.914,91.914,0,0,1,.076,12.421Z" transform="translate(-4.308 -31.637)" fill="#ff9100"/>
          <path id="Trazado_992767" data-name="Trazado 992767" d="M61.061,102.469a8.338,8.338,0,0,0,8.254-6.632,3.464,3.464,0,0,0-.848-3.326,2.789,2.789,0,0,0-2.941-.178,6,6,0,0,0-2.206,2.149,14.632,14.632,0,0,0-2.435,7.526" transform="translate(-1.528 -24.451)" fill="#ff9100"/>
          <path id="Trazado_992768" data-name="Trazado 992768" d="M62.127,98a5.6,5.6,0,0,1-3.239-1.183,11.194,11.194,0,0,1-1.656-1.742c-1.076-1.311-2.2-2.738-2.332-4.428a1.927,1.927,0,0,1,.341-1.393c.648-.774,1.908-.482,2.779.033a8.716,8.716,0,0,1,4.167,7.879" transform="translate(-3.402 -25.458)" fill="#ff9100"/>
          <path id="Trazado_992769" data-name="Trazado 992769" d="M59.942,91.023a6.3,6.3,0,0,0,5.317-1.642,4.516,4.516,0,0,0,1.309-2.142,2.929,2.929,0,0,0-.429-2.424,2.186,2.186,0,0,0-2.243-.841,3.133,3.133,0,0,0-1.147.667,9.067,9.067,0,0,0-3.213,6.585" transform="translate(-1.95 -26.979)" fill="#ff9100"/>
          <path id="Trazado_992770" data-name="Trazado 992770" d="M60.614,83.675a5.347,5.347,0,0,0-1.575-2.66,12.748,12.748,0,0,0-3.594-2.457,7.34,7.34,0,0,0-2.578-.784,3.408,3.408,0,0,0-2.524.759,2.246,2.246,0,0,0-.644,2.456,3.314,3.314,0,0,0,.959,1.163,10.259,10.259,0,0,0,4.785,2.444,6.3,6.3,0,0,0,5.123-1.214" transform="translate(-5.069 -28.9)" fill="#ff9100"/>
          <path id="Trazado_992771" data-name="Trazado 992771" d="M58.809,84.488a7.25,7.25,0,0,0,4.151-3.074,4.791,4.791,0,0,0,.8-2.246,2.9,2.9,0,0,0-.763-2.208,2.091,2.091,0,0,0-2.212-.511,3.23,3.23,0,0,0-1.58,2.292,28.174,28.174,0,0,0-.751,5.514" transform="translate(-2.289 -29.352)" fill="#ff9100"/>
          <path id="Trazado_992772" data-name="Trazado 992772" d="M56.8,78.88a2.5,2.5,0,0,0,1.263-1.055,5.871,5.871,0,0,0-.133-6.652,1.023,1.023,0,0,0-.7-.493,1,1,0,0,0-.782.5,6.724,6.724,0,0,0-.921,4.537,5.553,5.553,0,0,0,1.025,3.2" transform="translate(-3.215 -31.114)" fill="#ff9100"/>
          <path id="Trazado_992773" data-name="Trazado 992773" d="M71.372,126.74a23.063,23.063,0,0,1-9.74-7.291,13.745,13.745,0,0,1-3.226-6.367,6.584,6.584,0,0,1,2.385-6.419c1.983-1.365,5.174-.875,6.236,1.285-2.4-4.533-3.773-9.768-2.924-14.825s4.2-9.845,9.039-11.549a4.09,4.09,0,0,1,3.553.059,3.6,3.6,0,0,1,1.381,2.284c.684,3.057-.793,6.127-2.04,9s-2.281,6.27-.81,9.037A7.152,7.152,0,0,1,78.6,97.576a4.928,4.928,0,0,1,5.339.42c2.175,1.839,1.9,5.243,1.159,7.993a42.05,42.05,0,0,1-13.731,21.29" transform="translate(-2.331 -27.827)" fill="#468c20"/>
          <path id="Trazado_992774" data-name="Trazado 992774" d="M76.186,113.92c-.584-1.456-2.2-2.183-3.712-2.607a22.418,22.418,0,0,0-10.588-.356c-.925.194-2.07.793-1.869,1.718.146.667.917.956,1.578,1.133l3.129.84a25.755,25.755,0,0,0-9.164-.088,13.239,13.239,0,0,0-7.828,4.493c-.408.514-.763,1.281-.336,1.781a1.523,1.523,0,0,0,1.2.362,26.273,26.273,0,0,0,5.108-.505,11.953,11.953,0,0,0-10.467,9.563,16.216,16.216,0,0,0,12.126-3.927c-1.58.81-1.085,3.508.529,4.249s3.553.007,4.927-1.118,2.415-2.617,3.794-3.738c-.618,1.007.868,2.015,2.045,2.117a10.183,10.183,0,0,0,9.791-5.562,14.914,14.914,0,0,0,1.276-5.745,4.31,4.31,0,0,0-.441-2.573,1.644,1.644,0,0,0-2.276-.581" transform="translate(-7.044 -18.673)" fill="#80b230"/>
          <path id="Trazado_992775" data-name="Trazado 992775" d="M68.944,115.853a10.855,10.855,0,0,1,4.084-9.842c.562-.429,1.507-.735,1.86-.122a1.256,1.256,0,0,1,.083.787,10.3,10.3,0,0,1-1.692,4.483,14.122,14.122,0,0,1,15.113-7.129,1.239,1.239,0,0,1,.814.427,1.045,1.045,0,0,1,.095.749c-.36,2.068-2.811,2.92-4.861,3.376a20.065,20.065,0,0,1,11.4-.413,4.354,4.354,0,0,1,2.478,1.356,1.752,1.752,0,0,1-.3,2.52,2.586,2.586,0,0,1-1.138.228l-5.5.256a9.083,9.083,0,0,1,3.756,1.477,3.111,3.111,0,0,1,1.105,3.6c-.816,1.666-3.141,1.7-4.984,1.482l-6.835-.8c.806.591,1.694,1.667,1.062,2.441a1.846,1.846,0,0,1-1.635.4,39.388,39.388,0,0,1-15.606-4.777" transform="translate(0.771 -20.781)" fill="#75a024"/>
          <path id="Trazado_992776" data-name="Trazado 992776" d="M173.558,129.4a11.809,11.809,0,0,1,3.318-9.665,11.226,11.226,0,0,1,4.413-2.856c1.742-.589,3.636-.543,4.766-2.223a9.988,9.988,0,0,0,.988-2.247,11.888,11.888,0,0,1,1.3-2.621,11.521,11.521,0,0,1,4.15-3.722,11.232,11.232,0,0,1,2.525-.957,8.592,8.592,0,0,0,2.758-.975c1.557-1.039,1.941-3.02,2.826-4.553a13.641,13.641,0,0,1,10.189-6.657.673.673,0,0,0,.634-.482,11.167,11.167,0,0,1,10.051-9.2.681.681,0,0,0,.631-.482,11.72,11.72,0,0,1,4.288-5.824,11.411,11.411,0,0,1,3.238-1.629,21.325,21.325,0,0,0,3.8-1.146c2.277-1.2,2.658-4.014,4.35-5.764a8.222,8.222,0,0,1,6.78-2.435c.837.089.832-1.225,0-1.312a9.387,9.387,0,0,0-5.708,1.253,10.223,10.223,0,0,0-3.909,4.43A5.945,5.945,0,0,1,233,72.9a12.669,12.669,0,0,1-3.369,1.043,12.88,12.88,0,0,0-5.142,2.857,13.053,13.053,0,0,0-3.643,5.611l.634-.482A12.476,12.476,0,0,0,210.161,92.09l.633-.482a14.991,14.991,0,0,0-9.766,5.125,14.469,14.469,0,0,0-1.616,2.286c-.49.868-.809,1.811-1.273,2.692a3.558,3.558,0,0,1-2.478,1.886,21.312,21.312,0,0,0-2.809.852,12.691,12.691,0,0,0-4.512,3.222,14.309,14.309,0,0,0-2.726,4.846,3.388,3.388,0,0,1-1.983,2.41c-.949.322-1.957.415-2.9.759a12.681,12.681,0,0,0-4.459,2.8,13.089,13.089,0,0,0-4.021,10.913c.106.826,1.42.836,1.312,0" transform="translate(33.242 -33.013)" fill="#697f24"/>
          <path id="Trazado_992777" data-name="Trazado 992777" d="M179.185,130a12.479,12.479,0,0,1,7.133-10.2,18.4,18.4,0,0,0,3.05-1.517,8,8,0,0,0,2.143-2.5,14.325,14.325,0,0,1,4.462-5.018,12.554,12.554,0,0,1,7.153-2.02.657.657,0,0,0,.656-.656c-.558-4.21,3.443-6.866,6.5-8.851a21.7,21.7,0,0,0,4.451-3.524,35.143,35.143,0,0,0,2.958-4.053,19.328,19.328,0,0,1,3-3.739c1.44-1.294,3.15-1.624,4.9-2.309,1.8-.7,2.731-2.015,3.812-3.533a15.722,15.722,0,0,1,4.623-3.96c2.129-1.352,4.251-2.722,6.406-4.032,2.067-1.256,4.452-2.507,6.933-1.869a.657.657,0,0,0,.349-1.265c-4.372-1.124-8.514,2.352-11.962,4.527a45.346,45.346,0,0,0-5.457,3.7,12.145,12.145,0,0,0-1.949,2.129,9.634,9.634,0,0,1-2.109,2.517c-1.593,1.093-3.671,1.169-5.3,2.254a13.8,13.8,0,0,0-3.462,3.584c-1.046,1.461-1.953,3.019-3.077,4.422a19.029,19.029,0,0,1-4.659,3.941c-3.453,2.25-7.9,5.308-7.266,10.06l.656-.656a13.863,13.863,0,0,0-11.806,6.125,18.1,18.1,0,0,1-2.15,3.195,11.215,11.215,0,0,1-3.4,1.862,13.5,13.5,0,0,0-5.183,4.193,13.749,13.749,0,0,0-2.72,7.2c-.067.843,1.246.837,1.313,0" transform="translate(35.029 -31.098)" fill="#697f24"/>
          <path id="Trazado_992778" data-name="Trazado 992778" d="M185.181,131.05a15.688,15.688,0,0,1,3.964-6.2,15.42,15.42,0,0,1,2.9-2.2c1.051-.616,2.2-1.016,3.269-1.592a5.567,5.567,0,0,0,2.441-2.494,20.862,20.862,0,0,1,1.746-3.37,15.428,15.428,0,0,1,5.557-4.3c1.078-.549,2.189-1.029,3.311-1.481a12.3,12.3,0,0,0,3.111-1.553,8.171,8.171,0,0,0,2.088-3.045,16.818,16.818,0,0,1,2.23-3.372,58.922,58.922,0,0,1,6.053-5.8c2.254-2,4.485-4.036,6.8-5.968a118.706,118.706,0,0,1,17.307-11.459.657.657,0,0,0-.663-1.133A131.267,131.267,0,0,0,229.643,87.2c-2.4,1.869-4.658,3.909-6.93,5.929-2.2,1.957-4.485,3.855-6.543,5.965a23.694,23.694,0,0,0-2.563,3.071c-.736,1.068-1.221,2.243-1.857,3.364a5.723,5.723,0,0,1-3.153,2.389c-1.114.45-2.226.9-3.314,1.411a19.4,19.4,0,0,0-5.9,3.991,11.183,11.183,0,0,0-1.983,2.838c-.585,1.219-.936,2.563-2.1,3.38s-2.578,1.213-3.806,1.919a16.97,16.97,0,0,0-7.577,9.249c-.276.8.992,1.144,1.265.349" transform="translate(36.906 -29.142)" fill="#697f24"/>
          <path id="Trazado_992779" data-name="Trazado 992779" d="M192.375,133.814a14.05,14.05,0,0,1,6.719-12.3,15.3,15.3,0,0,1,3.348-1.432,4.163,4.163,0,0,0,2.764-2.29,29.686,29.686,0,0,1,1.534-3.328,13.483,13.483,0,0,1,8.937-6.091c1.179-.211,2.519-.1,3.524-.854a5.159,5.159,0,0,0,1.547-3.024,9.826,9.826,0,0,1,7.546-7c1.322-.257,2.709-.056,4.012-.432a5.174,5.174,0,0,0,2.906-2.466,23.9,23.9,0,0,1,2.373-3.535,14.28,14.28,0,0,1,7.543-4.4c.824-.184.475-1.449-.349-1.265a15.554,15.554,0,0,0-6.884,3.511,15.269,15.269,0,0,0-2.494,2.827,24.435,24.435,0,0,1-2.07,3.214c-1.118,1.179-2.695.99-4.175,1.114a10.746,10.746,0,0,0-3.47.892,11.265,11.265,0,0,0-5.232,4.774,16.785,16.785,0,0,0-1.225,3.35,2.24,2.24,0,0,1-1.248,1.625,8.759,8.759,0,0,1-2.011.31,14.677,14.677,0,0,0-11.243,8.476c-.27.618-.461,1.276-.765,1.878a2.745,2.745,0,0,1-1.743,1.415,19.547,19.547,0,0,0-3.486,1.427,15.373,15.373,0,0,0-7.672,13.611c.03.843,1.343.847,1.313,0" transform="translate(39.149 -26.522)" fill="#697f24"/>
          <path id="Trazado_992780" data-name="Trazado 992780" d="M198.549,135.863a11.134,11.134,0,0,1,6.521-10.546,28.849,28.849,0,0,0,3.411-1.507,11.9,11.9,0,0,0,2.515-2.1c1.564-1.679,2.744-3.676,4.325-5.339,1.813-1.907,4.477-3.609,7.175-2.641a.66.66,0,0,0,.807-.459,12.32,12.32,0,0,1,10.346-9.667,3.985,3.985,0,0,0,3.011-1.357c.714-1.038.761-2.427,1.344-3.546A8.917,8.917,0,0,1,244,94.126c.824-.18.475-1.445-.349-1.265a10.1,10.1,0,0,0-5.243,3.017,10,10,0,0,0-1.689,2.479c-.438.928-.547,1.988-.995,2.894-.528,1.067-1.931.992-2.949,1.165a12.348,12.348,0,0,0-2.935.9,13.667,13.667,0,0,0-4.779,3.538,13.249,13.249,0,0,0-3.019,6.068l.807-.458c-2.37-.851-4.834.035-6.769,1.484-2.028,1.519-3.377,3.634-4.94,5.586a14.522,14.522,0,0,1-2.693,2.727,17.619,17.619,0,0,1-3.7,1.777,12.369,12.369,0,0,0-7.506,11.823c.035.841,1.348.847,1.312,0" transform="translate(41.078 -24.187)" fill="#697f24"/>
          <path id="Trazado_992781" data-name="Trazado 992781" d="M209.228,129.377a9.861,9.861,0,0,1,2.759-6.808,10.587,10.587,0,0,1,2.991-2.225,9.16,9.16,0,0,1,1.769-.658c.559-.146,1.188-.116,1.729-.276.568-.169.714-.789.966-1.281.331-.646.669-1.286,1.038-1.911a13.509,13.509,0,0,1,2.717-3.432c2-1.731,5.111-2.478,7.35-.774a.66.66,0,0,0,.9-.235c1.427-2.453,3.538-5.893,6.9-5.233.826.161,1.179-1.1.349-1.265-4.053-.8-6.608,2.779-8.384,5.835l.9-.235c-2.272-1.73-5.5-1.341-7.8.121-2.689,1.7-4.207,4.678-5.586,7.434l.567-.324a11.5,11.5,0,0,0-10.472,11.266.657.657,0,0,0,1.313,0" transform="translate(44.418 -20.336)" fill="#697f24"/>
          <path id="Trazado_992782" data-name="Trazado 992782" d="M42.473,52.461a8.161,8.161,0,0,0-8.116,9.379l.807-.807a9.425,9.425,0,0,0-10.772,8.522c.219-.219.438-.437.656-.656A11.25,11.25,0,0,0,12.909,79.191c-.047.844,1.265.841,1.312,0a9.94,9.94,0,0,1,10.827-8.98c.366.043.638-.337.656-.656a8.1,8.1,0,0,1,9.11-7.257.667.667,0,0,0,.807-.807,6.838,6.838,0,0,1,6.851-7.717c.844.041.843-1.272,0-1.312" transform="translate(-16.521 -36.809)" fill="#a2c945"/>
          <path id="Trazado_992783" data-name="Trazado 992783" d="M13.656,89.715a8.825,8.825,0,0,1,2.776-6.569,8.71,8.71,0,0,1,3.006-1.912c1-.368,2.307-.264,3.2-.843.933-.605.864-1.876,1.214-2.811a7.22,7.22,0,0,1,1.925-2.767,7.44,7.44,0,0,1,6.51-1.855.667.667,0,0,0,.831-.634,8.054,8.054,0,0,1,8.739-7.36c.465.053.694-.458.633-.831a5.107,5.107,0,0,1,4.369-5.725c2.021-.248,4.981.138,5.968-2.149.331-.768-.8-1.437-1.133-.663-.533,1.232-1.952,1.3-3.13,1.374a9.94,9.94,0,0,0-3.913.739,6.482,6.482,0,0,0-3.427,6.772q.315-.415.633-.831a9.367,9.367,0,0,0-10.051,8.673l.831-.633a8.931,8.931,0,0,0-9.63,4.578,8.281,8.281,0,0,0-.526,1.273c-.14.448-.152.974-.335,1.4-.239.555-.86.522-1.381.6a8.715,8.715,0,0,0-1.568.385,10.313,10.313,0,0,0-4.729,3.452,9.945,9.945,0,0,0-2.125,6.333.657.657,0,0,0,1.312,0" transform="translate(-16.699 -35.934)" fill="#a2c945"/>
          <path id="Trazado_992784" data-name="Trazado 992784" d="M13.132,101.609a13.38,13.38,0,0,1,8.08-10.143c.99-.4,2.086-.533,3.042-1.008a2.862,2.862,0,0,0,1.491-2.528,8.49,8.49,0,0,1,3.2-5.471,8.588,8.588,0,0,1,6.867-1.834.666.666,0,0,0,.831-.633,11.341,11.341,0,0,1,7.712-10.56,31,31,0,0,0,3.515-.808,4.051,4.051,0,0,0,1.923-2.453A6.352,6.352,0,0,1,51.64,63.21a5.372,5.372,0,0,1,3.621-1.03,4.5,4.5,0,0,0,3.25-1.289c.564-.492,1.57-1.847,2.407-1.318.718.451,1.375-.684.664-1.134-2.029-1.281-3.409,1.487-4.98,2.225a5.343,5.343,0,0,1-2.162.192,5.911,5.911,0,0,0-1.906.374,6.308,6.308,0,0,0-2.9,2.212c-.756,1.055-.883,2.444-1.668,3.462-.81,1.05-2.67.864-3.852,1.229a12.523,12.523,0,0,0-6.037,4.183,12.285,12.285,0,0,0-2.748,7.678l.831-.633a10.241,10.241,0,0,0-10.966,5.782,9.145,9.145,0,0,0-.538,1.517A17.042,17.042,0,0,1,24.3,88.6c-.421,1.092-2.357,1.18-3.331,1.555a14.557,14.557,0,0,0-5.628,3.913,14.39,14.39,0,0,0-3.477,7.191c-.136.827,1.129,1.183,1.265.349" transform="translate(-16.85 -35.043)" fill="#a2c945"/>
          <path id="Trazado_992785" data-name="Trazado 992785" d="M38.134,50.409a10.119,10.119,0,0,0-8.653,7.51c.322-.13.642-.261.963-.392a8.724,8.724,0,0,0-10.891,1.849,8.187,8.187,0,0,0-1.473,2.63,2.728,2.728,0,0,1-1.211,1.647c-.517.3-1.093.493-1.626.768a6.276,6.276,0,0,0-3.311,5.7.657.657,0,0,0,1.313,0A5.164,5.164,0,0,1,16.671,65.2a4.279,4.279,0,0,0,2.268-1.831,20.019,20.019,0,0,1,1.278-2.73,7.4,7.4,0,0,1,9.564-1.981.662.662,0,0,0,.965-.392,8.779,8.779,0,0,1,7.388-6.547c.829-.093.84-1.407,0-1.312" transform="translate(-16.827 -37.45)" fill="#a2c945"/>
          <path id="Trazado_992786" data-name="Trazado 992786" d="M70.182,62.484A12.34,12.34,0,0,0,55.3,70.256l.458-.458A16.416,16.416,0,0,0,42.373,84.7q.329-.327.656-.656A17.693,17.693,0,0,0,27.788,99.47l.831-.633a7.65,7.65,0,0,0-6.056.595c-2.067,1.165-3.332,3.323-4.64,5.22a70.664,70.664,0,0,0-4.2,6.28c-1.029,1.9-1.6,4-.693,6.056.34.772,1.471.1,1.133-.663-.836-1.891.188-3.96,1.183-5.574,1.092-1.775,2.347-3.461,3.529-5.176,1.138-1.65,2.215-3.579,3.9-4.735a6.313,6.313,0,0,1,5.489-.735.666.666,0,0,0,.831-.634A16.353,16.353,0,0,1,43.029,85.361a.677.677,0,0,0,.656-.656A15.11,15.11,0,0,1,56.112,71.063a.653.653,0,0,0,.458-.458,11.008,11.008,0,0,1,13.263-6.856.657.657,0,0,0,.349-1.265" transform="translate(-16.624 -33.823)" fill="#a2c945"/>
          <path id="Trazado_992787" data-name="Trazado 992787" d="M90.248,102.816a10.382,10.382,0,0,1,9.446-5.887.662.662,0,0,0,.633-.831,4.323,4.323,0,0,1,2.05-4.707c1.771-1.155,3.964-1.389,6.015-1.609a.7.7,0,0,0,.633-.482,4.074,4.074,0,0,1,4.784-2.356.657.657,0,0,0,.349-1.265,5.412,5.412,0,0,0-6.4,3.272l.633-.482c-2.49.268-5.192.562-7.22,2.183a5.511,5.511,0,0,0-2.11,5.795q.315-.415.633-.831a11.675,11.675,0,0,0-10.579,6.536c-.362.759.769,1.425,1.133.663" transform="translate(7.272 -26.483)" fill="#9bc148"/>
          <path id="Trazado_992788" data-name="Trazado 992788" d="M95.4,111.678a8.324,8.324,0,0,1,3.133-5.768,8.531,8.531,0,0,1,3.105-1.609,7.342,7.342,0,0,1,1.609-.261,13.23,13.23,0,0,0,1.782-.029c1.2-.217,1.505-1.267,2.03-2.2a10.216,10.216,0,0,1,2.242-2.719,6.77,6.77,0,0,1,6.484-1.626.66.66,0,0,0,.807-.459,1.668,1.668,0,0,1,1.767-1.53c.845.035.844-1.278,0-1.312a2.944,2.944,0,0,0-3.033,2.494l.807-.458c-3.85-1.253-7.752,1.179-9.835,4.34a11.214,11.214,0,0,0-.7,1.236c-.307.622-.53.978-1.289.965a10.619,10.619,0,0,0-2.915.264,10,10,0,0,0-4.785,2.915,9.519,9.519,0,0,0-2.525,5.757c-.062.843,1.251.839,1.312,0" transform="translate(8.847 -23.775)" fill="#9bc148"/>
          <path id="Trazado_992789" data-name="Trazado 992789" d="M123.569,105.855A11.54,11.54,0,0,0,111.44,116.95q.327-.329.656-.656a14.446,14.446,0,0,0-14.6,11.57l.807-.458c-8.05-1.348-16.49,4.251-18.227,12.269-.179.823,1.087,1.175,1.265.349,1.574-7.267,9.237-12.588,16.612-11.353a.667.667,0,0,0,.807-.458A13.144,13.144,0,0,1,112.1,117.606a.665.665,0,0,0,.656-.656,10.22,10.22,0,0,1,10.816-9.782c.841.075.836-1.239,0-1.312" transform="translate(4.463 -20.133)" fill="#9bc148"/>
          <path id="Trazado_992790" data-name="Trazado 992790" d="M94.6,137.211a14.511,14.511,0,0,1,9.611-7.744,20.338,20.338,0,0,0,2.987-.618,3.984,3.984,0,0,0,1.986-2.163,26.38,26.38,0,0,1,4.069-6.215,10.751,10.751,0,0,1,7.017-3.621c.84-.051.845-1.365,0-1.312-5.078.314-8.7,4.205-11.083,8.367a20.849,20.849,0,0,1-1.784,3.226c-.777.912-2.338.8-3.423,1.045a15.766,15.766,0,0,0-10.513,8.372c-.369.757.763,1.423,1.133.663" transform="translate(8.63 -17.096)" fill="#9bc148"/>
          <path id="Trazado_992791" data-name="Trazado 992791" d="M150.814,119.328c1.046-1.865,2.364-4.141,4.482-4.927,1.217-.453,2.52.092,3.709-.408a7.07,7.07,0,0,0,1.522-1.05c.458-.353,1.072-.723,1.6-.32.673.512,1.327-.627.663-1.133-1.267-.963-2.634.112-3.64.889a2.979,2.979,0,0,1-2.273.476,5.142,5.142,0,0,0-1.933.28c-2.485.893-4.037,3.338-5.266,5.531a.657.657,0,0,0,1.133.663" transform="translate(26.192 -18.48)" fill="#9bc148"/>
          <path id="Trazado_992792" data-name="Trazado 992792" d="M116.927,126.211a4.755,4.755,0,0,0-5.95,4.636c.219-.219.438-.437.656-.656a11.252,11.252,0,0,0-6.274,2.285,6.5,6.5,0,0,0-2.049,2.2,1.617,1.617,0,0,0,.49,2.248c.756.369,1.421-.763.663-1.134s2.233-2.666,2.551-2.86a9.862,9.862,0,0,1,4.619-1.423.665.665,0,0,0,.656-.656,3.431,3.431,0,0,1,4.288-3.37c.808.251,1.155-1.016.349-1.265" transform="translate(11.656 -13.817)" fill="#9bc148"/>
          <path id="Trazado_992793" data-name="Trazado 992793" d="M151.749,129.748l-.055.109.392-.3-.088.013.505.066c-.231-.146,1.348-2.285,1.509-2.461a8.436,8.436,0,0,1,2.206-1.714,7.773,7.773,0,0,1,5.564-.759.669.669,0,0,0,.807-.459,7.055,7.055,0,0,1,8.938-4.69c.8.282,1.142-.986.349-1.265a8.377,8.377,0,0,0-10.554,5.607l.807-.459a9.36,9.36,0,0,0-8.169,1.979,8.744,8.744,0,0,0-2.524,3.416,1.5,1.5,0,0,0,.119,1.712.786.786,0,0,0,1.324-.13c.383-.752-.749-1.416-1.133-.663" transform="translate(26.704 -16.368)" fill="#9bc148"/>
          <path id="Trazado_992794" data-name="Trazado 992794" d="M186.9,122.407c-2.5-.673-5.316-1.085-7.737.106a5.542,5.542,0,0,0-3.251,5.293l.831-.633a10.655,10.655,0,0,0-13.7,6.234l.807-.458a6.181,6.181,0,0,0-7.837,4.549c-.155.826,1.109,1.179,1.265.348a4.869,4.869,0,0,1,6.223-3.632.667.667,0,0,0,.807-.458,9.348,9.348,0,0,1,12.082-5.318.659.659,0,0,0,.831-.633,4.341,4.341,0,0,1,2.884-4.287c2.049-.837,4.385-.4,6.443.152a.657.657,0,0,0,.349-1.265" transform="translate(28.196 -15.152)" fill="#9bc148"/>
        </g>
      </g>
      <g id="Grupo_1176899" data-name="Grupo 1176899" transform="translate(0 0)">
        <g id="Grupo_1176901" data-name="Grupo 1176901">
          <path id="Trazado_992796" data-name="Trazado 992796" d="M92.642,91.556c-1.519.722,1.5,61.374,3.2,61.937s8.256,2.25,8.634,0S115.5,107.929,115.5,107.929l5.831,44.439s8.285,1.125,8.977-1.407,2.973-69.98,2.973-69.98" transform="translate(28.821 25.307)" fill="#af8945"/>
          <path id="Trazado_992797" data-name="Trazado 992797" d="M93.064,126.093l2.109,26.859s-1.828,7.594-1.054,8.157,12.3,5.484,15.258,3.374-5.625-12.376-5.625-12.376l2.813-26.015" transform="translate(29.083 39.404)" fill="#3a3938"/>
          <path id="Trazado_992798" data-name="Trazado 992798" d="M112.6,125.081l3.415,26.725s-1.457,7.673-.658,8.2,12.558,4.879,15.4,2.628-6.221-12.087-6.221-12.087l1.542-26.121" transform="translate(35.188 38.882)" fill="#3a3938"/>
          <path id="Trazado_992799" data-name="Trazado 992799" d="M92.342,87.142l-.114,8.086s2.355,4.448,5.448,3.6,12.171.072,12.554.108,18.094,1.861,18.094,1.861l4.028,4.5.15-15.674" transform="translate(28.821 27.232)" fill="#9b7332"/>
          <path id="Trazado_992800" data-name="Trazado 992800" d="M146.93,65.435c-.831-7.976-10.757-19.275-15.295-23.588-1.542-2.443-3.334-4.162-5.413-4.867l-20-3.08s-9.176.211-13.394,18.246-1.477,54.738-1.16,54.844,10.336,5.167,24.679,2.847,18.985-.21,22.043-2.847c1.393-1.2,2.231-14.731,1.257-29.611,2.693-1.108,8.082-4.3,7.286-11.944" transform="translate(28.281 10.594)" fill="#e0d68d"/>
          <path id="Trazado_992801" data-name="Trazado 992801" d="M128.87,72.984l-3.894-25.021s9.466,20.853,8.748,21.606a56.4,56.4,0,0,1-4.854,3.415" transform="translate(39.055 14.989)" fill="#d3c679"/>
          <path id="Trazado_992802" data-name="Trazado 992802" d="M104.083,15.047s4.568-6.855,6.292-6.011a2.859,2.859,0,0,0,2.93-.072s4.159,3.751,5.379,6.868" transform="translate(32.526 2.802)" fill="#edbe7a"/>
          <path id="Trazado_992803" data-name="Trazado 992803" d="M132.446,24.951c0,7.048-8.523,12.761-19.038,12.761S94.372,32,94.372,24.951,102.9,12.19,113.408,12.19s19.038,5.713,19.038,12.761" transform="translate(29.491 3.81)" fill="#d6a85f"/>
          <path id="Trazado_992804" data-name="Trazado 992804" d="M102.228,25.092s-4.029,1.819-5.364.668a23.5,23.5,0,0,1-2.3-2.282s.988,7.074,11.349,9.237,6.845,0,6.845,0" transform="translate(29.55 7.337)" fill="#c99b5f"/>
          <path id="Trazado_992805" data-name="Trazado 992805" d="M103.207,30.515V34s6.223,6.96,6.328,7.276,1.113,6.434,1.113,6.434,4.161,5.695,6.376,3.586,3.691-8.5,3.586-10.153-2.532-3.557-2.532-3.557l.642-5.493" transform="translate(32.252 9.536)" fill="#efb160"/>
          <path id="Trazado_992806" data-name="Trazado 992806" d="M117.768,30.248s-4.43,3.164-6.328,3.164a17.314,17.314,0,0,1-4.43-.844s5.062,3.163,5.379,3.445,5.379,2.109,5.379,2.109a5.509,5.509,0,0,1-.844-1.336c0-.281.492-4.149.492-4.149" transform="translate(33.441 9.453)" fill="#e5a24a"/>
          <path id="Trazado_992807" data-name="Trazado 992807" d="M123.2,25.506c-.3-.682-.845-.273-1.307.206,0-3.357-.169-6.324-.169-6.324-.739-2.953-7.173-3.374-13.185-2.425a8.287,8.287,0,0,0-6.959,6.434l.167,1.263c-.882-.358-1.8-.441-1.75.847.071,1.606,1.469,3.243,2.414,4.176l.328,2.467a19.234,19.234,0,0,0,1.477,2.743c1.16,1.9,10.441,4.957,10.441,4.957s5.379-2.215,6.54-5.7a16.959,16.959,0,0,0,.572-3.8,1.94,1.94,0,0,1,.534-.49c.522-.291,1.319-3.4.9-4.354" transform="translate(31.247 5.16)" fill="#f9bf64"/>
          <path id="Trazado_992808" data-name="Trazado 992808" d="M108.408,25.244a2.163,2.163,0,1,1-2.163-2.163,2.163,2.163,0,0,1,2.163,2.163" transform="translate(32.526 7.213)" fill="#f99958"/>
          <path id="Trazado_992809" data-name="Trazado 992809" d="M117.242,25.244a2.163,2.163,0,1,1-2.163-2.163,2.163,2.163,0,0,1,2.163,2.163" transform="translate(35.286 7.213)" fill="#f99958"/>
          <path id="Trazado_992810" data-name="Trazado 992810" d="M107.046,23.893a.657.657,0,0,0,0-1.312.657.657,0,0,0,0,1.313" transform="translate(33.254 7.057)"/>
          <path id="Trazado_992811" data-name="Trazado 992811" d="M113.636,23.813a.657.657,0,0,0,0-1.312.657.657,0,0,0,0,1.313" transform="translate(35.313 7.032)"/>
          <path id="Trazado_992812" data-name="Trazado 992812" d="M109.623,25.289q-.36.494-.722.987a.165.165,0,0,0,.058.224c.916.522,3.506,1.516,4.01-.037.066-.2-.252-.287-.316-.087-.41,1.263-2.849.227-3.527-.16.02.075.039.15.058.224l.723-.987c.125-.171-.16-.335-.284-.165" transform="translate(34.024 7.881)"/>
          <path id="Trazado_992813" data-name="Trazado 992813" d="M111.56,21.709a16.9,16.9,0,0,0,.022,5.271c.033.207.349.119.316-.088a16.387,16.387,0,0,1-.022-5.1c.032-.206-.285-.3-.316-.087" transform="translate(34.801 6.747)"/>
          <path id="Trazado_992814" data-name="Trazado 992814" d="M114.568,23.619a2.229,2.229,0,0,0,1-.088c.2-.063.114-.379-.088-.316a2.051,2.051,0,0,1-.908.076c-.21-.028-.209.3,0,.328" transform="translate(35.754 7.253)"/>
          <path id="Trazado_992815" data-name="Trazado 992815" d="M105.041,23.359l.726.249c.2.068.285-.248.087-.316l-.726-.249c-.2-.07-.285.248-.087.316" transform="translate(32.79 7.198)"/>
          <path id="Trazado_992816" data-name="Trazado 992816" d="M107.075,28.013a1.472,1.472,0,0,0-.085,1.435c.084.193.368.026.283-.165a1.11,1.11,0,0,1,.085-1.1.164.164,0,0,0-.284-.165" transform="translate(33.389 8.73)"/>
          <path id="Trazado_992817" data-name="Trazado 992817" d="M108.058,28.822c1.772.18,4.006.786,5.751.238.2-.063.114-.379-.088-.316-1.7.534-3.924-.073-5.663-.249-.21-.021-.209.307,0,.328" transform="translate(33.719 8.905)"/>
          <path id="Trazado_992818" data-name="Trazado 992818" d="M112.634,28.338a1.151,1.151,0,0,1,.417,1.15c-.039.206.277.294.316.087a1.469,1.469,0,0,0-.5-1.469c-.16-.136-.392.094-.232.232" transform="translate(35.181 8.77)"/>
          <path id="Trazado_992819" data-name="Trazado 992819" d="M112.37,21.558s3.537-.913,4.663.844" transform="translate(35.116 6.663)" fill="none" stroke="#999" stroke-miterlimit="10" stroke-width="1"/>
          <path id="Trazado_992820" data-name="Trazado 992820" d="M110.39,21.863a4.82,4.82,0,0,0-5.824,1.033" transform="translate(32.677 6.659)" fill="none" stroke="#999" stroke-miterlimit="10" stroke-width="1"/>
          <path id="Trazado_992821" data-name="Trazado 992821" d="M101.319,23.869l1.017,1.26s.618-6.079,1.487-6.738-1.461.24-2.588,4.26" transform="translate(31.636 5.686)" fill="#ead9c1"/>
          <path id="Trazado_992822" data-name="Trazado 992822" d="M103.675,31.945s-1.844.984-1.965,2.32,5.262,8.3,5.262,8.3,3.311-.3,3.727,2.2-.7-3.932-.7-3.932" transform="translate(31.784 9.983)" fill="#ccc57f"/>
          <path id="Trazado_992823" data-name="Trazado 992823" d="M114.917,32.911l-.353,3.044,1.028,1.861s1.55,2.142,1.474,2.933.9,2.953,1.285,2.32a9.111,9.111,0,0,0,.878-4.711c-.316-1.477-4.312-5.448-4.312-5.448" transform="translate(35.801 10.285)" fill="#ccc57f"/>
          <path id="Trazado_992824" data-name="Trazado 992824" d="M107.149,55.944c.035-.264-1.495-5.169-.15-5.431s5.564-1.28,5.352,1.549a25.684,25.684,0,0,1-2.074,6.872" transform="translate(33.264 15.662)" fill="#ed8232"/>
          <path id="Trazado_992825" data-name="Trazado 992825" d="M110.054,59.9s-1.382-7.174,1.079-8.018,4.686.423,4.839,1.2-4.423,9.026-4.455,9.258" transform="translate(34.271 16.125)" fill="#f7903c"/>
          <path id="Trazado_992826" data-name="Trazado 992826" d="M109.055,50.893a3.189,3.189,0,0,1,2.416-1.627.676.676,0,0,1,.562.127.526.526,0,0,1,.129.3,1.2,1.2,0,0,1-.685,1.092,7.323,7.323,0,0,1-1.289.444.334.334,0,0,0-.221.155,1.14,1.14,0,0,0-.033.161c-.041.144-.2.213-.346.251a3.926,3.926,0,0,1-1.541.039,2.114,2.114,0,0,1-1.286-.542.911.911,0,0,1-.025-1.272,1.136,1.136,0,0,1,1.274.079,3,3,0,0,1,.906.852" transform="translate(33.278 15.393)" fill="#78a45d"/>
          <path id="Trazado_992827" data-name="Trazado 992827" d="M112.646,52.7a3.189,3.189,0,0,1,2.416-1.627.673.673,0,0,1,.56.127.516.516,0,0,1,.13.3,1.2,1.2,0,0,1-.685,1.092,7.323,7.323,0,0,1-1.289.444.332.332,0,0,0-.221.154,1.154,1.154,0,0,0-.033.163c-.041.144-.2.213-.346.251a3.933,3.933,0,0,1-1.542.039,2.123,2.123,0,0,1-1.285-.543.908.908,0,0,1-.025-1.27,1.134,1.134,0,0,1,1.273.079,3.02,3.02,0,0,1,.907.852" transform="translate(34.4 15.956)" fill="#78a45d"/>
          <path id="Trazado_992828" data-name="Trazado 992828" d="M123.567,71.923a1.842,1.842,0,0,1-.249-2.578,4.02,4.02,0,0,1,2.52-1.314,16.142,16.142,0,0,0,2.842-.595c1.928-.756,3.334-2.8,5.4-2.915a3.839,3.839,0,0,1,3.613,2.7,6.369,6.369,0,0,1-.491,4.7,6.252,6.252,0,0,1-2.158,2.625,7.521,7.521,0,0,1-3.587.994,10.319,10.319,0,0,1-5.137-.747,5.34,5.34,0,0,1-3.124-3.945" transform="translate(38.41 20.162)" fill="#b67f49"/>
          <path id="Trazado_992829" data-name="Trazado 992829" d="M130.234,66.938a.164.164,0,0,0,0-.328.164.164,0,0,0,0,.328" transform="translate(40.648 20.816)" fill="#8b5e35"/>
          <path id="Trazado_992830" data-name="Trazado 992830" d="M126.935,68.342h.092a.171.171,0,0,0,.117-.049.165.165,0,0,0,0-.231.171.171,0,0,0-.117-.049h-.092a.166.166,0,0,0-.164.164.16.16,0,0,0,.049.115.165.165,0,0,0,.115.049" transform="translate(39.616 21.255)" fill="#8b5e35"/>
          <path id="Trazado_992831" data-name="Trazado 992831" d="M129.627,70.306v-.092a.171.171,0,0,0-.049-.117.165.165,0,0,0-.231,0,.171.171,0,0,0-.049.117v.092a.166.166,0,0,0,.164.164.16.16,0,0,0,.115-.049.165.165,0,0,0,.049-.116" transform="translate(40.406 21.891)" fill="#8b5e35"/>
          <path id="Trazado_992832" data-name="Trazado 992832" d="M132.566,67.038c-.03.062-.062.123-.092.184a.172.172,0,0,0-.017.127.164.164,0,0,0,.075.1.166.166,0,0,0,.127.017.162.162,0,0,0,.1-.076c.031-.06.062-.122.093-.184a.169.169,0,0,0,.016-.126.166.166,0,0,0-.075-.1.166.166,0,0,0-.224.059" transform="translate(41.391 20.924)" fill="#8b5e35"/>
          <path id="Trazado_992833" data-name="Trazado 992833" d="M128.65,67.818l-.094.184a.183.183,0,0,0-.017.126.171.171,0,0,0,.077.1.16.16,0,0,0,.125.016.162.162,0,0,0,.1-.075l.093-.184a.176.176,0,0,0,.017-.126.168.168,0,0,0-.076-.1.159.159,0,0,0-.125-.016.161.161,0,0,0-.1.075" transform="translate(40.167 21.168)" fill="#8b5e35"/>
          <path id="Trazado_992834" data-name="Trazado 992834" d="M125.858,70.214v.092a.171.171,0,0,0,.049.117.165.165,0,0,0,.231,0,.171.171,0,0,0,.049-.117v-.092a.166.166,0,0,0-.164-.164.16.16,0,0,0-.116.049.165.165,0,0,0-.049.116" transform="translate(39.331 21.891)" fill="#8b5e35"/>
          <path id="Trazado_992835" data-name="Trazado 992835" d="M131.779,71.08a.164.164,0,0,0,0-.328.164.164,0,0,0,0,.328" transform="translate(41.131 22.11)" fill="#8b5e35"/>
          <path id="Trazado_992836" data-name="Trazado 992836" d="M124.2,69.114a.164.164,0,0,0,0-.328.164.164,0,0,0,0,.328" transform="translate(38.762 21.496)" fill="#8b5e35"/>
          <path id="Trazado_992837" data-name="Trazado 992837" d="M112.621,72.321a2.138,2.138,0,0,1-.289-2.994,4.672,4.672,0,0,1,2.927-1.528,18.56,18.56,0,0,0,3.3-.69c2.24-.877,3.872-3.258,6.274-3.386a4.461,4.461,0,0,1,4.2,3.134,7.4,7.4,0,0,1-.57,5.459,7.272,7.272,0,0,1-2.507,3.049,8.721,8.721,0,0,1-4.166,1.152,11.961,11.961,0,0,1-5.968-.868,6.2,6.2,0,0,1-3.629-4.582" transform="translate(34.956 19.912)" fill="#b67f49"/>
          <path id="Trazado_992838" data-name="Trazado 992838" d="M120.359,66.5a.164.164,0,0,0,0-.328.164.164,0,0,0,0,.328" transform="translate(37.563 20.678)" fill="#8b5e35"/>
          <path id="Trazado_992839" data-name="Trazado 992839" d="M116.527,68.129h.108a.167.167,0,0,0,.115-.049.162.162,0,0,0,0-.231.168.168,0,0,0-.115-.049h-.108a.166.166,0,0,0-.164.164.16.16,0,0,0,.049.115.165.165,0,0,0,.115.049" transform="translate(36.363 21.188)" fill="#8b5e35"/>
          <path id="Trazado_992840" data-name="Trazado 992840" d="M119.627,70.438V70.33a.168.168,0,0,0-.049-.115.162.162,0,0,0-.231,0,.168.168,0,0,0-.049.115v.108a.166.166,0,0,0,.164.164.16.16,0,0,0,.115-.049.165.165,0,0,0,.049-.115" transform="translate(37.281 21.927)" fill="#8b5e35"/>
          <path id="Trazado_992841" data-name="Trazado 992841" d="M123.091,66.655l-.108.214a.169.169,0,0,0-.016.126.166.166,0,0,0,.075.1.169.169,0,0,0,.126.017.165.165,0,0,0,.1-.076l.108-.214a.169.169,0,0,0,.016-.126.166.166,0,0,0-.075-.1.166.166,0,0,0-.224.059" transform="translate(38.425 20.805)" fill="#8b5e35"/>
          <path id="Trazado_992842" data-name="Trazado 992842" d="M118.54,67.56c-.037.071-.072.142-.109.214a.168.168,0,0,0-.016.126.17.17,0,0,0,.075.1.163.163,0,0,0,.126.016.166.166,0,0,0,.1-.075c.037-.071.072-.143.109-.214a.169.169,0,0,0,.016-.126.166.166,0,0,0-.075-.1.166.166,0,0,0-.224.059" transform="translate(37.003 21.087)" fill="#8b5e35"/>
          <path id="Trazado_992843" data-name="Trazado 992843" d="M115.3,70.33v.108a.167.167,0,0,0,.049.115.162.162,0,0,0,.231,0,.167.167,0,0,0,.049-.115V70.33a.166.166,0,0,0-.164-.164.16.16,0,0,0-.115.049.165.165,0,0,0-.049.115" transform="translate(36.032 21.927)" fill="#8b5e35"/>
          <path id="Trazado_992844" data-name="Trazado 992844" d="M122.154,71.31a.164.164,0,0,0,0-.328.164.164,0,0,0,0,.328" transform="translate(38.124 22.182)" fill="#8b5e35"/>
          <path id="Trazado_992845" data-name="Trazado 992845" d="M113.345,69.026a.164.164,0,0,0,0-.328.164.164,0,0,0,0,.328" transform="translate(35.371 21.468)" fill="#8b5e35"/>
          <path id="Trazado_992846" data-name="Trazado 992846" d="M105.493,70.843a1.406,1.406,0,0,1-.19-1.966,3.065,3.065,0,0,1,1.923-1,12.377,12.377,0,0,0,2.168-.454c1.471-.576,2.544-2.141,4.121-2.225a2.929,2.929,0,0,1,2.756,2.059,4.861,4.861,0,0,1-.374,3.584,4.779,4.779,0,0,1-1.646,2,5.732,5.732,0,0,1-2.738.757,7.855,7.855,0,0,1-3.919-.57,4.07,4.07,0,0,1-2.384-3.01" transform="translate(32.811 20.373)" fill="#b67f49"/>
          <path id="Trazado_992847" data-name="Trazado 992847" d="M110.589,67.088a.164.164,0,0,0,0-.328.164.164,0,0,0,0,.328" transform="translate(34.509 20.863)" fill="#8b5e35"/>
          <path id="Trazado_992848" data-name="Trazado 992848" d="M108.072,68.16h.071a.168.168,0,0,0,.116-.049.162.162,0,0,0,0-.231.168.168,0,0,0-.116-.049h-.071a.166.166,0,0,0-.164.164.16.16,0,0,0,.049.116.165.165,0,0,0,.116.049" transform="translate(33.721 21.198)" fill="#8b5e35"/>
          <path id="Trazado_992849" data-name="Trazado 992849" d="M110.165,69.62v-.071a.168.168,0,0,0-.049-.116.162.162,0,0,0-.231,0,.168.168,0,0,0-.049.116v.071a.166.166,0,0,0,.164.164.16.16,0,0,0,.116-.049.165.165,0,0,0,.049-.116" transform="translate(34.324 21.683)" fill="#8b5e35"/>
          <path id="Trazado_992850" data-name="Trazado 992850" d="M112.335,67.106l-.071.14a.169.169,0,0,0-.016.126.166.166,0,0,0,.075.1.169.169,0,0,0,.126.017.165.165,0,0,0,.1-.076l.071-.14a.169.169,0,0,0,.016-.126.166.166,0,0,0-.075-.1.166.166,0,0,0-.224.059" transform="translate(35.076 20.946)" fill="#8b5e35"/>
          <path id="Trazado_992851" data-name="Trazado 992851" d="M109.346,67.7l-.071.14a.164.164,0,0,0,.058.224.166.166,0,0,0,.127.016.155.155,0,0,0,.1-.075c.025-.047.049-.093.072-.14a.169.169,0,0,0,.016-.126.166.166,0,0,0-.075-.1.166.166,0,0,0-.224.059" transform="translate(34.142 21.132)" fill="#8b5e35"/>
          <path id="Trazado_992852" data-name="Trazado 992852" d="M107.212,69.549v.071a.168.168,0,0,0,.049.116.162.162,0,0,0,.231,0,.168.168,0,0,0,.049-.116v-.071a.166.166,0,0,0-.164-.164.16.16,0,0,0-.116.049.165.165,0,0,0-.049.116" transform="translate(33.504 21.683)" fill="#8b5e35"/>
          <path id="Trazado_992853" data-name="Trazado 992853" d="M111.768,70.249a.164.164,0,0,0,0-.328.164.164,0,0,0,0,.328" transform="translate(34.878 21.851)" fill="#8b5e35"/>
          <path id="Trazado_992854" data-name="Trazado 992854" d="M105.982,68.749a.164.164,0,0,0,0-.328.164.164,0,0,0,0,.328" transform="translate(33.07 21.382)" fill="#8b5e35"/>
          <path id="Trazado_992855" data-name="Trazado 992855" d="M94.006,62.663c-.14,3.167,2.117,6.085,4.952,7.506a17.837,17.837,0,0,0,9.3,1.357,8.311,8.311,0,0,0,3.892-1,9.075,9.075,0,0,0,1.6-1.407,12.442,12.442,0,0,0,1.9-2.307,8.268,8.268,0,0,0,.916-5.03,7.892,7.892,0,0,0-.81-2.878c-1.312-2.482-4.288-3.733-7.1-3.722a20.474,20.474,0,0,0-8.068,2.2,16.014,16.014,0,0,0-4.074,2.348" transform="translate(29.375 17.244)" fill="#75ad50"/>
          <path id="Trazado_992856" data-name="Trazado 992856" d="M97.96,55.183c-2.6.929-5,3.016-5.371,5.75a4.236,4.236,0,0,0,.593,2.926,2.9,2.9,0,0,0,2.6,1.31,4.294,4.294,0,0,0,2.944-2.414A2.42,2.42,0,0,0,103,61.35a4.363,4.363,0,0,0,2.595.476,1.77,1.77,0,0,0,1.471-1.914,9.16,9.16,0,0,0,2.6.958,3.11,3.11,0,0,0,2.6-.667,5.5,5.5,0,0,0,2,.643,1.863,1.863,0,0,0,1.789-.894,2.426,2.426,0,0,0-.345-2.2c-2.218-3.842-7.031-5.556-11.463-5.356a10.516,10.516,0,0,0-7.049,2.658" transform="translate(28.92 16.368)" fill="#93c96f"/>
          <path id="Trazado_992857" data-name="Trazado 992857" d="M99.466,68.241a15.62,15.62,0,0,0-2.149-1.714,3.365,3.365,0,0,0-2.068-.73c-1.509.131-2.263,2.019-1.979,3.507s1.217,2.768,1.7,4.2a1.4,1.4,0,0,1,.1.686,1.792,1.792,0,0,1-.316.63c-1.332,2.032-1.3,4.634-1.232,7.064a5.611,5.611,0,0,0,.679,3.044,4.1,4.1,0,0,0,1.943,1.406,7.805,7.805,0,0,0,8.094-1.622" transform="translate(29.129 20.56)" fill="#ff001f"/>
          <path id="Trazado_992858" data-name="Trazado 992858" d="M137.095,71.042a7.609,7.609,0,0,0-4.132.3,4.682,4.682,0,0,0-2.807,2.92,4.257,4.257,0,0,0,2.592,4.94,4.883,4.883,0,0,0,5.452-1.714c-4.116.9-8.384,2.4-10.983,5.713-1.04,1.326-1.714,3.352-.591,4.607a3.4,3.4,0,0,0,3.464.63c1.192-.345,2.275-1.005,3.479-1.294-1.012.6-.731,2.309.274,2.916a3.707,3.707,0,0,0,3.384-.118,8.4,8.4,0,0,0,4.117-4.12,2.393,2.393,0,0,0,2.819-.889,5.22,5.22,0,0,0,.827-3.044c.032-1.676-.5-3.672-2.1-4.192a2,2,0,0,0,2.327-.777,5.791,5.791,0,0,0,.868-2.485,3.525,3.525,0,0,0-.245-2.723,2.967,2.967,0,0,0-1.944-.984,9.345,9.345,0,0,0-5.015.5" transform="translate(39.389 22.059)" fill="#f5af39"/>
          <path id="Trazado_992859" data-name="Trazado 992859" d="M110.31,76.464a24.344,24.344,0,0,1,14.327-5.278c.908-.029,2.135.314,2.068,1.221a1.574,1.574,0,0,1-.512.908,10.4,10.4,0,0,1-3.549,2.444,24.877,24.877,0,0,1,16.573-.329c.837.28,1.843,1.1,1.348,1.832a1.435,1.435,0,0,1-.562.428,15.945,15.945,0,0,1-6.132,1.713,11.037,11.037,0,0,1,9.6,3.876.788.788,0,0,1,.245.589.767.767,0,0,1-.322.433,12.977,12.977,0,0,1-7.086,2.351,42.226,42.226,0,0,0-7.513.877c.583-.357,1.236.606.91,1.2a2.389,2.389,0,0,1-1.752.928l-9.962,2c-1.146.23-2.292.458-3.452.6a7.748,7.748,0,0,1-4.419-.472,3.407,3.407,0,0,1-1.958-3.678" transform="translate(33.775 22.246)" fill="#64b530"/>
          <path id="Trazado_992860" data-name="Trazado 992860" d="M99.846,76.215a3.885,3.885,0,0,1,1.709-7.43,2.513,2.513,0,0,1,1.844.772,2.894,2.894,0,0,1,.541,1.139,7.065,7.065,0,0,1-.164,4.212c1.34-2.376,4.583-3.254,7.161-2.36a4.062,4.062,0,0,1,1.877,1.209,3.83,3.83,0,0,1,.091,4.133,11.236,11.236,0,0,1-3,3.155A10.688,10.688,0,0,1,121.534,79.4c.861.425,1.767,1.179,1.643,2.13a2.375,2.375,0,0,1-.575,1.123,12.225,12.225,0,0,1-9.4,4.553,11.339,11.339,0,0,1,4.212,1.729,3.864,3.864,0,0,1,1.554,4.015c-.587,1.826-2.843,2.565-4.753,2.391a17.52,17.52,0,0,1-6.5-2.433l-4.213-2.256a2.33,2.33,0,0,1,.13,1.263A12.755,12.755,0,0,1,94.308,84.8a3.5,3.5,0,0,1-.253-3.049c.5-.932,2.138-1.147,2.528-.163A3.716,3.716,0,0,1,95.208,77.3c.669-1.479,2.977-2.026,4-.764" transform="translate(29.312 21.495)" fill="#487a27"/>
          <path id="Trazado_992861" data-name="Trazado 992861" d="M142.57,65.924s-2.541,29.924-2.536,29.221,2.536-1.231,2.536-1.231l3.651-28.442" transform="translate(43.761 20.46)" fill="#e0b45c"/>
          <path id="Trazado_992862" data-name="Trazado 992862" d="M106.659,69.544l-2.7,29.518,5.917,1.034,2.114-29.044" transform="translate(32.487 21.733)" fill="#cc9c48"/>
          <path id="Trazado_992863" data-name="Trazado 992863" d="M107.918,72.785l-.563,8.859,47.109-7.875,1.267-8.3Z" transform="translate(33.549 20.461)" fill="#e0b45c"/>
          <path id="Trazado_992864" data-name="Trazado 992864" d="M92.543,60.383v7.7l19.442,15.153.562-8.859" transform="translate(28.92 18.87)" fill="#cc9c48"/>
          <path id="Trazado_992865" data-name="Trazado 992865" d="M107.115,80.419l-.562,8.859L153.661,81.4l1.267-8.3Z" transform="translate(33.298 22.846)" fill="#e0b45c"/>
          <path id="Trazado_992866" data-name="Trazado 992866" d="M91.74,68.017v7.7l19.442,15.153.562-8.859" transform="translate(28.669 21.256)" fill="#cc9c48"/>
          <path id="Trazado_992867" data-name="Trazado 992867" d="M106.151,88.294l-.563,8.859L152.7,89.278l1.265-8.3Z" transform="translate(32.996 25.307)" fill="#e0b45c"/>
          <path id="Trazado_992868" data-name="Trazado 992868" d="M90.776,75.892v7.7l19.442,15.153.562-8.859" transform="translate(28.367 23.717)" fill="#cc9c48"/>
          <path id="Trazado_992869" data-name="Trazado 992869" d="M92.869,61.83,91.217,88.972l1.652,1.288c.076.059,1.828-27.727,1.828-27.727" transform="translate(28.505 19.322)" fill="#cc9c48"/>
          <path id="Trazado_992870" data-name="Trazado 992870" d="M126.749,59.1a9.129,9.129,0,0,1,4.771-5.813,17.163,17.163,0,0,1,7.5-1.722,14.573,14.573,0,0,1,5.027.559,7.128,7.128,0,0,1,3.973,2.993,1.26,1.26,0,0,1,.214.6,1.16,1.16,0,0,1-.542.879,5.452,5.452,0,0,1-3.663.71,30.454,30.454,0,0,1-5.6-.887c3.1.69,6.316,1.441,8.773,3.448.484.4.974,1,.742,1.584-.239.6-1.041.682-1.683.634a16.775,16.775,0,0,1-9.691-4.062,3.225,3.225,0,0,0,.681,1.221,1.115,1.115,0,0,1,.1,1.307,1.28,1.28,0,0,1-1.139.238,18.359,18.359,0,0,1-5.38-1.542.452.452,0,0,1,.137.692,1.134,1.134,0,0,1-.728.345,5.534,5.534,0,0,1-4.205-1.007" transform="translate(39.386 16.11)" fill="#41b700"/>
          <path id="Trazado_992871" data-name="Trazado 992871" d="M126.446,58.987c.637-.381.53-1.352.165-2a4.777,4.777,0,0,1-.954-1.979,3.037,3.037,0,0,1,.417-1.418,1.41,1.41,0,0,1,.471-.629.968.968,0,0,1,1.263.476A2.8,2.8,0,0,1,128,54.921c.147-2.965,1.393-6.191,4.113-7.376a7.234,7.234,0,0,1-1.857,4.238,18.253,18.253,0,0,1,4.594-4.728,3.3,3.3,0,0,1,2.615-.814,10.319,10.319,0,0,1-3.521,3.752,17.264,17.264,0,0,1,10.806-3.075,9.924,9.924,0,0,1-4.448,1.918,11.886,11.886,0,0,1,6.787.5c.311.119.681.381.571.7-.083.235-.381.3-.629.327-4.634.509-9.569,1.043-13.2,3.964" transform="translate(39.267 14.432)" fill="#37631a"/>
          <path id="Trazado_992872" data-name="Trazado 992872" d="M125.835,59.153a7.788,7.788,0,0,1,.86-1.946,16.1,16.1,0,0,1,14.217-7.788,20.793,20.793,0,0,1,3.822.545c2.128.484,4.36,1.312,5.557,3.138a.82.82,0,0,1,.175.7.849.849,0,0,1-.655.42c-2.822.66-5.754-.177-8.529-1.009a5.291,5.291,0,0,1,1.7,1.208,1.091,1.091,0,0,1,.348.631c.045.655-.854.883-1.509.848a22,22,0,0,1-5.942-1.151c.409.61,1.4.924,1.327,1.654-.058.553-.711.8-1.256.912a30.422,30.422,0,0,1-6.451.623c.465.026.676.676.444,1.08a1.681,1.681,0,0,1-1.169.682,5.673,5.673,0,0,1-3.667-.471" transform="translate(39.094 15.44)" fill="#477c25"/>
          <path id="Trazado_992873" data-name="Trazado 992873" d="M122.63,57.372a.678.678,0,1,0-.551-1.1.976.976,0,1,0-1.92-.016.5.5,0,0,0-.209-.437,2.071,2.071,0,0,0-.959-.563,1.075,1.075,0,0,0-1.033.294A.736.736,0,0,0,118,56.557a1.734,1.734,0,0,0-1.032-.047.933.933,0,0,0-.664.738c-.062.579.532.988,1.046,1.261a1.643,1.643,0,0,0,.089,1.7,1.055,1.055,0,0,0,1.559.119.376.376,0,0,0-.07.469.857.857,0,0,0,.388.328,1.7,1.7,0,0,0,1.009.2,1.009,1.009,0,0,0,.8-.6.513.513,0,0,0-.2-.654c-.114.318.265.609.6.633a1.305,1.305,0,0,0,1.3-1.532.564.564,0,0,0,.743-.378.919.919,0,0,0-.28-.865,2.7,2.7,0,0,0-.809-.5" transform="translate(36.343 17.222)" fill="#7caa5e"/>
          <path id="Trazado_992874" data-name="Trazado 992874" d="M138.613,58.57a.678.678,0,1,0-.551-1.1.976.976,0,1,0-1.92-.014.505.505,0,0,0-.209-.438,2.078,2.078,0,0,0-.959-.563,1.075,1.075,0,0,0-1.033.294.736.736,0,0,0,.039,1.011,1.734,1.734,0,0,0-1.032-.047.933.933,0,0,0-.664.738c-.062.579.532.99,1.046,1.261a1.643,1.643,0,0,0,.089,1.7,1.055,1.055,0,0,0,1.559.119.376.376,0,0,0-.07.469.857.857,0,0,0,.388.328,1.7,1.7,0,0,0,1.009.2,1.009,1.009,0,0,0,.8-.6.513.513,0,0,0-.2-.654c-.115.318.265.609.6.633a1.305,1.305,0,0,0,1.3-1.532.564.564,0,0,0,.743-.378.92.92,0,0,0-.281-.865,2.681,2.681,0,0,0-.807-.5" transform="translate(41.337 17.596)" fill="#7caa5e"/>
          <path id="Trazado_992875" data-name="Trazado 992875" d="M126.642,57.242a.678.678,0,1,0-.551-1.1.976.976,0,1,0-1.92-.016.5.5,0,0,0-.209-.437,2.071,2.071,0,0,0-.959-.563,1.075,1.075,0,0,0-1.033.294.736.736,0,0,0,.039,1.011,1.734,1.734,0,0,0-1.032-.047.933.933,0,0,0-.664.738c-.062.579.532.99,1.046,1.261a1.643,1.643,0,0,0,.089,1.7,1.055,1.055,0,0,0,1.559.119.376.376,0,0,0-.07.469.857.857,0,0,0,.388.328,1.7,1.7,0,0,0,1.009.2,1.009,1.009,0,0,0,.8-.6.513.513,0,0,0-.2-.654c-.114.318.265.609.6.633a1.305,1.305,0,0,0,1.3-1.532.564.564,0,0,0,.743-.378.919.919,0,0,0-.28-.865,2.7,2.7,0,0,0-.808-.5" transform="translate(37.596 17.181)" fill="#8bb76e"/>
          <path id="Trazado_992876" data-name="Trazado 992876" d="M135.086,59.742a.678.678,0,1,0-.551-1.105.976.976,0,1,0-1.92-.014.5.5,0,0,0-.209-.437,2.078,2.078,0,0,0-.959-.563,1.075,1.075,0,0,0-1.033.294.736.736,0,0,0,.039,1.011,1.734,1.734,0,0,0-1.032-.047.931.931,0,0,0-.664.738c-.062.579.532.988,1.046,1.261a1.643,1.643,0,0,0,.089,1.7,1.055,1.055,0,0,0,1.559.119.376.376,0,0,0-.07.469.857.857,0,0,0,.388.328,1.7,1.7,0,0,0,1.009.2,1.009,1.009,0,0,0,.8-.6.515.515,0,0,0-.2-.655c-.114.319.265.61.6.634a1.305,1.305,0,0,0,1.3-1.532.564.564,0,0,0,.743-.378.922.922,0,0,0-.28-.865,2.7,2.7,0,0,0-.809-.5" transform="translate(40.235 17.963)" fill="#8bb76e"/>
          <path id="Trazado_992877" data-name="Trazado 992877" d="M142.479,60.666a.678.678,0,1,0-.551-1.105.976.976,0,1,0-1.92-.014.5.5,0,0,0-.209-.437,2.075,2.075,0,0,0-.961-.563,1.074,1.074,0,0,0-1.032.294.736.736,0,0,0,.039,1.011,1.734,1.734,0,0,0-1.032-.047.931.931,0,0,0-.664.738c-.062.579.532.988,1.046,1.261a1.643,1.643,0,0,0,.089,1.7,1.055,1.055,0,0,0,1.559.119.376.376,0,0,0-.07.469.857.857,0,0,0,.389.328,1.7,1.7,0,0,0,1.009.2,1.009,1.009,0,0,0,.8-.6.518.518,0,0,0-.2-.655c-.116.319.265.61.6.634a1.3,1.3,0,0,0,1.294-1.532.565.565,0,0,0,.744-.378.92.92,0,0,0-.281-.865,2.681,2.681,0,0,0-.807-.5" transform="translate(42.545 18.251)" fill="#8bb76e"/>
          <path id="Trazado_992878" data-name="Trazado 992878" d="M127.578,58.691a.678.678,0,1,0-.551-1.105.976.976,0,1,0-1.92-.014.5.5,0,0,0-.209-.437,2.06,2.06,0,0,0-.959-.563,1.075,1.075,0,0,0-1.033.294.736.736,0,0,0,.039,1.011,1.734,1.734,0,0,0-1.032-.047.931.931,0,0,0-.664.738c-.062.579.532.988,1.046,1.261a1.643,1.643,0,0,0,.089,1.7,1.055,1.055,0,0,0,1.559.119.376.376,0,0,0-.07.469.857.857,0,0,0,.388.328,1.7,1.7,0,0,0,1.009.2,1.009,1.009,0,0,0,.8-.6.515.515,0,0,0-.2-.655c-.114.319.265.61.6.634a1.305,1.305,0,0,0,1.3-1.532.564.564,0,0,0,.743-.378.919.919,0,0,0-.28-.865,2.7,2.7,0,0,0-.808-.5" transform="translate(37.889 17.634)" fill="#96c17a"/>
          <path id="Trazado_992879" data-name="Trazado 992879" d="M124.042,59.612a.678.678,0,1,0-.551-1.105.976.976,0,1,0-1.92-.014.5.5,0,0,0-.209-.437,2.077,2.077,0,0,0-.959-.563,1.075,1.075,0,0,0-1.033.294.736.736,0,0,0,.039,1.011,1.734,1.734,0,0,0-1.032-.047.931.931,0,0,0-.664.738c-.062.579.532.988,1.046,1.261a1.643,1.643,0,0,0,.089,1.7,1.055,1.055,0,0,0,1.559.119.376.376,0,0,0-.07.469.857.857,0,0,0,.388.328,1.7,1.7,0,0,0,1.009.2,1.009,1.009,0,0,0,.8-.6.515.515,0,0,0-.2-.655c-.114.319.265.61.6.634a1.305,1.305,0,0,0,1.3-1.532.564.564,0,0,0,.743-.378.922.922,0,0,0-.28-.865,2.7,2.7,0,0,0-.809-.5" transform="translate(36.784 17.922)" fill="#96c17a"/>
          <path id="Trazado_992880" data-name="Trazado 992880" d="M126.642,62.112a.678.678,0,1,0-.551-1.1.976.976,0,1,0-1.92-.014.507.507,0,0,0-.209-.438,2.082,2.082,0,0,0-.959-.563,1.075,1.075,0,0,0-1.033.294.736.736,0,0,0,.039,1.011,1.734,1.734,0,0,0-1.032-.047.935.935,0,0,0-.664.739c-.062.577.532.988,1.046,1.26a1.643,1.643,0,0,0,.089,1.7,1.054,1.054,0,0,0,1.559.119.376.376,0,0,0-.07.469.857.857,0,0,0,.388.328,1.69,1.69,0,0,0,1.009.2,1.009,1.009,0,0,0,.8-.6.513.513,0,0,0-.2-.654c-.114.319.265.61.6.633a1.305,1.305,0,0,0,1.3-1.532.564.564,0,0,0,.743-.378.916.916,0,0,0-.28-.864,2.681,2.681,0,0,0-.808-.5" transform="translate(37.596 18.703)" fill="#96c17a"/>
          <path id="Trazado_992881" data-name="Trazado 992881" d="M131.6,59.1a.678.678,0,1,0-.551-1.105.976.976,0,1,0-1.92-.014.5.5,0,0,0-.209-.437,2.066,2.066,0,0,0-.959-.563,1.075,1.075,0,0,0-1.033.294.736.736,0,0,0,.039,1.011,1.734,1.734,0,0,0-1.032-.047.931.931,0,0,0-.664.738c-.062.579.532.988,1.046,1.261a1.643,1.643,0,0,0,.089,1.7,1.055,1.055,0,0,0,1.559.119.376.376,0,0,0-.07.469.857.857,0,0,0,.388.328,1.7,1.7,0,0,0,1.009.2,1.009,1.009,0,0,0,.8-.6.515.515,0,0,0-.2-.655c-.115.319.265.61.6.634a1.305,1.305,0,0,0,1.3-1.532.564.564,0,0,0,.743-.378.922.922,0,0,0-.28-.865,2.7,2.7,0,0,0-.809-.5" transform="translate(39.145 17.761)" fill="#a2cc87"/>
          <path id="Trazado_992882" data-name="Trazado 992882" d="M127.578,60.223a.678.678,0,1,0-.551-1.105.976.976,0,1,0-1.92-.014.5.5,0,0,0-.209-.437,2.06,2.06,0,0,0-.959-.563,1.075,1.075,0,0,0-1.033.294.736.736,0,0,0,.039,1.011,1.734,1.734,0,0,0-1.032-.047.931.931,0,0,0-.664.738c-.062.579.532.988,1.046,1.261a1.643,1.643,0,0,0,.089,1.7,1.055,1.055,0,0,0,1.559.119.376.376,0,0,0-.07.469.857.857,0,0,0,.388.328,1.7,1.7,0,0,0,1.009.2,1.009,1.009,0,0,0,.8-.6.515.515,0,0,0-.2-.655c-.114.319.265.61.6.634a1.305,1.305,0,0,0,1.3-1.532.564.564,0,0,0,.743-.378.919.919,0,0,0-.28-.865,2.7,2.7,0,0,0-.808-.5" transform="translate(37.889 18.113)" fill="#a2cc87"/>
          <path id="Trazado_992883" data-name="Trazado 992883" d="M131.935,61.469a.678.678,0,1,0-.551-1.1.976.976,0,1,0-1.92-.016.5.5,0,0,0-.209-.437,2.077,2.077,0,0,0-.959-.563,1.075,1.075,0,0,0-1.033.294.736.736,0,0,0,.039,1.011,1.734,1.734,0,0,0-1.032-.047.933.933,0,0,0-.664.738c-.062.579.532.988,1.046,1.261a1.643,1.643,0,0,0,.089,1.7,1.055,1.055,0,0,0,1.559.119.376.376,0,0,0-.07.469.857.857,0,0,0,.388.328,1.7,1.7,0,0,0,1.009.2,1.009,1.009,0,0,0,.8-.6.513.513,0,0,0-.2-.654c-.114.318.265.609.6.633a1.305,1.305,0,0,0,1.3-1.532.564.564,0,0,0,.743-.378.92.92,0,0,0-.281-.865,2.681,2.681,0,0,0-.807-.5" transform="translate(39.25 18.502)" fill="#b0dd92"/>
          <path id="Trazado_992884" data-name="Trazado 992884" d="M129.707,62.312a.678.678,0,1,0-.551-1.1.976.976,0,1,0-1.92-.014.5.5,0,0,0-.209-.438,2.078,2.078,0,0,0-.959-.563,1.075,1.075,0,0,0-1.033.294.736.736,0,0,0,.039,1.011,1.734,1.734,0,0,0-1.032-.047.931.931,0,0,0-.664.738c-.062.579.532.988,1.046,1.261a1.643,1.643,0,0,0,.089,1.7,1.055,1.055,0,0,0,1.559.119.376.376,0,0,0-.07.469.857.857,0,0,0,.388.328,1.7,1.7,0,0,0,1.009.2,1.009,1.009,0,0,0,.8-.6A.513.513,0,0,0,128,65c-.114.318.265.609.6.633a1.305,1.305,0,0,0,1.3-1.532.564.564,0,0,0,.743-.378.919.919,0,0,0-.28-.865,2.7,2.7,0,0,0-.809-.5" transform="translate(38.554 18.766)" fill="#b0dd92"/>
          <path id="Trazado_992885" data-name="Trazado 992885" d="M135.372,62.835a.678.678,0,1,0-.551-1.105.976.976,0,1,0-1.92-.014.5.5,0,0,0-.209-.437,2.066,2.066,0,0,0-.959-.563,1.075,1.075,0,0,0-1.033.294.736.736,0,0,0,.039,1.011,1.734,1.734,0,0,0-1.032-.047.931.931,0,0,0-.664.738c-.062.579.532.988,1.046,1.261a1.643,1.643,0,0,0,.089,1.7,1.055,1.055,0,0,0,1.559.119.376.376,0,0,0-.07.469.857.857,0,0,0,.388.328,1.7,1.7,0,0,0,1.009.2,1.009,1.009,0,0,0,.8-.6.513.513,0,0,0-.2-.654c-.115.318.265.609.6.633a1.305,1.305,0,0,0,1.3-1.532.564.564,0,0,0,.743-.378.919.919,0,0,0-.28-.865,2.7,2.7,0,0,0-.809-.5" transform="translate(40.325 18.929)" fill="#b0dd92"/>
          <path id="Trazado_992886" data-name="Trazado 992886" d="M138.148,61.268a.678.678,0,1,0-.551-1.1.976.976,0,1,0-1.92-.016.5.5,0,0,0-.209-.437,2.078,2.078,0,0,0-.959-.563,1.075,1.075,0,0,0-1.033.294.736.736,0,0,0,.039,1.011,1.734,1.734,0,0,0-1.032-.047.933.933,0,0,0-.664.738c-.062.579.532.99,1.046,1.261a1.643,1.643,0,0,0,.089,1.7,1.055,1.055,0,0,0,1.559.119.376.376,0,0,0-.07.469.857.857,0,0,0,.389.328,1.7,1.7,0,0,0,1.009.2,1.009,1.009,0,0,0,.8-.6.513.513,0,0,0-.2-.654c-.114.318.265.609.6.633a1.305,1.305,0,0,0,1.3-1.532.564.564,0,0,0,.743-.378.919.919,0,0,0-.28-.865,2.7,2.7,0,0,0-.808-.5" transform="translate(41.192 18.439)" fill="#b0dd92"/>
          <path id="Trazado_992887" data-name="Trazado 992887" d="M142.988,63.432a.678.678,0,1,0-.551-1.105.976.976,0,1,0-1.92-.014.5.5,0,0,0-.209-.437,2.078,2.078,0,0,0-.959-.563,1.075,1.075,0,0,0-1.033.294.736.736,0,0,0,.039,1.011,1.734,1.734,0,0,0-1.032-.047.931.931,0,0,0-.664.738c-.062.579.532.988,1.046,1.261a1.643,1.643,0,0,0,.089,1.7,1.055,1.055,0,0,0,1.559.119.376.376,0,0,0-.07.469.857.857,0,0,0,.388.328,1.7,1.7,0,0,0,1.009.2,1.009,1.009,0,0,0,.8-.6.515.515,0,0,0-.2-.655c-.115.319.265.61.6.634a1.3,1.3,0,0,0,1.294-1.532.565.565,0,0,0,.744-.378.922.922,0,0,0-.28-.865,2.7,2.7,0,0,0-.808-.5" transform="translate(42.705 19.116)" fill="#c5efa3"/>
          <path id="Trazado_992888" data-name="Trazado 992888" d="M139.332,63.037a.678.678,0,1,0-.551-1.1.976.976,0,1,0-1.92-.014.505.505,0,0,0-.209-.438,2.077,2.077,0,0,0-.959-.563,1.075,1.075,0,0,0-1.033.294.736.736,0,0,0,.039,1.011,1.734,1.734,0,0,0-1.032-.047.933.933,0,0,0-.664.738c-.062.579.532.99,1.046,1.261a1.643,1.643,0,0,0,.089,1.7,1.055,1.055,0,0,0,1.559.119.376.376,0,0,0-.07.469.857.857,0,0,0,.389.328,1.7,1.7,0,0,0,1.009.2,1.009,1.009,0,0,0,.8-.6.514.514,0,0,0-.2-.654c-.115.318.265.609.6.633a1.305,1.305,0,0,0,1.3-1.532.564.564,0,0,0,.743-.378.92.92,0,0,0-.281-.865,2.681,2.681,0,0,0-.807-.5" transform="translate(41.562 18.992)" fill="#c5efa3"/>
          <path id="Trazado_992889" data-name="Trazado 992889" d="M133.779,63.839a.678.678,0,1,0-.551-1.105.976.976,0,1,0-1.92-.014.5.5,0,0,0-.209-.437,2.078,2.078,0,0,0-.959-.563,1.075,1.075,0,0,0-1.033.294.736.736,0,0,0,.039,1.011,1.734,1.734,0,0,0-1.032-.047.931.931,0,0,0-.664.738c-.062.579.532.988,1.046,1.261a1.643,1.643,0,0,0,.089,1.7,1.055,1.055,0,0,0,1.559.119.376.376,0,0,0-.07.469.857.857,0,0,0,.388.328,1.7,1.7,0,0,0,1.009.2,1.009,1.009,0,0,0,.8-.6.516.516,0,0,0-.2-.655c-.115.319.265.61.6.634a1.305,1.305,0,0,0,1.3-1.532.564.564,0,0,0,.743-.378.92.92,0,0,0-.281-.865,2.682,2.682,0,0,0-.807-.5" transform="translate(39.827 19.243)" fill="#c5efa3"/>
          <path id="Trazado_992890" data-name="Trazado 992890" d="M136.555,64.964A.678.678,0,1,0,136,63.859a.976.976,0,1,0-1.92-.014.5.5,0,0,0-.209-.437,2.077,2.077,0,0,0-.959-.563,1.075,1.075,0,0,0-1.033.294.736.736,0,0,0,.039,1.011,1.734,1.734,0,0,0-1.032-.047.931.931,0,0,0-.664.738c-.062.579.532.988,1.046,1.261a1.643,1.643,0,0,0,.089,1.7,1.055,1.055,0,0,0,1.559.119.376.376,0,0,0-.07.469.857.857,0,0,0,.388.328,1.7,1.7,0,0,0,1.009.2,1.009,1.009,0,0,0,.8-.6.515.515,0,0,0-.2-.655c-.114.319.265.61.6.634a1.305,1.305,0,0,0,1.3-1.532.564.564,0,0,0,.743-.378.922.922,0,0,0-.28-.865,2.7,2.7,0,0,0-.809-.5" transform="translate(40.694 19.594)" fill="#c5efa3"/>
          <path id="Trazado_992891" data-name="Trazado 992891" d="M124.693,60.313a.678.678,0,1,0-.553-1.1.976.976,0,1,0-1.92-.016.5.5,0,0,0-.209-.437,2.071,2.071,0,0,0-.959-.563,1.077,1.077,0,0,0-1.033.294.737.737,0,0,0,.039,1.011,1.734,1.734,0,0,0-1.032-.047.933.933,0,0,0-.664.738c-.062.579.533.988,1.047,1.261a1.64,1.64,0,0,0,.089,1.7,1.054,1.054,0,0,0,1.558.119.378.378,0,0,0-.07.469.854.854,0,0,0,.39.328,1.694,1.694,0,0,0,1.008.2,1.013,1.013,0,0,0,.8-.6.514.514,0,0,0-.2-.654c-.117.318.264.609.6.633a1.305,1.305,0,0,0,1.3-1.532.566.566,0,0,0,.744-.378.926.926,0,0,0-.281-.865,2.688,2.688,0,0,0-.808-.5" transform="translate(36.987 18.141)" fill="#7caa5e"/>
          <path id="Trazado_992892" data-name="Trazado 992892" d="M140.675,61.511a.678.678,0,1,0-.551-1.1.976.976,0,1,0-1.92-.016.507.507,0,0,0-.209-.438,2.1,2.1,0,0,0-.959-.563,1.082,1.082,0,0,0-1.033.294.737.737,0,0,0,.039,1.012,1.724,1.724,0,0,0-1.032-.049.935.935,0,0,0-.664.739c-.062.578.532.99,1.046,1.261a1.643,1.643,0,0,0,.089,1.7,1.055,1.055,0,0,0,1.559.118.376.376,0,0,0-.07.469.849.849,0,0,0,.389.328,1.69,1.69,0,0,0,1.009.2,1.008,1.008,0,0,0,.8-.6.513.513,0,0,0-.2-.654c-.114.319.265.61.6.634a1.306,1.306,0,0,0,1.3-1.532.564.564,0,0,0,.743-.379.919.919,0,0,0-.28-.864,2.708,2.708,0,0,0-.809-.5" transform="translate(41.982 18.515)" fill="#7caa5e"/>
          <path id="Trazado_992893" data-name="Trazado 992893" d="M128.7,60.183a.678.678,0,1,0-.551-1.1.976.976,0,1,0-1.92-.016.5.5,0,0,0-.209-.437,2.078,2.078,0,0,0-.959-.563,1.075,1.075,0,0,0-1.033.294.736.736,0,0,0,.039,1.011,1.734,1.734,0,0,0-1.032-.047.933.933,0,0,0-.664.738c-.062.579.532.988,1.046,1.261a1.643,1.643,0,0,0,.089,1.7,1.055,1.055,0,0,0,1.559.119.376.376,0,0,0-.07.469.857.857,0,0,0,.388.328,1.7,1.7,0,0,0,1.009.2,1.009,1.009,0,0,0,.8-.6.513.513,0,0,0-.2-.654c-.115.318.265.609.6.633a1.305,1.305,0,0,0,1.3-1.532.564.564,0,0,0,.743-.378.919.919,0,0,0-.28-.865,2.7,2.7,0,0,0-.809-.5" transform="translate(38.241 18.1)" fill="#8bb76e"/>
          <path id="Trazado_992894" data-name="Trazado 992894" d="M137.148,62.683a.678.678,0,1,0-.551-1.105.976.976,0,1,0-1.92-.014.5.5,0,0,0-.209-.437,2.078,2.078,0,0,0-.959-.563,1.075,1.075,0,0,0-1.033.294.736.736,0,0,0,.039,1.011,1.734,1.734,0,0,0-1.032-.047.931.931,0,0,0-.664.738c-.062.579.532.988,1.046,1.261a1.643,1.643,0,0,0,.089,1.7,1.055,1.055,0,0,0,1.559.119.376.376,0,0,0-.07.469.857.857,0,0,0,.389.328,1.7,1.7,0,0,0,1.009.2,1.009,1.009,0,0,0,.8-.6.516.516,0,0,0-.2-.655c-.116.319.265.61.6.634a1.305,1.305,0,0,0,1.3-1.532.564.564,0,0,0,.743-.378.92.92,0,0,0-.281-.865,2.682,2.682,0,0,0-.807-.5" transform="translate(40.88 18.882)" fill="#8bb76e"/>
          <path id="Trazado_992895" data-name="Trazado 992895" d="M144.541,63.607a.678.678,0,1,0-.551-1.1.976.976,0,1,0-1.92-.016.506.506,0,0,0-.209-.437,2.094,2.094,0,0,0-.959-.563,1.081,1.081,0,0,0-1.033.294.737.737,0,0,0,.039,1.012,1.734,1.734,0,0,0-1.032-.049.935.935,0,0,0-.664.739c-.062.578.532.988,1.046,1.261a1.644,1.644,0,0,0,.089,1.7,1.055,1.055,0,0,0,1.559.118.376.376,0,0,0-.07.469.849.849,0,0,0,.389.328,1.691,1.691,0,0,0,1.009.2,1.009,1.009,0,0,0,.8-.6.517.517,0,0,0-.2-.656c-.114.32.265.612.6.635a1.306,1.306,0,0,0,1.3-1.532.564.564,0,0,0,.743-.379.917.917,0,0,0-.28-.864,2.708,2.708,0,0,0-.809-.5" transform="translate(43.19 19.17)" fill="#8bb76e"/>
          <path id="Trazado_992896" data-name="Trazado 992896" d="M129.64,61.632a.678.678,0,1,0-.551-1.105.976.976,0,1,0-1.92-.014.5.5,0,0,0-.209-.437,2.066,2.066,0,0,0-.959-.563,1.075,1.075,0,0,0-1.033.294.736.736,0,0,0,.039,1.011,1.734,1.734,0,0,0-1.032-.047.931.931,0,0,0-.664.738c-.062.579.532.988,1.046,1.261a1.643,1.643,0,0,0,.089,1.7,1.055,1.055,0,0,0,1.559.119.376.376,0,0,0-.07.469.857.857,0,0,0,.389.328,1.7,1.7,0,0,0,1.009.2,1.009,1.009,0,0,0,.8-.6.515.515,0,0,0-.2-.655c-.114.319.265.61.6.634a1.305,1.305,0,0,0,1.3-1.532.564.564,0,0,0,.743-.378.919.919,0,0,0-.28-.865,2.7,2.7,0,0,0-.808-.5" transform="translate(38.533 18.553)" fill="#96c17a"/>
          <path id="Trazado_992897" data-name="Trazado 992897" d="M126.1,62.553a.678.678,0,1,0-.551-1.1.976.976,0,1,0-1.92-.016.506.506,0,0,0-.209-.437,2.1,2.1,0,0,0-.959-.563,1.081,1.081,0,0,0-1.033.294.737.737,0,0,0,.039,1.012,1.724,1.724,0,0,0-1.032-.049.935.935,0,0,0-.664.739c-.062.577.532.988,1.046,1.261a1.644,1.644,0,0,0,.089,1.7,1.055,1.055,0,0,0,1.559.118.376.376,0,0,0-.07.469.849.849,0,0,0,.388.328,1.69,1.69,0,0,0,1.009.2,1.011,1.011,0,0,0,.8-.6.515.515,0,0,0-.2-.655c-.116.32.265.612.6.635a1.3,1.3,0,0,0,1.294-1.532.565.565,0,0,0,.744-.379.919.919,0,0,0-.28-.864,2.708,2.708,0,0,0-.809-.5" transform="translate(37.428 18.841)" fill="#96c17a"/>
          <path id="Trazado_992898" data-name="Trazado 992898" d="M128.7,65.054a.678.678,0,1,0-.551-1.1.976.976,0,1,0-1.92-.014.505.505,0,0,0-.209-.438,2.077,2.077,0,0,0-.959-.563,1.075,1.075,0,0,0-1.033.294.736.736,0,0,0,.039,1.011,1.734,1.734,0,0,0-1.032-.047.933.933,0,0,0-.664.738c-.062.579.532.99,1.046,1.261a1.643,1.643,0,0,0,.089,1.7,1.055,1.055,0,0,0,1.559.119.376.376,0,0,0-.07.469.857.857,0,0,0,.388.328,1.7,1.7,0,0,0,1.009.2,1.009,1.009,0,0,0,.8-.6.513.513,0,0,0-.2-.654c-.115.318.265.609.6.633a1.305,1.305,0,0,0,1.3-1.532.564.564,0,0,0,.743-.378.919.919,0,0,0-.28-.865,2.7,2.7,0,0,0-.809-.5" transform="translate(38.241 19.623)" fill="#96c17a"/>
          <path id="Trazado_992899" data-name="Trazado 992899" d="M133.658,62.04a.678.678,0,1,0-.551-1.105.976.976,0,1,0-1.92-.014.5.5,0,0,0-.209-.437,2.066,2.066,0,0,0-.959-.563,1.075,1.075,0,0,0-1.033.294.736.736,0,0,0,.039,1.011,1.734,1.734,0,0,0-1.032-.047.931.931,0,0,0-.664.738c-.062.579.532.988,1.046,1.261a1.643,1.643,0,0,0,.089,1.7,1.055,1.055,0,0,0,1.559.119.376.376,0,0,0-.07.469.857.857,0,0,0,.388.328,1.7,1.7,0,0,0,1.009.2,1.009,1.009,0,0,0,.8-.6.515.515,0,0,0-.2-.655c-.114.319.265.61.6.634a1.305,1.305,0,0,0,1.3-1.532.564.564,0,0,0,.743-.378.92.92,0,0,0-.281-.865,2.681,2.681,0,0,0-.807-.5" transform="translate(39.789 18.681)" fill="#a2cc87"/>
          <path id="Trazado_992900" data-name="Trazado 992900" d="M129.64,63.165a.678.678,0,1,0-.551-1.105.976.976,0,1,0-1.92-.014.5.5,0,0,0-.209-.437,2.066,2.066,0,0,0-.959-.563,1.075,1.075,0,0,0-1.033.294.736.736,0,0,0,.039,1.011,1.734,1.734,0,0,0-1.032-.047.931.931,0,0,0-.664.738c-.062.579.532.988,1.046,1.261a1.643,1.643,0,0,0,.089,1.7,1.055,1.055,0,0,0,1.559.119.376.376,0,0,0-.07.469.857.857,0,0,0,.389.328,1.7,1.7,0,0,0,1.009.2,1.009,1.009,0,0,0,.8-.6.515.515,0,0,0-.2-.655c-.114.319.265.61.6.634a1.305,1.305,0,0,0,1.3-1.532.564.564,0,0,0,.743-.378.919.919,0,0,0-.28-.865,2.7,2.7,0,0,0-.808-.5" transform="translate(38.533 19.032)" fill="#a2cc87"/>
          <path id="Trazado_992901" data-name="Trazado 992901" d="M134,64.41a.678.678,0,1,0-.551-1.1.976.976,0,1,0-1.92-.016.5.5,0,0,0-.209-.437,2.071,2.071,0,0,0-.959-.563,1.075,1.075,0,0,0-1.033.294.736.736,0,0,0,.039,1.011,1.734,1.734,0,0,0-1.032-.047.933.933,0,0,0-.664.738c-.062.579.532.988,1.046,1.261a1.643,1.643,0,0,0,.089,1.7,1.055,1.055,0,0,0,1.559.119.376.376,0,0,0-.07.469.857.857,0,0,0,.388.328,1.7,1.7,0,0,0,1.009.2,1.009,1.009,0,0,0,.8-.6.513.513,0,0,0-.2-.654c-.114.318.265.609.6.633a1.305,1.305,0,0,0,1.3-1.532.564.564,0,0,0,.743-.378.919.919,0,0,0-.28-.865,2.7,2.7,0,0,0-.808-.5" transform="translate(39.895 19.421)" fill="#b0dd92"/>
          <path id="Trazado_992902" data-name="Trazado 992902" d="M131.769,65.254a.678.678,0,1,0-.551-1.1.976.976,0,1,0-1.92-.014.5.5,0,0,0-.209-.438,2.077,2.077,0,0,0-.959-.563,1.075,1.075,0,0,0-1.033.294.736.736,0,0,0,.039,1.011,1.734,1.734,0,0,0-1.032-.047.931.931,0,0,0-.664.738c-.062.579.532.988,1.046,1.261a1.643,1.643,0,0,0,.089,1.7,1.055,1.055,0,0,0,1.559.119.376.376,0,0,0-.07.469.857.857,0,0,0,.388.328,1.7,1.7,0,0,0,1.009.2,1.009,1.009,0,0,0,.8-.6.513.513,0,0,0-.2-.654c-.114.318.265.609.6.633a1.305,1.305,0,0,0,1.3-1.532.564.564,0,0,0,.743-.378.92.92,0,0,0-.281-.865,2.681,2.681,0,0,0-.807-.5" transform="translate(39.199 19.685)" fill="#b0dd92"/>
          <path id="Trazado_992903" data-name="Trazado 992903" d="M137.434,65.776a.678.678,0,1,0-.551-1.105.976.976,0,1,0-1.92-.014.5.5,0,0,0-.209-.437,2.066,2.066,0,0,0-.959-.563,1.075,1.075,0,0,0-1.033.294.736.736,0,0,0,.039,1.011,1.734,1.734,0,0,0-1.032-.047.931.931,0,0,0-.664.738c-.062.579.532.988,1.046,1.261a1.643,1.643,0,0,0,.089,1.7,1.055,1.055,0,0,0,1.559.119.376.376,0,0,0-.07.469.857.857,0,0,0,.388.328,1.7,1.7,0,0,0,1.009.2,1.009,1.009,0,0,0,.8-.6.514.514,0,0,0-.2-.654c-.116.318.265.609.6.633a1.305,1.305,0,0,0,1.3-1.532.564.564,0,0,0,.743-.378.919.919,0,0,0-.281-.865,2.681,2.681,0,0,0-.807-.5" transform="translate(40.969 19.848)" fill="#b0dd92"/>
          <path id="Trazado_992904" data-name="Trazado 992904" d="M140.21,64.209a.678.678,0,1,0-.551-1.1.976.976,0,1,0-1.92-.016.5.5,0,0,0-.209-.437,2.075,2.075,0,0,0-.961-.563,1.074,1.074,0,0,0-1.032.294.736.736,0,0,0,.039,1.011,1.734,1.734,0,0,0-1.032-.047.933.933,0,0,0-.664.738c-.062.579.532.988,1.046,1.261a1.643,1.643,0,0,0,.089,1.7,1.055,1.055,0,0,0,1.559.119.376.376,0,0,0-.07.469.857.857,0,0,0,.388.328,1.7,1.7,0,0,0,1.009.2,1.009,1.009,0,0,0,.8-.6.514.514,0,0,0-.2-.654c-.116.318.265.609.6.633A1.3,1.3,0,0,0,140.4,66a.565.565,0,0,0,.744-.378.92.92,0,0,0-.281-.865,2.681,2.681,0,0,0-.807-.5" transform="translate(41.836 19.358)" fill="#b0dd92"/>
          <path id="Trazado_992905" data-name="Trazado 992905" d="M145.05,66.373a.678.678,0,1,0-.551-1.105.976.976,0,1,0-1.92-.014.5.5,0,0,0-.209-.437,2.077,2.077,0,0,0-.959-.563,1.075,1.075,0,0,0-1.033.294.736.736,0,0,0,.039,1.011,1.734,1.734,0,0,0-1.032-.047.931.931,0,0,0-.664.738c-.062.579.532.988,1.046,1.261a1.643,1.643,0,0,0,.089,1.7,1.055,1.055,0,0,0,1.559.119.376.376,0,0,0-.07.469.857.857,0,0,0,.389.328,1.7,1.7,0,0,0,1.009.2,1.009,1.009,0,0,0,.8-.6.516.516,0,0,0-.2-.655c-.115.319.265.61.6.634a1.305,1.305,0,0,0,1.3-1.532.564.564,0,0,0,.743-.378.92.92,0,0,0-.281-.865,2.682,2.682,0,0,0-.807-.5" transform="translate(43.349 20.035)" fill="#c5efa3"/>
          <path id="Trazado_992906" data-name="Trazado 992906" d="M141.394,65.978a.678.678,0,1,0-.551-1.1.976.976,0,1,0-1.92-.014.505.505,0,0,0-.209-.438,2.077,2.077,0,0,0-.959-.563,1.075,1.075,0,0,0-1.033.294.736.736,0,0,0,.039,1.011,1.734,1.734,0,0,0-1.032-.047.933.933,0,0,0-.664.738c-.062.579.532.99,1.046,1.261a1.643,1.643,0,0,0,.089,1.7,1.055,1.055,0,0,0,1.559.119.376.376,0,0,0-.07.469.857.857,0,0,0,.389.328,1.7,1.7,0,0,0,1.009.2,1.009,1.009,0,0,0,.8-.6.513.513,0,0,0-.2-.654c-.114.318.265.609.6.633a1.3,1.3,0,0,0,1.294-1.532.565.565,0,0,0,.744-.378.922.922,0,0,0-.28-.865,2.7,2.7,0,0,0-.808-.5" transform="translate(42.206 19.911)" fill="#c5efa3"/>
          <path id="Trazado_992907" data-name="Trazado 992907" d="M135.841,66.78a.678.678,0,1,0-.553-1.105.976.976,0,1,0-1.92-.014c.039-.164-.087-.32-.209-.437a2.064,2.064,0,0,0-.959-.563,1.076,1.076,0,0,0-1.033.294.736.736,0,0,0,.039,1.011,1.734,1.734,0,0,0-1.032-.047.931.931,0,0,0-.664.738c-.06.579.532.988,1.046,1.261a1.643,1.643,0,0,0,.091,1.7,1.054,1.054,0,0,0,1.558.119.378.378,0,0,0-.07.469.861.861,0,0,0,.39.328,1.7,1.7,0,0,0,1.009.2,1.007,1.007,0,0,0,.8-.6.513.513,0,0,0-.2-.655c-.114.319.265.61.6.634a1.305,1.305,0,0,0,1.3-1.532.565.565,0,0,0,.744-.378.923.923,0,0,0-.281-.865,2.688,2.688,0,0,0-.808-.5" transform="translate(40.471 20.162)" fill="#c5efa3"/>
          <path id="Trazado_992908" data-name="Trazado 992908" d="M138.617,67.9a.678.678,0,1,0-.551-1.105.976.976,0,1,0-1.92-.014.5.5,0,0,0-.209-.437,2.071,2.071,0,0,0-.959-.563,1.075,1.075,0,0,0-1.033.294.736.736,0,0,0,.039,1.011,1.734,1.734,0,0,0-1.032-.047.931.931,0,0,0-.664.738c-.062.579.532.988,1.046,1.261a1.643,1.643,0,0,0,.089,1.7,1.055,1.055,0,0,0,1.559.119.376.376,0,0,0-.07.469.857.857,0,0,0,.388.328,1.7,1.7,0,0,0,1.009.2,1.009,1.009,0,0,0,.8-.6.515.515,0,0,0-.2-.655c-.114.319.265.61.6.634a1.305,1.305,0,0,0,1.3-1.532.564.564,0,0,0,.743-.378.919.919,0,0,0-.28-.865,2.7,2.7,0,0,0-.809-.5" transform="translate(41.339 20.513)" fill="#c5efa3"/>
          <path id="Trazado_992909" data-name="Trazado 992909" d="M107.977,63.221a2.847,2.847,0,0,0-2.614-.3,4.691,4.691,0,0,0-2.118,1.677c-1.084,1.456-1.508,3.634-.354,5.035a5.1,5.1,0,0,0,2.97,1.479,10.418,10.418,0,0,0,3.364.248,7.12,7.12,0,0,0,3.881-1.732c1.285-1.141,2.135-3.075,1.32-4.589a4.567,4.567,0,0,0-1.638-1.567c-.966-.619-2.214-1.138-3.223-.589a2.915,2.915,0,0,1-.881.454c-.328.05-.728-.257-.592-.56" transform="translate(31.938 19.579)" fill="#ff503e"/>
          <path id="Trazado_992910" data-name="Trazado 992910" d="M107.674,62.9a2.269,2.269,0,0,0-1.445-.618,1.844,1.844,0,0,0-.768.025.756.756,0,0,0-.533.513,2.09,2.09,0,0,1,1.567.925,2.109,2.109,0,0,0-1.567,2.163,1.307,1.307,0,0,0,.577-.2l1.578-.836a1.049,1.049,0,0,0,.593.74,3.1,3.1,0,0,0,.95.251,1.711,1.711,0,0,0-.883-1.572A3.919,3.919,0,0,1,110,63.913c.084-.131-.046-.293-.165-.394a4.512,4.512,0,0,0-1.045-.7,1.768,1.768,0,0,0-1.232-.11" transform="translate(32.788 19.455)" fill="#719129"/>
          <path id="Trazado_992911" data-name="Trazado 992911" d="M114.715,57.088a2.25,2.25,0,0,0-2.062-.236,3.7,3.7,0,0,0-1.668,1.322,3.329,3.329,0,0,0-.28,3.968,4.026,4.026,0,0,0,2.34,1.165,8.205,8.205,0,0,0,2.651.2,5.6,5.6,0,0,0,3.057-1.366c1.013-.9,1.683-2.423,1.041-3.615a3.582,3.582,0,0,0-1.29-1.234,2.6,2.6,0,0,0-2.54-.466,2.3,2.3,0,0,1-.694.358c-.259.039-.575-.2-.467-.441" transform="translate(34.426 17.7)" fill="#ff503e"/>
          <path id="Trazado_992912" data-name="Trazado 992912" d="M114.475,56.835a1.79,1.79,0,0,0-1.138-.487,1.444,1.444,0,0,0-.605.02.593.593,0,0,0-.42.4,1.65,1.65,0,0,1,1.235.728,1.661,1.661,0,0,0-1.235,1.7,1.021,1.021,0,0,0,.455-.156l1.243-.659a.824.824,0,0,0,.467.584,2.435,2.435,0,0,0,.748.2,1.352,1.352,0,0,0-.7-1.24,3.1,3.1,0,0,1,1.777-.3c.067-.1-.035-.231-.13-.31a3.57,3.57,0,0,0-.823-.555,1.385,1.385,0,0,0-.971-.087" transform="translate(35.096 17.602)" fill="#719129"/>
          <path id="Trazado_992913" data-name="Trazado 992913" d="M114.8,60.5a2.247,2.247,0,0,0-2.061-.236,3.7,3.7,0,0,0-1.668,1.322,3.329,3.329,0,0,0-.28,3.968,4.026,4.026,0,0,0,2.34,1.166,8.2,8.2,0,0,0,2.651.2,5.6,5.6,0,0,0,3.057-1.366c1.013-.9,1.683-2.423,1.041-3.615a3.593,3.593,0,0,0-1.29-1.234,2.6,2.6,0,0,0-2.54-.466,2.272,2.272,0,0,1-.694.358c-.259.039-.574-.2-.466-.441" transform="translate(34.454 18.767)" fill="#ff503e"/>
          <path id="Trazado_992914" data-name="Trazado 992914" d="M114.565,60.247a1.79,1.79,0,0,0-1.138-.487,1.451,1.451,0,0,0-.606.02.594.594,0,0,0-.419.4,1.65,1.65,0,0,1,1.235.728,1.661,1.661,0,0,0-1.235,1.7,1.021,1.021,0,0,0,.455-.156L114.1,61.8a.824.824,0,0,0,.467.584,2.436,2.436,0,0,0,.748.2,1.352,1.352,0,0,0-.7-1.24,3.1,3.1,0,0,1,1.777-.3c.067-.1-.035-.231-.13-.31a3.571,3.571,0,0,0-.823-.555,1.385,1.385,0,0,0-.971-.087" transform="translate(35.124 18.668)" fill="#719129"/>
          <path id="Trazado_992915" data-name="Trazado 992915" d="M121.4,59.081a2.247,2.247,0,0,0-2.061-.236,3.7,3.7,0,0,0-1.668,1.322,3.329,3.329,0,0,0-.28,3.968,4.026,4.026,0,0,0,2.34,1.165,8.205,8.205,0,0,0,2.651.2,5.6,5.6,0,0,0,3.057-1.366c1.013-.9,1.683-2.423,1.041-3.615a3.582,3.582,0,0,0-1.29-1.234,2.6,2.6,0,0,0-2.54-.466,2.3,2.3,0,0,1-.694.358c-.259.039-.574-.2-.467-.441" transform="translate(36.516 18.323)" fill="#ff503e"/>
          <path id="Trazado_992916" data-name="Trazado 992916" d="M121.163,58.827a1.788,1.788,0,0,0-1.138-.486,1.43,1.43,0,0,0-.606.02.591.591,0,0,0-.419.4,1.646,1.646,0,0,1,1.235.728A1.661,1.661,0,0,0,119,61.2a1.055,1.055,0,0,0,.455-.156l1.243-.659a.826.826,0,0,0,.467.584,2.433,2.433,0,0,0,.748.2,1.349,1.349,0,0,0-.7-1.239,3.113,3.113,0,0,1,1.777-.3c.067-.1-.035-.23-.13-.31a3.587,3.587,0,0,0-.824-.554,1.367,1.367,0,0,0-.97-.087" transform="translate(37.186 18.225)" fill="#719129"/>
          <path id="Trazado_992917" data-name="Trazado 992917" d="M114.02,66.679a1.406,1.406,0,0,1-.19-1.966,3.073,3.073,0,0,1,1.923-1,12.257,12.257,0,0,0,2.168-.453c1.471-.577,2.544-2.141,4.121-2.225a2.929,2.929,0,0,1,2.756,2.059,4.861,4.861,0,0,1-.374,3.584,4.779,4.779,0,0,1-1.646,2,5.732,5.732,0,0,1-2.738.757,7.862,7.862,0,0,1-3.92-.57,4.072,4.072,0,0,1-2.382-3.01" transform="translate(35.475 19.072)" fill="#b67f49"/>
          <path id="Trazado_992918" data-name="Trazado 992918" d="M119.116,62.924a.164.164,0,0,0,0-.328.164.164,0,0,0,0,.328" transform="translate(37.174 19.562)" fill="#8b5e35"/>
          <path id="Trazado_992919" data-name="Trazado 992919" d="M116.6,64h.071a.168.168,0,0,0,.116-.049.162.162,0,0,0,0-.231.168.168,0,0,0-.116-.049H116.6a.166.166,0,0,0-.164.164.16.16,0,0,0,.049.116A.165.165,0,0,0,116.6,64" transform="translate(36.386 19.896)" fill="#8b5e35"/>
          <path id="Trazado_992920" data-name="Trazado 992920" d="M118.692,65.455v-.071a.168.168,0,0,0-.049-.115.162.162,0,0,0-.231,0,.167.167,0,0,0-.049.115v.071a.166.166,0,0,0,.164.164.16.16,0,0,0,.116-.049.165.165,0,0,0,.049-.115" transform="translate(36.989 20.382)" fill="#8b5e35"/>
          <path id="Trazado_992921" data-name="Trazado 992921" d="M120.862,62.942l-.071.14a.169.169,0,0,0-.016.126.166.166,0,0,0,.075.1.169.169,0,0,0,.126.017.165.165,0,0,0,.1-.076l.071-.14a.169.169,0,0,0,.016-.126.166.166,0,0,0-.075-.1.166.166,0,0,0-.224.059" transform="translate(37.74 19.644)" fill="#8b5e35"/>
          <path id="Trazado_992922" data-name="Trazado 992922" d="M117.873,63.537l-.071.14a.164.164,0,0,0,.058.224.166.166,0,0,0,.127.016.155.155,0,0,0,.1-.075c.025-.047.049-.093.072-.14a.169.169,0,0,0,.016-.126.166.166,0,0,0-.075-.1.166.166,0,0,0-.224.059" transform="translate(36.806 19.83)" fill="#8b5e35"/>
          <path id="Trazado_992923" data-name="Trazado 992923" d="M115.739,65.385v.071a.168.168,0,0,0,.049.115.162.162,0,0,0,.231,0,.168.168,0,0,0,.049-.115v-.071a.166.166,0,0,0-.164-.164.16.16,0,0,0-.115.049.165.165,0,0,0-.049.116" transform="translate(36.168 20.382)" fill="#8b5e35"/>
          <path id="Trazado_992924" data-name="Trazado 992924" d="M120.295,66.084a.164.164,0,0,0,0-.328.164.164,0,0,0,0,.328" transform="translate(37.543 20.549)" fill="#8b5e35"/>
          <path id="Trazado_992925" data-name="Trazado 992925" d="M114.509,64.584a.164.164,0,0,0,0-.328.164.164,0,0,0,0,.328" transform="translate(35.734 20.08)" fill="#8b5e35"/>
          <path id="Trazado_992926" data-name="Trazado 992926" d="M108.337,69.359a1.516,1.516,0,0,1-.2-2.121,3.307,3.307,0,0,1,2.074-1.081,13.207,13.207,0,0,0,2.338-.488c1.585-.622,2.742-2.309,4.443-2.4a3.159,3.159,0,0,1,2.973,2.221,5.236,5.236,0,0,1-.4,3.865,5.155,5.155,0,0,1-1.776,2.159,6.19,6.19,0,0,1-2.951.818,8.5,8.5,0,0,1-4.228-.614,4.393,4.393,0,0,1-2.57-3.246" transform="translate(33.687 19.771)" fill="#b67f49"/>
          <path id="Trazado_992927" data-name="Trazado 992927" d="M113.829,65.293a.164.164,0,0,0,0-.328.164.164,0,0,0,0,.328" transform="translate(35.522 20.302)" fill="#8b5e35"/>
          <path id="Trazado_992928" data-name="Trazado 992928" d="M111.115,66.448h.076a.164.164,0,0,0,0-.328h-.076a.166.166,0,0,0-.164.164A.16.16,0,0,0,111,66.4a.165.165,0,0,0,.115.049" transform="translate(34.672 20.663)" fill="#8b5e35"/>
          <path id="Trazado_992929" data-name="Trazado 992929" d="M113.359,68.035v-.076a.168.168,0,0,0-.049-.115.164.164,0,0,0-.28.115v.076a.166.166,0,0,0,.164.164.16.16,0,0,0,.116-.049.165.165,0,0,0,.049-.116" transform="translate(35.322 21.186)" fill="#8b5e35"/>
          <path id="Trazado_992930" data-name="Trazado 992930" d="M115.723,65.332l-.076.151a.178.178,0,0,0-.017.127.166.166,0,0,0,.076.1.163.163,0,0,0,.126.017.166.166,0,0,0,.1-.075c.025-.051.051-.1.076-.152a.169.169,0,0,0,.016-.126.166.166,0,0,0-.075-.1.166.166,0,0,0-.224.059" transform="translate(36.133 20.391)" fill="#8b5e35"/>
          <path id="Trazado_992931" data-name="Trazado 992931" d="M112.5,65.973c-.026.051-.051.1-.077.152a.174.174,0,0,0-.016.126.166.166,0,0,0,.075.1.169.169,0,0,0,.126.017.174.174,0,0,0,.1-.076c.026-.05.051-.1.077-.151a.17.17,0,0,0,.016-.126.166.166,0,0,0-.075-.1.169.169,0,0,0-.126-.017.166.166,0,0,0-.1.075" transform="translate(35.126 20.592)" fill="#8b5e35"/>
          <path id="Trazado_992932" data-name="Trazado 992932" d="M110.2,67.96v.076a.168.168,0,0,0,.049.116.164.164,0,0,0,.28-.116V67.96a.166.166,0,0,0-.164-.164.16.16,0,0,0-.116.049.165.165,0,0,0-.049.116" transform="translate(34.438 21.187)" fill="#8b5e35"/>
          <path id="Trazado_992933" data-name="Trazado 992933" d="M115.1,68.7a.164.164,0,0,0,0-.328.164.164,0,0,0,0,.328" transform="translate(35.919 21.367)" fill="#8b5e35"/>
          <path id="Trazado_992934" data-name="Trazado 992934" d="M108.862,67.084a.164.164,0,0,0,0-.328.164.164,0,0,0,0,.328" transform="translate(33.97 20.862)" fill="#8b5e35"/>
          <path id="Trazado_992935" data-name="Trazado 992935" d="M119.041,67.474a1.406,1.406,0,0,1-.19-1.966,3.073,3.073,0,0,1,1.923-1,12.284,12.284,0,0,0,2.168-.453c1.471-.577,2.544-2.141,4.121-2.225a2.929,2.929,0,0,1,2.756,2.059,4.861,4.861,0,0,1-.374,3.584,4.779,4.779,0,0,1-1.646,2,5.732,5.732,0,0,1-2.738.757,7.862,7.862,0,0,1-3.92-.57,4.069,4.069,0,0,1-2.382-3.01" transform="translate(37.044 19.32)" fill="#b67f49"/>
          <path id="Trazado_992936" data-name="Trazado 992936" d="M124.137,63.719a.164.164,0,0,0,0-.328.164.164,0,0,0,0,.328" transform="translate(38.743 19.81)" fill="#8b5e35"/>
          <path id="Trazado_992937" data-name="Trazado 992937" d="M121.62,64.79h.071a.168.168,0,0,0,.116-.049.162.162,0,0,0,0-.231.174.174,0,0,0-.116-.049h-.071a.171.171,0,0,0-.116.049.168.168,0,0,0-.049.115.16.16,0,0,0,.049.116.165.165,0,0,0,.116.049" transform="translate(37.955 20.145)" fill="#8b5e35"/>
          <path id="Trazado_992938" data-name="Trazado 992938" d="M123.713,66.251V66.18a.168.168,0,0,0-.049-.115.162.162,0,0,0-.231,0,.168.168,0,0,0-.049.115v.071a.166.166,0,0,0,.164.164.16.16,0,0,0,.116-.049.165.165,0,0,0,.049-.116" transform="translate(38.558 20.63)" fill="#8b5e35"/>
          <path id="Trazado_992939" data-name="Trazado 992939" d="M125.883,63.737l-.071.14A.175.175,0,0,0,125.8,64a.166.166,0,0,0,.075.1.169.169,0,0,0,.126.017.165.165,0,0,0,.1-.076l.071-.14a.169.169,0,0,0,.016-.126.166.166,0,0,0-.075-.1.166.166,0,0,0-.224.059" transform="translate(39.31 19.893)" fill="#8b5e35"/>
          <path id="Trazado_992940" data-name="Trazado 992940" d="M122.894,64.332l-.071.14a.164.164,0,0,0,.058.224.166.166,0,0,0,.127.016.155.155,0,0,0,.1-.075c.025-.047.049-.093.072-.14a.169.169,0,0,0,.016-.126.166.166,0,0,0-.075-.1.166.166,0,0,0-.224.059" transform="translate(38.375 20.079)" fill="#8b5e35"/>
          <path id="Trazado_992941" data-name="Trazado 992941" d="M120.76,66.18v.071a.168.168,0,0,0,.049.116.162.162,0,0,0,.231,0,.168.168,0,0,0,.049-.116V66.18a.166.166,0,0,0-.164-.164.16.16,0,0,0-.116.049.165.165,0,0,0-.049.115" transform="translate(37.737 20.63)" fill="#8b5e35"/>
          <path id="Trazado_992942" data-name="Trazado 992942" d="M125.316,66.88a.164.164,0,0,0,0-.328.164.164,0,0,0,0,.328" transform="translate(39.112 20.798)" fill="#8b5e35"/>
          <path id="Trazado_992943" data-name="Trazado 992943" d="M119.53,65.38a.164.164,0,0,0,0-.328.164.164,0,0,0,0,.328" transform="translate(37.304 20.329)" fill="#8b5e35"/>
          <path id="Trazado_992944" data-name="Trazado 992944" d="M100.932,69.2a5.893,5.893,0,0,1,3.517-.083c1.684.587,1.159,1.3.579,1.441a1.511,1.511,0,0,0,.087,2.684c1.554.827,2.2,4.5,0,4.426s-7.951-2.355-7.951-2.355-1.739-5.163,3.768-6.114" transform="translate(30.282 21.523)" fill="#f9bf64"/>
          <path id="Trazado_992945" data-name="Trazado 992945" d="M100.473,38.1c-.689.965-31.009,33.122-8.269,45.067l9.417,2.756s-2.986-6.2,4.594-7.35c0,0-19.754-3.832-7.12-28.906" transform="translate(26.175 11.906)" fill="#e0d68d"/>
          <path id="Trazado_992946" data-name="Trazado 992946" d="M92.173,59.691s.15-6.884,2.321-9.332-.511,5.816-.511,5.816l.207,2.433-1.832,1.431" transform="translate(28.804 15.596)" fill="#d3c679"/>
          <path id="Trazado_992947" data-name="Trazado 992947" d="M39.633,116.234A90.584,90.584,0,0,0,9.746,45.354l10.035-5.541A5.823,5.823,0,0,1,22.975,38.8c2.534.217,3.542,3.3,4.165,5.767a45.764,45.764,0,0,0,16.22,24.784L47.45,32.724a20.262,20.262,0,0,1,11.343-.616,81.9,81.9,0,0,0-6.119,36.285A51.193,51.193,0,0,1,72.058,53.357a91.141,91.141,0,0,0-14.875,64.326c.366,2.465.717,5.335-1.015,7.128a7.4,7.4,0,0,1-2.8,1.588,60.553,60.553,0,0,1-11.731,3.117" transform="translate(3.046 9.867)" fill="#d18f3f"/>
          <path id="Trazado_992948" data-name="Trazado 992948" d="M51.243,53.6s-8.489,5.522-9.474,10.021,4.737-2.9,4.737-2.9l8.2-9.051" transform="translate(13.017 16.148)" fill="#b77a37"/>
          <path id="Trazado_992949" data-name="Trazado 992949" d="M29.408,54.443c.182.226,7.752,10.673,9.017,17.16s-1.209-9.4-1.209-9.4" transform="translate(9.19 17.014)" fill="#b77a37"/>
          <path id="Trazado_992950" data-name="Trazado 992950" d="M101.163,47.257c-4.5-.13-8.921,1.24-13.045,3.048a9.544,9.544,0,0,0,4.392-6.809,4.124,4.124,0,0,0-.186-1.936A34.732,34.732,0,0,0,104.261,35.6c3.023-2.34,5.766-6.754,3.3-9.67-1.883-2.222-5.376-1.734-8.208-1.05a17.421,17.421,0,0,0,7.627-5.968c1.127-1.567,1.855-4.037.315-5.2a4.015,4.015,0,0,0-2.226-.6,42.208,42.208,0,0,0-17.706,2.758c2.439-1.454,1.935-5.5-.341-7.2S81.6,7.086,78.822,7.7a28.055,28.055,0,0,0-11.574,5.587c1.717-3.154-1.9-6.481-5.012-8.267L55.823,1.341C53.894.235,51.2-.778,49.693.856,48.6,2.037,48.9,3.91,49.426,5.427a22.718,22.718,0,0,0,4.519,7.683A55.041,55.041,0,0,0,31.5,10.557c-1.057.1-2.294.36-2.721,1.332-.539,1.234.635,2.5,1.689,3.336l6.108,4.854L23.923,18.286c-2.376-.337-4.839-.668-7.14.013s-4.4,2.675-4.39,5.074A6.055,6.055,0,0,0,13.507,26.6a10.839,10.839,0,0,0,6.809,4.545,12.761,12.761,0,0,0-2.975.4c-.681,0-1.364.01-2.042.071-1.579.14-3.407.663-3.941,2.154-.48,1.34.343,2.768,1.242,3.882a8.838,8.838,0,0,0,1.379,4.284,2.684,2.684,0,0,0-1.129,2.8,3.721,3.721,0,0,0,1.167,1.608,13.985,13.985,0,0,0,3.43,2.281A14.576,14.576,0,0,0,11.8,47.82,5.383,5.383,0,0,0,8.38,49a2.442,2.442,0,0,0-.36,3.3,2.928,2.928,0,0,0-2.108,1.1l-.035-.22A10.064,10.064,0,0,0,0,62.239a2.973,2.973,0,0,0,.381,1.637c.832,1.253,2.8.907,4.042.053s2.315-2.1,3.8-2.341a44.784,44.784,0,0,0-.8,12.151,4.051,4.051,0,0,0,.718,2.393c1.232,1.448,3.713.576,4.894-.915s1.738-3.44,3.1-4.762c-.709,3.141,2.814,6.137,5.981,5.557s5.365-3.822,5.541-7.036c1.663,2.776,6.011,3,8.491.925s3.21-5.708,2.587-8.883a3.219,3.219,0,0,0,1.622.444,6.022,6.022,0,0,0,4.174,4.145c3.413.8,6.984-1.3,8.949-4.2s2.662-6.457,3.248-9.915c.215,3.444,4.881,5.1,7.984,3.594a4.39,4.39,0,0,0,.028,1.465A2.826,2.826,0,0,0,62.958,57.8a5.468,5.468,0,0,0,.083,4.692,13.544,13.544,0,0,0,10.262,8.3,6.343,6.343,0,0,0,2.227,3.718,5.144,5.144,0,0,0,5.942.592A3.732,3.732,0,0,0,82.966,71.7a7.008,7.008,0,0,0,1.966,1.042c3.873,1.368,8.441,1.8,11.875-.453s4.6-7.918,1.381-10.467c3.23-.265,6.568-1.389,8.619-3.9s2.313-6.615-.056-8.825a8.42,8.42,0,0,0-5.587-1.843m-30.883.269c.085-.251.175-.5.253-.752a6.022,6.022,0,0,0,.182.676,2.827,2.827,0,0,0-.436.076" transform="translate(0 0)" fill="#8aaa27"/>
          <path id="Trazado_992951" data-name="Trazado 992951" d="M43.6,110.127c.43-5.557-2.2-11-5.9-15.167-.915-1.032-2.549-2.03-3.516-1.046a2.253,2.253,0,0,0-.509,1.5,7.4,7.4,0,0,0,1.924,5.3,21.888,21.888,0,0,0-7.707-4.753c-1.194-.427-2.688-.69-3.6.194a2.482,2.482,0,0,0-.374,2.7,6.243,6.243,0,0,0,1.836,2.208,29.052,29.052,0,0,0,5.287,3.577,26.838,26.838,0,0,0-6.4-1.192,4.928,4.928,0,0,0-2.588.349,1.921,1.921,0,0,0-1.071,2.176A2.7,2.7,0,0,0,22.2,107.24,21.952,21.952,0,0,0,34,110.658,6.747,6.747,0,0,0,30.07,111c-1.18.626-1.872,2.335-.992,3.343a2.929,2.929,0,0,0,1.446.781,11.363,11.363,0,0,0,12.727-5.359" transform="translate(6.535 29.222)" fill="#468c20"/>
          <path id="Trazado_992952" data-name="Trazado 992952" d="M46.253,108.916a17.041,17.041,0,0,1-6.421-8.552,8.042,8.042,0,0,1-.173-5.507c.21-.517.643-1.07,1.193-.982.434.07.7.509.882.908a16.157,16.157,0,0,1,1.3,4.289q-.069-1.986-.135-3.974a17.363,17.363,0,0,1,.455-5.8A5.894,5.894,0,0,1,47.182,85.2c.379-.1.86-.11,1.078.215a1.058,1.058,0,0,1,.127.551A21.222,21.222,0,0,1,47,94.392a10.931,10.931,0,0,1,1.7-2.519,2.261,2.261,0,0,1,.954-.714,1.7,1.7,0,0,1,1.927,1.075,4.2,4.2,0,0,1,.085,2.383,17.911,17.911,0,0,1-1.428,4.434c.528-1.016,2.209-.812,2.844.139a3.779,3.779,0,0,1,.095,3.308,10,10,0,0,1-6.372,6.149" transform="translate(12.264 26.608)" fill="#93bf32"/>
          <path id="Trazado_992953" data-name="Trazado 992953" d="M58.3,19.847a1.642,1.642,0,0,0,0-3.281,1.642,1.642,0,0,0,0,3.281" transform="translate(17.723 5.177)" fill="#e5302c"/>
          <path id="Trazado_992954" data-name="Trazado 992954" d="M40.94,17.49a1.642,1.642,0,0,0,0-3.281,1.642,1.642,0,0,0,0,3.281" transform="translate(12.299 4.441)" fill="#e5302c"/>
          <path id="Trazado_992955" data-name="Trazado 992955" d="M60.226,33.347a1.642,1.642,0,0,0,0-3.281,1.642,1.642,0,0,0,0,3.281" transform="translate(18.326 9.396)" fill="#e5302c"/>
          <path id="Trazado_992956" data-name="Trazado 992956" d="M31.512,36.561a1.642,1.642,0,0,0,0-3.281,1.642,1.642,0,0,0,0,3.281" transform="translate(9.352 10.4)" fill="#e5302c"/>
          <path id="Trazado_992957" data-name="Trazado 992957" d="M63.226,49.418a1.642,1.642,0,0,0,0-3.281,1.642,1.642,0,0,0,0,3.281" transform="translate(19.263 14.418)" fill="#e5302c"/>
          <path id="Trazado_992958" data-name="Trazado 992958" d="M18.026,45.347h.28a1.219,1.219,0,0,0,.633-.142,1.68,1.68,0,0,0,1.008-1.5c-.02-.146-.038-.291-.058-.436a1.657,1.657,0,0,0-.421-.725l-.333-.256a1.634,1.634,0,0,0-.828-.224h-.28a1.232,1.232,0,0,0-.633.142,1.687,1.687,0,0,0-1.008,1.5c.018.146.038.291.058.436a1.632,1.632,0,0,0,.421.725c.11.085.223.171.332.256a1.639,1.639,0,0,0,.829.224" transform="translate(5.12 13.146)" fill="#e5302c"/>
        </g>
      </g>
    </g>
  </g>
</svg>
