<svg xmlns="http://www.w3.org/2000/svg" width="84" height="84" viewBox="0 0 84 84">
  <g id="Grupo_1176893" data-name="Grupo 1176893" transform="translate(-706 -2661.42)">
    <rect id="Rectángulo_402006" data-name="Rectángulo 402006" width="84" height="84" rx="5" transform="translate(706 2661.42)" fill="#4d240b"/>
    <g id="Grupo_1177087" data-name="Grupo 1177087" transform="translate(709.204 2669.685)">
      <g id="Grupo_1177085" data-name="Grupo 1177085" transform="translate(62.352 40.267)">
        <path id="Trazado_994010" data-name="Trazado 994010" d="M416.531,271.952h2.221v2.221h-2.221Z" transform="translate(-416.531 -271.952)" fill="#fbaf00"/>
        <path id="Trazado_994011" data-name="Trazado 994011" d="M446.531,271.952h2.221v2.221h-2.221Z" transform="translate(-442.089 -271.952)" fill="#fbaf00"/>
      </g>
      <g id="Grupo_1177086" data-name="Grupo 1177086" transform="translate(0.796 0)">
        <path id="Trazado_994012" data-name="Trazado 994012" d="M13.827,237.368c5.576.091,7.82-4.474,8.5-7.583-1.788-.573-6.637-1.491-9.609,1.995V229.8c3.922-4.8,2.27-9.557-1.382-12.783-3.5,3.375-4.945,8.195-.839,12.809v2.054C7.534,228.3,2.65,229.191.8,229.785c.866,3.893,3.577,8.213,9.7,7.519v4.348c-2.958-3.583-7.843-2.688-9.7-2.095.866,3.893,3.577,8.213,9.7,7.52v4.348c-2.958-3.583-7.843-2.688-9.7-2.095.866,3.893,3.577,8.213,9.7,7.52v3.77h2.221v-3.761c6.1.645,8.755-3.7,9.609-7.528-1.788-.573-6.637-1.491-9.609,1.995v-4.239c6.1.645,8.755-3.7,9.609-7.528-1.788-.573-6.637-1.491-9.609,1.995v-4.239c.33.032.705.055,1.113.055Zm1.822-5.184a6.683,6.683,0,0,1,3.78-.712,5.792,5.792,0,0,1-6.261,3.65,6.683,6.683,0,0,1,2.482-2.938ZM6.172,234.41a6.686,6.686,0,0,1-2.482-2.938,5.792,5.792,0,0,1,6.261,3.65A6.683,6.683,0,0,1,6.172,234.41Zm0,9.772a6.686,6.686,0,0,1-2.482-2.938,5.792,5.792,0,0,1,6.261,3.65A6.683,6.683,0,0,1,6.172,244.183Zm0,9.772a6.686,6.686,0,0,1-2.482-2.938,5.792,5.792,0,0,1,6.261,3.65A6.683,6.683,0,0,1,6.172,253.955Zm9.477-2.226a6.683,6.683,0,0,1,3.78-.712,5.792,5.792,0,0,1-6.261,3.65,6.682,6.682,0,0,1,2.482-2.938Zm0-9.772a6.683,6.683,0,0,1,3.78-.712,5.792,5.792,0,0,1-6.261,3.65,6.683,6.683,0,0,1,2.482-2.938ZM11.4,220.368a5.786,5.786,0,0,1,.161,7.244A5.792,5.792,0,0,1,11.4,220.368Z" transform="translate(-0.796 -184.883)" fill="#fbaf00"/>
        <path id="Trazado_994013" data-name="Trazado 994013" d="M149.372,27.694a9.188,9.188,0,0,0-4.04-2.361v-10.4H158.82v-1.11A6.145,6.145,0,0,0,152.7,7.7h-7.652L142.09,0h-7.581l-2.961,7.7h-2.84V9.923h24a3.912,3.912,0,0,1,3.736,2.785H120.161A3.9,3.9,0,0,1,123.9,9.923h2.591V7.7H123.9a6.124,6.124,0,0,0-6.117,6.117v1.11h13.487V18.7a8.528,8.528,0,0,0,6.027,8.142,9.246,9.246,0,0,0-3.71,7.4V43.9h-6.778a7.006,7.006,0,0,0-4.728,1.831v-3.3c6.1.646,8.755-3.7,9.609-7.528-1.788-.573-6.637-1.491-9.609,1.995V34.917c3.922-4.8,2.27-9.557-1.382-12.783-3.5,3.375-4.945,8.195-.839,12.809V37c-2.958-3.583-7.843-2.688-9.7-2.095.866,3.893,3.577,8.213,9.7,7.519,0,.728.032,8-.084,8.508v1.11h.084v3.331h2.221V52.041h11.506V75.736H135.8V60.583H149.87v2.4c0,2.339-1.555,6.988-1.571,7.034l-.058.173v5.551h2.221v-5.19c.3-.921,1.629-5.12,1.629-7.567v-7h8.252a5.588,5.588,0,0,0,5.423-4.361l.629-2.862-2.169-.477L163.6,51.14a3.355,3.355,0,0,1-2.9,2.6l-8.605-6.682V35.774h14.884l-2.26,10.284,2.169.477,2.583-11.75v-7.09ZM136.034,2.221h4.531L142.672,7.7h-8.745ZM125.013,37.3a6.68,6.68,0,0,1,3.78-.712,5.792,5.792,0,0,1-6.261,3.65,6.682,6.682,0,0,1,2.482-2.938Zm-9.477,2.226a6.684,6.684,0,0,1-2.482-2.938,5.792,5.792,0,0,1,6.261,3.65A6.684,6.684,0,0,1,115.536,39.529Zm5.233-14.045a5.792,5.792,0,0,1,.159,7.246A5.792,5.792,0,0,1,120.769,25.484Zm46.477,8.068H152.063a9.174,9.174,0,0,0-1.043-3.638h16.226ZM133.487,18.7V14.929h9.624V24.992H139.78a6.3,6.3,0,0,1-6.293-6.293ZM135.8,34.246a7.057,7.057,0,0,1,11.076-5.755l-4.838,1.688a4.077,4.077,0,0,0-3.869,4.067V43.9H135.8Zm6.441-1.851a1.853,1.853,0,0,1,1.851,1.851V46.489a3.335,3.335,0,0,1-3.331,3.331H130.359v-3.7h10.036V34.246A1.853,1.853,0,0,1,142.245,32.395Zm-15.44,13.724h1.332v3.7h-6.015A4.821,4.821,0,0,1,126.806,46.119Zm9,12.243v-6.32h4.961a5.559,5.559,0,0,0,5.552-5.552V45.382l3.553,2.759V58.362Zm21.3-4.6h-5.012V49.866ZM146.317,42.57V34.246a4.056,4.056,0,0,0-1.13-2.811l3.43-1.2a6.978,6.978,0,0,1,1.254,4.008V45.329Z" transform="translate(-93.967 0)" fill="#fbaf00"/>
        <path id="Trazado_994014" data-name="Trazado 994014" d="M303.684,438.976H305.9v10.738h-2.221Z" transform="translate(-258.837 -373.979)" fill="#fbaf00"/>
      </g>
    </g>
  </g>
</svg>
