<svg xmlns="http://www.w3.org/2000/svg" width="40.914" height="40.907" viewBox="0 0 40.914 40.907">
  <g id="Grupo_1177221" data-name="Grupo 1177221" transform="translate(0 -0.04)">
    <g id="Grupo_1177214" data-name="Grupo 1177214" transform="translate(5.569 32.814)">
      <g id="Grupo_1177213" data-name="Grupo 1177213">
        <path id="Trazado_994468" data-name="Trazado 994468" d="M71.256,410.772a.8.8,0,1,0-.565.979A.8.8,0,0,0,71.256,410.772Z" transform="translate(-69.685 -410.18)" fill="#02614b"/>
      </g>
    </g>
    <g id="Grupo_1177216" data-name="Grupo 1177216" transform="translate(0 21.978)">
      <g id="Grupo_1177215" data-name="Grupo 1177215" transform="translate(0)">
        <path id="Trazado_994469" data-name="Trazado 994469" d="M40.722,285.386a3.2,3.2,0,0,0-4.051-1.937l-6.619,1.685a3.2,3.2,0,0,0-1.515-3.5L17.23,275.108a3.969,3.969,0,0,0-3.031-.4L7.624,276.47a2.4,2.4,0,0,0-2.4-.71L.592,277a.8.8,0,0,0-.565.979l3.309,12.347a.8.8,0,0,0,.978.565l4.63-1.241a2.412,2.412,0,0,0,1.732-1.863l1.123-.28a2.389,2.389,0,0,1,1.779.252l8.393,4.814a7.153,7.153,0,0,0,5.362.743l.058-.017,11.39-3.819.017-.006A3.2,3.2,0,0,0,40.722,285.386ZM8.531,288.108l-3.858,1.034-2.9-10.8,1.544-.414,1.448,5.4a.8.8,0,0,0,1.543-.414l-1.448-5.4.772-.207a.8.8,0,0,1,.979.565L9.1,287.131A.8.8,0,0,1,8.531,288.108Zm29.733-.138-11.351,3.806a5.565,5.565,0,0,1-4.144-.586l-8.393-4.814a3.978,3.978,0,0,0-2.962-.417l-.916.228-2.208-8.24,6.322-1.694a2.381,2.381,0,0,1,1.819.239l11.307,6.529a1.6,1.6,0,0,1-1.6,2.767l-6.919-3.995a.8.8,0,1,0-.8,1.384l6.919,3.995a3.177,3.177,0,0,0,3.2,0c9.09-2.316,8.566-2.178,8.635-2.2a1.6,1.6,0,0,1,1.092,3Z" transform="translate(0 -274.571)" fill="#02614b"/>
      </g>
    </g>
    <g id="Grupo_1177218" data-name="Grupo 1177218" transform="translate(23.335 0.04)">
      <g id="Grupo_1177217" data-name="Grupo 1177217" transform="translate(0 0)">
        <path id="Trazado_994470" data-name="Trazado 994470" d="M308.123,10.829,301.481.41a.8.8,0,0,0-1.347,0l-6.643,10.42c-3.9,5.847.43,13.9,7.316,13.9C307.677,24.727,312.032,16.693,308.123,10.829Zm-7.316,12.3a7.408,7.408,0,0,1-5.983-11.419l.009-.014,5.973-9.37,5.973,9.37.009.014A7.4,7.4,0,0,1,300.807,23.129Z" transform="translate(-292.019 -0.04)" fill="#02614b"/>
      </g>
    </g>
    <g id="Grupo_1177220" data-name="Grupo 1177220" transform="translate(31.325 12.243)">
      <g id="Grupo_1177219" data-name="Grupo 1177219">
        <path id="Trazado_994471" data-name="Trazado 994471" d="M397.453,153.1a.8.8,0,1,0-1.329.887,3.973,3.973,0,0,1,.668,2.214,4.228,4.228,0,0,1-3.995,4.234.8.8,0,1,0,0,1.6,5.793,5.793,0,0,0,5.592-5.832A5.566,5.566,0,0,0,397.453,153.1Z" transform="translate(-391.999 -152.746)" fill="#02614b"/>
      </g>
    </g>
  </g>
</svg>
