<svg xmlns="http://www.w3.org/2000/svg" xmlns:xlink="http://www.w3.org/1999/xlink" width="33.491" height="42" viewBox="0 0 33.491 42">
  <defs>
    <clipPath id="clip-path">
      <rect id="Rectángulo_454719" data-name="Rectángulo 454719" width="33.491" height="42" transform="translate(451.535 3480)" fill="#02614b" stroke="#02614b" stroke-width="1"/>
    </clipPath>
  </defs>
  <g id="Enmascarar_grupo_1119148" data-name="Enmascarar grupo 1119148" transform="translate(-451.535 -3480)" clip-path="url(#clip-path)">
    <g id="cultivar_1_" data-name="cultivar (1)" transform="translate(447.671 3480.392)">
      <path id="Trazado_994599" data-name="Trazado 994599" d="M23.561,13.522c12.286-.8,13.786-9.44,13.786-9.53a.644.644,0,0,0-.431-.708c-11.275-3.928-16.227.94-14.482,9.5a11.262,11.262,0,0,0-.541,3.484,5.156,5.156,0,0,0-2.833-3.464c-1.957-.753-4.321,0-7.212,2.164a.644.644,0,0,0-.2.779c.2.644,2.267,3.683,5.19,3.542a8.216,8.216,0,0,0,4.6-1.7,4.739,4.739,0,0,1,.451.5V22l-.258.039A3.863,3.863,0,0,0,15,23.322a4.192,4.192,0,0,0-3.413,4.063,3.825,3.825,0,0,0-1.462,1.082L8.068,30.94H5.8a1.932,1.932,0,0,0-1.932,1.932v4.507A1.932,1.932,0,0,0,5.8,39.311H8.371a.644.644,0,0,0,.457-.193l3.561-3.561a2.576,2.576,0,0,1,1.822-.753h7.727a12.408,12.408,0,0,0,8.487-4.334,2.067,2.067,0,0,0,.483-1.359,2.022,2.022,0,0,0-.644-1.494,3.863,3.863,0,0,0-3.863-3.76,3.059,3.059,0,0,0-.5.039,3.863,3.863,0,0,0-2.717-1.932v-5.8a9.755,9.755,0,0,1,.38-2.646ZM29.716,3.181a21.133,21.133,0,0,1,6.227,1.146c-.5,1.726-2.762,7.07-11.906,7.907a9.556,9.556,0,0,1,5.757-5.151.644.644,0,0,0,.47-.792c-.47-1.481-4.237,1.288-5.061,2.1a10.154,10.154,0,0,0-1.745,2.2C23.071,6.613,24.842,3.046,29.716,3.181ZM15.834,17.875a4.907,4.907,0,0,1-2.762-2.2c2.273-1.6,4.173-2.183,5.518-1.668a3.007,3.007,0,0,1,1.372,1.159c-.644-.18-1.932-.824-2.151.174a.644.644,0,0,0,.56.76,5.6,5.6,0,0,1,1.99.644A5.642,5.642,0,0,1,15.834,17.875ZM7.727,38.023H5.8a.644.644,0,0,1-.644-.644V32.872a.644.644,0,0,1,.644-.644H7.727Zm21.719-8.4a11.153,11.153,0,0,1-7.553,3.863H14.211a3.818,3.818,0,0,0-2.73,1.133L9.015,37.109V31.816l2.106-2.524a2.576,2.576,0,0,1,1.977-.927h6.542a.972.972,0,0,1,.863,1.4c-.3.29-.335.528-.863.534H14.81a.644.644,0,0,0,0,1.288h4.829a2.247,2.247,0,0,0,1.578-.644h.728a12.447,12.447,0,0,0,6.439-2.415.773.773,0,0,1,1.062,1.095Zm-4.507-4.765c.258.683,1,.264,1.468.277a2.576,2.576,0,0,1,2.485,1.932c-1.082,0-1.842.959-2.782,1.359a11.1,11.1,0,0,1-4.218,1.23,2.318,2.318,0,0,0-2.254-2.576H12.91A2.9,2.9,0,0,1,15.563,24.5a.644.644,0,0,0,.586-.522,2.576,2.576,0,0,1,4.7-.863c.232.393.683.309,1.043.187v1.829a.644.644,0,1,0,1.288,0V23.3a2.576,2.576,0,0,1,1.751,1.571Z" fill="#02614b"/>
      <path id="Trazado_994600" data-name="Trazado 994600" d="M26.4,21.281a1.932,1.932,0,1,0,1.932-1.932A1.932,1.932,0,0,0,26.4,21.281Zm2.576,0a.644.644,0,1,1-.644-.644A.644.644,0,0,1,28.976,21.281Z" fill="#02614b"/>
    </g>
  </g>
</svg>
