<svg xmlns="http://www.w3.org/2000/svg" xmlns:xlink="http://www.w3.org/1999/xlink" width="42" height="42" viewBox="0 0 42 42">
  <defs>
    <clipPath id="clip-path">
      <rect id="Rectángulo_454640" data-name="Rectángulo 454640" width="42" height="42" transform="translate(1142.711 1191)" fill="#fff" stroke="#707070" stroke-width="1"/>
    </clipPath>
  </defs>
  <g id="Enmascarar_grupo_1119137" data-name="Enmascarar grupo 1119137" transform="translate(-1142.711 -1191)" clip-path="url(#clip-path)">
    <g id="cubeta" transform="translate(1142.777 1190.966)">
      <g id="Grupo_1177131" data-name="Grupo 1177131">
        <path id="Trazado_994155" data-name="Trazado 994155" d="M18.5,21.776H11.636a4.083,4.083,0,0,1-4.083-4.083V6.741H22.588V17.693A4.083,4.083,0,0,1,18.5,21.776Z" fill="#ffb09e"/>
        <path id="Trazado_994156" data-name="Trazado 994156" d="M20.462,6.741V17.693a4.083,4.083,0,0,1-4.083,4.083H18.5a4.083,4.083,0,0,0,4.083-4.083V6.741Z" fill="#ffa78f"/>
        <rect id="Rectángulo_454656" data-name="Rectángulo 454656" width="5.273" height="4.444" transform="translate(12.434 21.776)" fill="#ffa78f"/>
        <rect id="Rectángulo_454657" data-name="Rectángulo 454657" width="2.126" height="4.444" transform="translate(15.581 21.776)" fill="#f89580"/>
        <path id="Trazado_994157" data-name="Trazado 994157" d="M23.8,41.22,14.83,39.065,6.336,41.22v-15H23.8Z" fill="#99e6fc"/>
        <path id="Trazado_994158" data-name="Trazado 994158" d="M23.8,26.22v15l-2.126-.51V26.22Z" fill="#62dbfb"/>
        <rect id="Rectángulo_454658" data-name="Rectángulo 454658" width="17.469" height="7.105" transform="translate(6.336 34.114)" fill="#6c7fd8"/>
        <rect id="Rectángulo_454659" data-name="Rectángulo 454659" width="2.126" height="7.106" transform="translate(21.679 34.114)" fill="#4f66d0"/>
        <path id="Trazado_994159" data-name="Trazado 994159" d="M12.434,26.22H9.725v9.335a1.354,1.354,0,0,0,1.354,1.354h0a1.354,1.354,0,0,0,1.354-1.354Z" fill="#4f66d0"/>
        <path id="Trazado_994160" data-name="Trazado 994160" d="M20.416,26.22H17.707v9.335a1.354,1.354,0,0,0,1.354,1.354h0a1.354,1.354,0,0,0,1.354-1.354V26.22Z" fill="#4f66d0"/>
        <path id="Trazado_994161" data-name="Trazado 994161" d="M.613,41.22H6.336v-15h0A5.723,5.723,0,0,0,.613,31.943Z" fill="#99e6fc"/>
        <path id="Trazado_994162" data-name="Trazado 994162" d="M23.8,34.114l3.3,7.105h6.645l-5.2-11.75A5.084,5.084,0,0,0,23.8,26.22h0Z" fill="#99e6fc"/>
        <path id="Trazado_994163" data-name="Trazado 994163" d="M28.546,29.469A5.084,5.084,0,0,0,23.8,26.22v.467A5.082,5.082,0,0,1,26.42,29.47l5.2,11.75h2.126Z" fill="#62dbfb"/>
        <path id="Trazado_994164" data-name="Trazado 994164" d="M7.553,17.277H6.74a2.129,2.129,0,0,1-2.129-2.129h0A2.129,2.129,0,0,1,6.74,13.019h.813Z" fill="#ffb09e"/>
        <path id="Trazado_994165" data-name="Trazado 994165" d="M20,16.6s-1.34-1.448-4.926-1.448S10.145,16.6,10.145,16.6L7.553,13.019v6.165a3.683,3.683,0,0,0,3.683,3.683h7.669a3.683,3.683,0,0,0,3.683-3.683V13.019Z" fill="#b98080"/>
        <path id="Trazado_994166" data-name="Trazado 994166" d="M22.588,13.019v6.166A3.682,3.682,0,0,1,18.9,22.867H16.779a3.683,3.683,0,0,0,3.683-3.682V15.954Z" fill="#ae6c6c"/>
        <path id="Trazado_994167" data-name="Trazado 994167" d="M7.553,13.019l3.356-4.766a6.1,6.1,0,0,0,6.313,0,4.308,4.308,0,0,0,5.365,0v2.383L25.346,8a4.268,4.268,0,0,0,1.32-3.086h0A4.268,4.268,0,0,0,22.4.648H9.44A1.887,1.887,0,0,0,7.553,2.535h0A1.814,1.814,0,0,0,5.739,4.349V7.716A8.339,8.339,0,0,0,6.984,12.1Z" fill="#b98080"/>
        <path id="Trazado_994168" data-name="Trazado 994168" d="M26.666,4.915A4.269,4.269,0,0,1,25.346,8l-2.758,2.634V8.606L23.22,8A4.268,4.268,0,0,0,20.272.648H22.4a4.267,4.267,0,0,1,4.268,4.268Z" fill="#ae6c6c"/>
        <path id="Trazado_994169" data-name="Trazado 994169" d="M30.569,41.22l1.607-12.214L30.869,26.9,30.5,25.271a1.183,1.183,0,0,1,.842-1.4h0a1.183,1.183,0,0,1,1.3.494l1.015,1.554,6.289-2.031a1,1,0,0,1,1.162.438h0a1,1,0,0,1,.1.78L40.6,27.278a2.437,2.437,0,0,1-1.378,1.576l-2.3,1.005-.358,11.36h-6Z" fill="#ffb09e"/>
        <g id="Grupo_1177130" data-name="Grupo 1177130">
          <path id="Trazado_994170" data-name="Trazado 994170" d="M40.949,24.117a1.02,1.02,0,0,0-1.023-.222l-1.011.326a1.007,1.007,0,0,1,.072.1,1,1,0,0,1,.1.78l-.612,2.172A2.437,2.437,0,0,1,37.1,28.854l-1.664.728a1.1,1.1,0,0,0-.657.971L34.443,41.22h2.126l.358-11.36,2.3-1.005A2.437,2.437,0,0,0,40.6,27.278l.612-2.172A1,1,0,0,0,40.949,24.117Z" fill="#ffa78f"/>
        </g>
        <path id="Trazado_994171" data-name="Trazado 994171" d="M40.33,6.741H23.512a.925.925,0,0,0-.925.925v3.62L24,24.215a2.25,2.25,0,0,0,2.236,2.005H37.6a2.25,2.25,0,0,0,2.236-2.005l1.414-12.929V7.666A.925.925,0,0,0,40.33,6.741Z" fill="#fcd18a"/>
        <path id="Trazado_994172" data-name="Trazado 994172" d="M40.33,6.741h-2.7a.925.925,0,0,1,.925.925v3.62L37.138,24.215A2.25,2.25,0,0,1,34.9,26.22h2.7a2.25,2.25,0,0,0,2.236-2.005l1.413-12.929V7.666A.925.925,0,0,0,40.33,6.741Z" fill="#fbc56d"/>
        <path id="Trazado_994173" data-name="Trazado 994173" d="M37.156,41.22H30.974a.858.858,0,0,1-.858-.858V37.767a.858.858,0,0,1,.858-.858h6.182a.858.858,0,0,1,.858.858v2.594A.858.858,0,0,1,37.156,41.22Z" fill="#c8effe"/>
        <path id="Trazado_994174" data-name="Trazado 994174" d="M37.156,36.91H35.029a.858.858,0,0,1,.858.858v2.594a.858.858,0,0,1-.858.858h2.126a.858.858,0,0,0,.858-.858V37.767A.858.858,0,0,0,37.156,36.91Z" fill="#99e6fc"/>
        <path id="Trazado_994175" data-name="Trazado 994175" d="M24.037,6.741h7.97V6.233a2.145,2.145,0,0,0-2.145-2.145h0v-.3A1.959,1.959,0,0,0,27.9,1.833h0a1.959,1.959,0,0,0-1.715,1.013Z" fill="#80d261"/>
        <path id="Trazado_994176" data-name="Trazado 994176" d="M32.006,6.741h7.97V6.233a2.145,2.145,0,0,0-2.145-2.145h0v-.3a1.959,1.959,0,0,0-1.959-1.959h0a1.959,1.959,0,0,0-1.715,1.013Z" fill="#80d261"/>
        <path id="Trazado_994177" data-name="Trazado 994177" d="M29.861,4.088v-.3A1.959,1.959,0,0,0,27.9,1.833h0a1.957,1.957,0,0,0-1.062.314,1.957,1.957,0,0,1,.9,1.645v.3A2.145,2.145,0,0,1,29.88,6.233v.508h2.126V6.233A2.145,2.145,0,0,0,29.861,4.088Z" fill="#68ca44"/>
        <path id="Trazado_994178" data-name="Trazado 994178" d="M37.831,4.088h0v-.3a1.958,1.958,0,0,0-3.022-1.645,1.957,1.957,0,0,1,.9,1.645v.3h0A2.145,2.145,0,0,1,37.85,6.233v.508h2.126V6.233A2.145,2.145,0,0,0,37.831,4.088Z" fill="#68ca44"/>
      </g>
      <g id="Grupo_1177133" data-name="Grupo 1177133">
        <line id="Línea_3221" data-name="Línea 3221" y1="4.674" transform="translate(7.553 13.019)" fill="none" stroke="#000" stroke-linecap="round" stroke-linejoin="round" stroke-miterlimit="10" stroke-width="1.227"/>
        <path id="Trazado_994179" data-name="Trazado 994179" d="M22.588,17.693V8.253" fill="none" stroke="#000" stroke-linecap="round" stroke-linejoin="round" stroke-miterlimit="10" stroke-width="1.227"/>
        <path id="Trazado_994180" data-name="Trazado 994180" d="M17.707,22.867V26.22H12.433V22.867" fill="none" stroke="#000" stroke-linecap="round" stroke-linejoin="round" stroke-miterlimit="10" stroke-width="1.227"/>
        <path id="Trazado_994181" data-name="Trazado 994181" d="M6.336,41.22v-15H23.8v15" fill="none" stroke="#000" stroke-linecap="round" stroke-linejoin="round" stroke-miterlimit="10" stroke-width="1.227"/>
        <line id="Línea_3222" data-name="Línea 3222" x1="5.273" transform="translate(12.433 34.114)" fill="none" stroke="#000" stroke-linecap="round" stroke-linejoin="round" stroke-miterlimit="10" stroke-width="1.227"/>
        <path id="Trazado_994182" data-name="Trazado 994182" d="M20.416,34.114H23.8V41.22" fill="none" stroke="#000" stroke-linecap="round" stroke-linejoin="round" stroke-miterlimit="10" stroke-width="1.227"/>
        <path id="Trazado_994183" data-name="Trazado 994183" d="M6.336,41.22V34.114H9.725" fill="none" stroke="#000" stroke-linecap="round" stroke-linejoin="round" stroke-miterlimit="10" stroke-width="1.227"/>
        <path id="Trazado_994184" data-name="Trazado 994184" d="M9.725,29.1v6.455a1.354,1.354,0,0,0,1.354,1.354h0a1.354,1.354,0,0,0,1.354-1.354V26.22H9.725" fill="none" stroke="#000" stroke-linecap="round" stroke-linejoin="round" stroke-miterlimit="10" stroke-width="1.227"/>
        <path id="Trazado_994185" data-name="Trazado 994185" d="M20.416,26.22H17.707v9.335a1.354,1.354,0,0,0,1.354,1.354h0a1.354,1.354,0,0,0,1.354-1.354V26.22Z" fill="none" stroke="#000" stroke-linecap="round" stroke-linejoin="round" stroke-miterlimit="10" stroke-width="1.227"/>
        <path id="Trazado_994186" data-name="Trazado 994186" d="M6.336,41.22v-15h0A5.723,5.723,0,0,0,.613,31.943V41.22" fill="none" stroke="#000" stroke-linecap="round" stroke-linejoin="round" stroke-miterlimit="10" stroke-width="1.227"/>
        <path id="Trazado_994187" data-name="Trazado 994187" d="M31.3,35.681,28.546,29.47A5.083,5.083,0,0,0,23.8,26.22v7.893l3.3,7.106" fill="none" stroke="#000" stroke-linecap="round" stroke-linejoin="round" stroke-miterlimit="10" stroke-width="1.227"/>
        <path id="Trazado_994188" data-name="Trazado 994188" d="M7.553,17.277H6.74a2.129,2.129,0,0,1-2.129-2.129h0A2.129,2.129,0,0,1,6.74,13.019h.813Z" fill="none" stroke="#000" stroke-linecap="round" stroke-linejoin="round" stroke-miterlimit="10" stroke-width="1.227"/>
        <line id="Línea_3223" data-name="Línea 3223" y2="1.875" transform="translate(15.07 13.273)" fill="none" stroke="#000" stroke-linecap="round" stroke-linejoin="round" stroke-miterlimit="10" stroke-width="1.227"/>
        <path id="Trazado_994189" data-name="Trazado 994189" d="M13.519,17.668a3.41,3.41,0,0,0,3.1,0" fill="none" stroke="#000" stroke-linecap="round" stroke-linejoin="round" stroke-miterlimit="10" stroke-width="1.227"/>
        <path id="Trazado_994190" data-name="Trazado 994190" d="M20,16.6s-1.34-1.448-4.926-1.448S10.145,16.6,10.145,16.6L7.553,13.019v6.165a3.683,3.683,0,0,0,3.683,3.683h7.669a3.683,3.683,0,0,0,3.683-3.683V13.019Z" fill="none" stroke="#000" stroke-linecap="round" stroke-linejoin="round" stroke-miterlimit="10" stroke-width="1.227"/>
        <path id="Trazado_994191" data-name="Trazado 994191" d="M22.588,10.636V8.253a4.307,4.307,0,0,1-5.365,0,6.1,6.1,0,0,1-6.314,0L7.553,13.019l-.57-.921A8.339,8.339,0,0,1,5.739,7.715V4.349A1.815,1.815,0,0,1,7.553,2.535,1.887,1.887,0,0,1,9.44.648H22.4A4.269,4.269,0,0,1,26.158,2.9" fill="none" stroke="#000" stroke-linecap="round" stroke-linejoin="round" stroke-miterlimit="10" stroke-width="1.227"/>
        <line id="Línea_3224" data-name="Línea 3224" x2="3.936" transform="translate(13.103 38.688)" fill="none" stroke="#000" stroke-linecap="round" stroke-linejoin="round" stroke-miterlimit="10" stroke-width="1.227"/>
        <path id="Trazado_994192" data-name="Trazado 994192" d="M30.716,26.22l.153.679,1.307,2.106-1.04,7.9" fill="none" stroke="#000" stroke-linecap="round" stroke-linejoin="round" stroke-miterlimit="10" stroke-width="1.227"/>
        <path id="Trazado_994193" data-name="Trazado 994193" d="M39.873,23.913l.079-.025a1,1,0,0,1,1.265,1.218L40.6,27.278a2.436,2.436,0,0,1-1.379,1.576l-2.3,1-.222,7.05" fill="none" stroke="#000" stroke-linecap="round" stroke-linejoin="round" stroke-miterlimit="10" stroke-width="1.227"/>
        <path id="Trazado_994194" data-name="Trazado 994194" d="M41.254,11.286H22.588V7.666a.925.925,0,0,1,.925-.925H40.33a.925.925,0,0,1,.925.925Z" fill="none" stroke="#000" stroke-linecap="round" stroke-linejoin="round" stroke-miterlimit="10" stroke-width="1.227"/>
        <path id="Trazado_994195" data-name="Trazado 994195" d="M40.193,20.992l1.061-9.706H22.588L24,24.215a2.25,2.25,0,0,0,2.236,2.005H37.6a2.25,2.25,0,0,0,2.236-2.005l.032-.3" fill="none" stroke="#000" stroke-linecap="round" stroke-linejoin="round" stroke-miterlimit="10" stroke-width="1.227"/>
        <path id="Trazado_994196" data-name="Trazado 994196" d="M37.156,41.22H30.974a.858.858,0,0,1-.858-.858V37.767a.858.858,0,0,1,.858-.858h6.182a.858.858,0,0,1,.858.858v2.594A.858.858,0,0,1,37.156,41.22Z" fill="none" stroke="#000" stroke-linecap="round" stroke-linejoin="round" stroke-miterlimit="10" stroke-width="1.227"/>
        <g id="Grupo_1177132" data-name="Grupo 1177132">
          <line id="Línea_3225" data-name="Línea 3225" x2="0.812" y2="14.934" transform="translate(28.778 11.286)" fill="none" stroke="#000" stroke-linecap="round" stroke-linejoin="round" stroke-miterlimit="10" stroke-width="1.227"/>
          <line id="Línea_3226" data-name="Línea 3226" x1="0.812" y2="14.934" transform="translate(34.57 11.286)" fill="none" stroke="#000" stroke-linecap="round" stroke-linejoin="round" stroke-miterlimit="10" stroke-width="1.227"/>
        </g>
        <path id="Trazado_994197" data-name="Trazado 994197" d="M24.037,6.741h7.97V6.233a2.145,2.145,0,0,0-2.145-2.145h0v-.3A1.959,1.959,0,0,0,27.9,1.833h0a1.959,1.959,0,0,0-1.715,1.013Z" fill="none" stroke="#000" stroke-linecap="round" stroke-linejoin="round" stroke-miterlimit="10" stroke-width="1.227"/>
        <path id="Trazado_994198" data-name="Trazado 994198" d="M32.006,6.741h7.97V6.233a2.145,2.145,0,0,0-2.145-2.145h0v-.3a1.959,1.959,0,0,0-1.959-1.959h0a1.959,1.959,0,0,0-1.715,1.013Z" fill="none" stroke="#000" stroke-linecap="round" stroke-linejoin="round" stroke-miterlimit="10" stroke-width="1.227"/>
        <line id="Línea_3227" data-name="Línea 3227" transform="translate(25.843 13.719)" fill="none" stroke="#000" stroke-linecap="round" stroke-linejoin="round" stroke-miterlimit="10" stroke-width="1.227"/>
        <line id="Línea_3228" data-name="Línea 3228" transform="translate(26.786 23.629)" fill="none" stroke="#000" stroke-linecap="round" stroke-linejoin="round" stroke-miterlimit="10" stroke-width="1.227"/>
        <line id="Línea_3229" data-name="Línea 3229" transform="translate(37.316 23.629)" fill="none" stroke="#000" stroke-linecap="round" stroke-linejoin="round" stroke-miterlimit="10" stroke-width="1.227"/>
        <line id="Línea_3230" data-name="Línea 3230" transform="translate(38.069 13.719)" fill="none" stroke="#000" stroke-linecap="round" stroke-linejoin="round" stroke-miterlimit="10" stroke-width="1.227"/>
      </g>
    </g>
  </g>
</svg>
