<svg xmlns="http://www.w3.org/2000/svg" xmlns:xlink="http://www.w3.org/1999/xlink" width="33.491" height="42" viewBox="0 0 33.491 42">
  <defs>
    <clipPath id="clip-path">
      <rect id="Rectángulo_454721" data-name="Rectángulo 454721" width="33.491" height="42" transform="translate(700.325 3480)" fill="#02614b" stroke="#707070" stroke-width="1"/>
    </clipPath>
  </defs>
  <g id="Enmascarar_grupo_1119149" data-name="Enmascarar grupo 1119149" transform="translate(-700.325 -3480)" clip-path="url(#clip-path)">
    <g id="manzana" transform="translate(693.959 3478.967)">
      <path id="Trazado_994601" data-name="Trazado 994601" d="M12.126,34.983a.664.664,0,0,0-.2.1.686.686,0,0,0-.249.787c.069.192,1.715,4.732,5.494,6.487a7.162,7.162,0,0,0,3.045.673,8.682,8.682,0,0,0,2.894-.525,7.651,7.651,0,0,0,5.94-.148c3.783-1.753,5.427-6.3,5.494-6.487a.686.686,0,0,0-.45-.886c-.265-.08-6.417-2.005-6.393-8.279.022-6.056,6.089-7.495,6.347-7.553v-.005a.67.67,0,0,0,.5-.892c-.069-.193-1.711-4.732-5.494-6.487a7.439,7.439,0,0,0-5.139-.394c.046-.287.11-.621.2-.982a4.861,4.861,0,0,0,.163-.606c.549-1.856,1.721-4.11,4.22-4.6l-.268-1.347a6.222,6.222,0,0,0-4.149,2.979c-.036-.121-.065-.239-.108-.363-1.483-4.28-6.219-5.356-6.42-5.4a.691.691,0,0,0-.777.4c-.08.189-1.948,4.673.68,8.36a7.205,7.205,0,0,0,1.324,1.438,7.247,7.247,0,0,0-1.6.521c-3.782,1.753-5.426,6.295-5.494,6.487a.686.686,0,0,0,.249.787.664.664,0,0,0,.25.1v.006c.064.014,6.323,1.473,6.346,7.552.022,6.269-6.129,8.2-6.395,8.276Zm16.341,6.132a6.415,6.415,0,0,1-5.114.019.686.686,0,0,0-.486,0,6.416,6.416,0,0,1-5.114-.019,9.281,9.281,0,0,1-3.811-3.73,5.321,5.321,0,0,0,5.35-.857c.189.137.381.261.575.378a6.343,6.343,0,0,0,6.484,0c.194-.117.386-.243.576-.378a5.324,5.324,0,0,0,5.35.857,9.285,9.285,0,0,1-3.808,3.73ZM17.832,2.561c1.193.405,3.887,1.6,4.835,4.337a5.032,5.032,0,0,1,.282,2.483q-.1.353-.182.686a2.871,2.871,0,0,1-.575.946c-.486.069-2.126.117-3.629-2C16.88,6.653,17.469,3.772,17.832,2.561Zm-.078,10.447a6.411,6.411,0,0,1,5.114-.019.676.676,0,0,0,.486,0,6.415,6.415,0,0,1,5.114.019,9.281,9.281,0,0,1,3.811,3.73,5.328,5.328,0,0,0-5.35.857q-.285-.206-.575-.378a6.341,6.341,0,0,0-6.485,0c-.193.117-.386.243-.575.378a5.323,5.323,0,0,0-5.35-.857,9.281,9.281,0,0,1,3.807-3.73ZM19.889,26.7c-.019-5.2-3.875-7.52-6.02-8.411a4.007,4.007,0,0,1,4.874.65.686.686,0,0,0,.944.077,7.977,7.977,0,0,1,.889-.624,4.952,4.952,0,0,1,5.068,0,7.861,7.861,0,0,1,.887.624.69.69,0,0,0,.942-.075,4.009,4.009,0,0,1,4.875-.653c-2.145.892-6,3.215-6.02,8.411-.021,5.424,4,8.069,6.114,9.083a4.016,4.016,0,0,1-4.968-.6.686.686,0,0,0-.944-.077,7.9,7.9,0,0,1-.888.624,4.951,4.951,0,0,1-5.068,0,8.069,8.069,0,0,1-.887-.624.69.69,0,0,0-.942.075,4.018,4.018,0,0,1-4.97.6c2.111-1.015,6.134-3.66,6.113-9.084Z" fill="#02614b"/>
      <path id="Trazado_994602" data-name="Trazado 994602" d="M22.423,25.487h1.372v3.9H22.423Z" fill="#02614b"/>
    </g>
  </g>
</svg>
