<svg xmlns="http://www.w3.org/2000/svg" xmlns:xlink="http://www.w3.org/1999/xlink" width="104" height="104" viewBox="0 0 104 104">
  <defs>
    <clipPath id="clip-path">
      <rect id="Rectángulo_454588" data-name="Rectángulo 454588" width="96" height="96" transform="translate(745.746 9172)" fill="#fff" stroke="#707070" stroke-width="1"/>
    </clipPath>
  </defs>
  <g id="Grupo_1177223" data-name="Grupo 1177223" transform="translate(-741.746 -9168)">
    <path id="Elipse_5729" data-name="Elipse 5729" d="M52,0A52,52,0,1,1,0,52,52,52,0,0,1,52,0Z" transform="translate(741.746 9168)" fill="#02614b"/>
    <g id="Enmascarar_grupo_1119142" data-name="Enmascarar grupo 1119142" clip-path="url(#clip-path)">
      <g id="analisis-ambiental" transform="translate(742.546 9168.8)">
        <path id="Trazado_994473" data-name="Trazado 994473" d="M55.167,11.851h9.307a9.944,9.944,0,0,1,9.918,9.918V35.238A18.22,18.22,0,0,1,83.846,62.9a2.713,2.713,0,0,1,.581,2.142l3.731,4.4a2.769,2.769,0,0,1,2.809.905l7.407,8.8h.005a3.5,3.5,0,0,1-.43,4.934v0l-3.082,2.586a3.508,3.508,0,0,1-4.941-.433l-7.4-8.8,0,0a2.779,2.779,0,0,1-.387-2.97l-3.73-4.4a2.716,2.716,0,0,1-1.978-.942,18.118,18.118,0,0,1-2.033.788V87.3a9.944,9.944,0,0,1-9.918,9.918H13.118A9.944,9.944,0,0,1,3.2,87.3V21.769a9.944,9.944,0,0,1,9.918-9.918h9.307V10.7A1.278,1.278,0,0,1,23.7,9.424h7.244c1.207-2.818,4.678-4.241,7.849-4.241s6.643,1.423,7.849,4.241h7.244A1.278,1.278,0,0,1,55.166,10.7v1.15Z" fill-rule="evenodd"/>
        <path id="Trazado_994474" data-name="Trazado 994474" d="M22.425,19.838H13.118a1.939,1.939,0,0,0-1.931,1.931V87.3a1.94,1.94,0,0,0,1.931,1.931H64.474A1.94,1.94,0,0,0,66.4,87.3V70.624q-.535-.072-1.065-.176a18.124,18.124,0,0,1-10.349-6.059l-.013-.013h0l-.071-.084a18.188,18.188,0,0,1,2.126-25.562l.014-.014h0A18.137,18.137,0,0,1,66.4,34.535V21.769a1.939,1.939,0,0,0-1.931-1.931H55.167v1.124a1.278,1.278,0,0,1-1.278,1.278H23.7a1.278,1.278,0,0,1-1.278-1.278V19.838Zm15.341,6.677a1.275,1.275,0,0,1,2.059,0q20.293,22.726.248,35.746v3.769a1.278,1.278,0,1,1-2.555,0V62.261q-20.046-13.019.248-35.746ZM18.055,73.993a1.278,1.278,0,1,1,0-2.555h.388a1.278,1.278,0,1,1,0,2.555Zm4.984,0a1.278,1.278,0,1,1,0-2.555h36.5a1.278,1.278,0,1,1,0,2.555Zm-4.984,8.519a1.278,1.278,0,1,1,0-2.555h.388a1.278,1.278,0,1,1,0,2.555Zm4.984,0a1.278,1.278,0,1,1,0-2.555h36.5a1.278,1.278,0,1,1,0,2.555Z" fill="#e6e6e6" fill-rule="evenodd"/>
        <path id="Trazado_994475" data-name="Trazado 994475" d="M22.425,19.838H13.118a1.927,1.927,0,0,0-1.394.6,45.685,45.685,0,0,0,15.92,28.114Q26.621,39,37.766,26.515a1.275,1.275,0,0,1,2.059,0q16.968,19,5.732,31.217a45.612,45.612,0,0,0,6.194,1.132,18.2,18.2,0,0,1,5.282-20.135l.014-.014h0A18.137,18.137,0,0,1,66.4,34.536V21.769a1.939,1.939,0,0,0-1.931-1.931H55.167v1.124a1.278,1.278,0,0,1-1.278,1.278H23.7a1.278,1.278,0,0,1-1.278-1.278V19.838Z" fill="#fff" fill-rule="evenodd"/>
        <path id="Trazado_994476" data-name="Trazado 994476" d="M67.717,68.195c.036,0,.072,0,.108.007a15.623,15.623,0,0,0,8.337-1.777,1.275,1.275,0,0,1,1.625.379l.559.665a.2.2,0,0,0,.252.023l3.169-2.663h0c.172-.172.21-.177.027-.417l-.537-.639a1.272,1.272,0,0,1-.031-1.6l0,0a15.653,15.653,0,1,0-24.436.4,1.243,1.243,0,0,1,.147.175,15.651,15.651,0,0,0,10.786,5.449ZM59.709,43.333a13.1,13.1,0,1,1,0,18.522A13.1,13.1,0,0,1,59.709,43.333Z" fill="#f2aa24" fill-rule="evenodd"/>
        <path id="Trazado_994477" data-name="Trazado 994477" d="M84.3,50.07A15.658,15.658,0,1,0,54.6,59.1q1.156.058,2.327.059c.233,0,.466-.005.7-.009a13.1,13.1,0,1,1,24.405-7.493Q83.19,50.9,84.3,50.07Z" fill="#ffc447" fill-rule="evenodd"/>
        <path id="Trazado_994478" data-name="Trazado 994478" d="M68.96,70.787V87.3a4.5,4.5,0,0,1-4.486,4.486H13.118A4.5,4.5,0,0,1,8.632,87.3V21.769a4.5,4.5,0,0,1,4.486-4.486h9.307V14.406H13.118a7.388,7.388,0,0,0-7.363,7.363V87.3a7.388,7.388,0,0,0,7.363,7.363H64.474A7.388,7.388,0,0,0,71.837,87.3V70.542a18.225,18.225,0,0,1-2.877.246Z" fill="#6db2e3" fill-rule="evenodd"/>
        <path id="Trazado_994479" data-name="Trazado 994479" d="M11.383,17.634a4.452,4.452,0,0,1,1.735-.35h9.307V14.406H13.118a7.3,7.3,0,0,0-1.913.255q.042,1.5.178,2.973Z" fill="#8cccfe" fill-rule="evenodd"/>
        <path id="Trazado_994480" data-name="Trazado 994480" d="M55.167,17.283h9.307a4.5,4.5,0,0,1,4.486,4.486v12.6a18.174,18.174,0,0,1,2.877.248V21.769a7.388,7.388,0,0,0-7.363-7.363H55.167v2.877Z" fill="#8cccfe" fill-rule="evenodd"/>
        <path id="Trazado_994481" data-name="Trazado 994481" d="M31.881,11.979h-6.9v7.706H52.612V11.979h-6.9v0a1.273,1.273,0,0,1-1.253-1.048c-.508-2.816-6.095-4.319-9.6-2.168a3.491,3.491,0,0,0-1.705,2.082,1.278,1.278,0,0,1-1.27,1.139Z" fill="#5aa1d8" fill-rule="evenodd"/>
        <circle id="Elipse_13665" data-name="Elipse 13665" cx="10.542" cy="10.542" r="10.542" transform="translate(58.428 42.052)" fill="#96c9f2"/>
        <g id="Grupo_1177227" data-name="Grupo 1177227">
          <path id="Trazado_994482" data-name="Trazado 994482" d="M68.97,42.052A10.542,10.542,0,0,0,60.605,59.01a45.463,45.463,0,0,0,18.888-5.8c.012-.2.019-.411.019-.618A10.542,10.542,0,0,0,68.97,42.052Z" fill="#b9e0ff" fill-rule="evenodd"/>
          <path id="Trazado_994483" data-name="Trazado 994483" d="M45.244,38.726l-5.17,5.17v5.9L46.8,43.069a22.456,22.456,0,0,0-1.561-4.343Z" fill="#5cab45" fill-rule="evenodd"/>
          <path id="Trazado_994484" data-name="Trazado 994484" d="M37.518,43.9l-5.17-5.17a22.458,22.458,0,0,0-1.561,4.343L37.518,49.8Z" fill="#5cab45" fill-rule="evenodd"/>
          <path id="Trazado_994485" data-name="Trazado 994485" d="M33.6,36.361l3.922,3.922V30.738A45.529,45.529,0,0,0,33.6,36.361Z" fill="#5cab45" fill-rule="evenodd"/>
          <path id="Trazado_994486" data-name="Trazado 994486" d="M40.074,40.283,44,36.361a45.525,45.525,0,0,0-3.922-5.623v9.545Z" fill="#5cab45" fill-rule="evenodd"/>
          <path id="Trazado_994487" data-name="Trazado 994487" d="M47.251,46.236l-7.177,7.177v5.744q7.454-5.483,7.177-12.921Z" fill="#4c9137" fill-rule="evenodd"/>
          <path id="Trazado_994488" data-name="Trazado 994488" d="M47.251,46.236l-7.177,7.177v2.537q1.306.518,2.652.955a13.882,13.882,0,0,0,4.525-10.669Z" fill="#5cab45" fill-rule="evenodd"/>
          <path id="Trazado_994489" data-name="Trazado 994489" d="M37.518,53.413l-7.177-7.177q-.276,7.438,7.177,12.921Z" fill="#4c9137" fill-rule="evenodd"/>
          <path id="Trazado_994490" data-name="Trazado 994490" d="M37.518,53.413l-7.177-7.177a13.115,13.115,0,0,0,.736,4.917,45.722,45.722,0,0,0,6.441,3.69Z" fill="#5cab45" fill-rule="evenodd"/>
          <path id="Trazado_994491" data-name="Trazado 994491" d="M88.7,71.967,84.494,75.5l0,0a.236.236,0,0,0-.022.313l0,0,7.406,8.8a.98.98,0,0,0,1.357.114l3.082-2.586,0,0a.971.971,0,0,0,.108-1.348l0,0-7.4-8.8A.241.241,0,0,0,88.7,71.967Z" fill="#f2aa24" fill-rule="evenodd"/>
          <path id="Trazado_994492" data-name="Trazado 994492" d="M83.921,72.648l2.107-1.768L82.9,67.193,80.8,68.963Z" fill="#f2aa24" fill-rule="evenodd"/>
        </g>
      </g>
    </g>
  </g>
</svg>
