<svg xmlns="http://www.w3.org/2000/svg" xmlns:xlink="http://www.w3.org/1999/xlink" width="104" height="104" viewBox="0 0 104 104">
  <defs>
    <clipPath id="clip-path">
      <rect id="Rectángulo_454588" data-name="Rectángulo 454588" width="96" height="96" transform="translate(745.746 9172)" fill="#fff" stroke="#707070" stroke-width="1"/>
    </clipPath>
  </defs>
  <g id="Grupo_1176969" data-name="Grupo 1176969" transform="translate(-741.746 -9168)">
    <path id="Elipse_5729" data-name="Elipse 5729" d="M52,0A52,52,0,1,1,0,52,52,52,0,0,1,52,0Z" transform="translate(741.746 9168)" fill="#02614b"/>
    <g id="Enmascarar_grupo_1119143" data-name="Enmascarar grupo 1119143" clip-path="url(#clip-path)">
      <g id="tierra" transform="translate(746.319 9172.59)">
        <g id="Grupo_1177228" data-name="Grupo 1177228">
          <path id="Trazado_994493" data-name="Trazado 994493" d="M10.644,32.27,9.517,30.082C6.6,24.1,8.381,17.682,14.358,14.767A17.1,17.1,0,0,0,16.219,13.6a12.061,12.061,0,0,1,11.487,3.058s1.019,3.207,1.638,4.476L25.16,27.641Z" fill="#fee97d"/>
          <path id="Trazado_994494" data-name="Trazado 994494" d="M30.09,19.969l-4.3,6.692-.63.98L9.572,32.715,8.444,30.527A10.208,10.208,0,0,1,7.4,27.339a12.048,12.048,0,0,1,6.584-12.914,11.9,11.9,0,0,1,2.231-.828,12.055,12.055,0,0,0-4.5,10.531.934.934,0,0,0,1.029.838,8.131,8.131,0,0,1,.963-.038.713.713,0,0,0,.561-.254,10.688,10.688,0,0,1,7.781-3.764.748.748,0,0,0,.565-.285,13.372,13.372,0,0,1,5.086-3.969A11.96,11.96,0,0,1,30.09,19.969Z" fill="#ffdc6e"/>
          <path id="Trazado_994495" data-name="Trazado 994495" d="M7.527,27.944c.048.2.1.4.157.6C7.625,28.348,7.573,28.146,7.527,27.944Z" fill="#ffdc6e"/>
          <path id="Trazado_994496" data-name="Trazado 994496" d="M3.025,32.715l1.81-.335a9.022,9.022,0,0,0,5.765-2,5.215,5.215,0,0,1,4.312-1.1,1.783,1.783,0,0,0,1.829-.8,7.212,7.212,0,0,1,6.076-3.32q.325,0,.643.028a1.823,1.823,0,0,0,1.711-.823,9.927,9.927,0,0,1,9.926-4.49,1.777,1.777,0,0,0,1.665-.635A9.456,9.456,0,0,1,44.2,15.322,12.5,12.5,0,0,1,49.883,16.6c.23.162.416.306.631.487a1.8,1.8,0,0,0,1.808.309,11.114,11.114,0,0,1,11.43,2.051,1.781,1.781,0,0,0,1.857.309A9.926,9.926,0,0,1,77.7,23.547a1.884,1.884,0,0,0,1.578.874h.016A7.214,7.214,0,0,1,85.278,27.6a9.519,9.519,0,0,0,7.483,4.035.736.736,0,0,1,.7.74V37.2L50.216,41.127,1.39,37.2l.893-3.741A.741.741,0,0,1,3.025,32.715Z" fill="#c1e9af"/>
          <path id="Trazado_994497" data-name="Trazado 994497" d="M49.884,16.6a9.849,9.849,0,0,0-7.378,3.757,1.779,1.779,0,0,1-1.665.635,9.93,9.93,0,0,0-9.926,4.489A1.826,1.826,0,0,1,29.2,26.3c-.211-.019-.426-.03-.643-.03a7.211,7.211,0,0,0-6.075,3.322,1.784,1.784,0,0,1-1.828.8,5.328,5.328,0,0,0-.995-.094,5.192,5.192,0,0,0-3.318,1.193,9.022,9.022,0,0,1-5.765,2h0A3.075,3.075,0,0,0,7.5,36.566v3.628l-6.114-3V32.379a.741.741,0,0,1,.741-.741H4.465a9.022,9.022,0,0,0,5.765-2,5.192,5.192,0,0,1,3.318-1.193,5.328,5.328,0,0,1,.995.094,1.784,1.784,0,0,0,1.828-.8,7.211,7.211,0,0,1,6.075-3.322c.217,0,.432.009.643.03a1.826,1.826,0,0,0,1.712-.824,9.93,9.93,0,0,1,9.926-4.489,1.779,1.779,0,0,0,1.665-.635,9.9,9.9,0,0,1,7.753-3.735A9.723,9.723,0,0,1,49.884,16.6Z" fill="#ade194"/>
          <path id="Trazado_994498" data-name="Trazado 994498" d="M3.086,38.416,7.5,37.2H93.462v5.413L50.216,45.268,1.389,42.609Z" fill="#b56e5a"/>
          <path id="Trazado_994499" data-name="Trazado 994499" d="M78.1,76.1l-6.573,5.548H35.214L29.449,76.1l23.016-3.527Z" fill="#b56e5a"/>
          <path id="Trazado_994500" data-name="Trazado 994500" d="M3.713,42.609V64.4L25.078,76.1H78.1L93.463,63.132V56.515l-.878-3.3.878-.767V42.609Z" fill="#c38678"/>
          <path id="Trazado_994501" data-name="Trazado 994501" d="M7.5,37.2v5.413L4.027,45.268,1.389,42.609V37.2Z" fill="#a8604f"/>
          <path id="Trazado_994502" data-name="Trazado 994502" d="M7.5,42.609V66.48L1.389,63.132V56.515l1.487-3.557-1.487-.505V42.609Z" fill="#b56e5a"/>
          <path id="Trazado_994503" data-name="Trazado 994503" d="M23.478,81.649H35.127a3.63,3.63,0,0,0,3.642-3.607,3.557,3.557,0,0,0-2.662-3.391.54.54,0,0,1-.393-.4A4.459,4.459,0,0,0,29.361,71.3L27.592,72.39Z" fill="#9ddd7f"/>
          <path id="Trazado_994504" data-name="Trazado 994504" d="M93.462,63.133s-1.468-3.14-6.18-3.14a6.163,6.163,0,0,0-4.643,2.1.369.369,0,0,1-.434.083,8.336,8.336,0,0,0-11.693,6.005.376.376,0,0,1-.3.3,6.649,6.649,0,0,0-5.338,6.5,6.782,6.782,0,0,0,6.785,6.664H83.334l8.309-1.6a.741.741,0,0,0,.741-.741l1.078-9.626V63.133Z" fill="#ade194"/>
          <path id="Trazado_994505" data-name="Trazado 994505" d="M1.391,63.133s1.429-3.14,6.18-3.14A6.161,6.161,0,0,1,12.131,62a.535.535,0,0,0,.614.13,8.337,8.337,0,0,1,11.578,5.958.53.53,0,0,0,.409.411,6.649,6.649,0,0,1,5.244,6.482,6.782,6.782,0,0,1-6.785,6.664H13.039L3.086,80.524a.741.741,0,0,1-.741-.741l-.954-10.7Z" fill="#ade194"/>
          <path id="Trazado_994506" data-name="Trazado 994506" d="M16.681,78.042a3.63,3.63,0,0,1-3.642,3.607H2.131a.741.741,0,0,1-.741-.741V69.081A4.858,4.858,0,0,1,7.9,70.642a.554.554,0,0,0,.579.24,4.656,4.656,0,0,1,5.154,3.354.546.546,0,0,0,.4.419A3.557,3.557,0,0,1,16.681,78.042Z" fill="#c1e9af"/>
          <path id="Trazado_994507" data-name="Trazado 994507" d="M83.334,81.649a4.44,4.44,0,1,1,.719-8.822.37.37,0,0,0,.421-.273,5.558,5.558,0,0,1,8.988-2.869V80.908a.741.741,0,0,1-.741.741H83.334Z" fill="#c1e9af"/>
        </g>
        <g id="Grupo_1177229" data-name="Grupo 1177229">
          <path id="Trazado_994508" data-name="Trazado 994508" d="M13.269,14.806q.351-.2.72-.381A12.042,12.042,0,0,1,29.847,19.5" fill="none" stroke="#000" stroke-linecap="round" stroke-linejoin="round" stroke-miterlimit="10" stroke-width="2.779"/>
          <path id="Trazado_994509" data-name="Trazado 994509" d="M8.444,30.526a12.028,12.028,0,0,1,.314-11.16" fill="none" stroke="#000" stroke-linecap="round" stroke-linejoin="round" stroke-miterlimit="10" stroke-width="2.779"/>
          <line id="Línea_3246" data-name="Línea 3246" x1="2.012" y1="18.216" transform="translate(52.951 42.754)" fill="none" stroke="#000" stroke-linecap="round" stroke-linejoin="round" stroke-miterlimit="10" stroke-width="2.779"/>
          <path id="Trazado_994510" data-name="Trazado 994510" d="M41.9,42.754,38.219,76.1H56.633l-.963-8.718" fill="none" stroke="#000" stroke-linecap="round" stroke-linejoin="round" stroke-miterlimit="10" stroke-width="2.779"/>
          <line id="Línea_3247" data-name="Línea 3247" x1="7.523" y1="22.706" transform="translate(63.999 42.754)" fill="none" stroke="#000" stroke-linecap="round" stroke-linejoin="round" stroke-miterlimit="10" stroke-width="2.779"/>
          <line id="Línea_3248" data-name="Línea 3248" x2="8.282" transform="translate(56.633 76.101)" fill="none" stroke="#000" stroke-linecap="round" stroke-linejoin="round" stroke-miterlimit="10" stroke-width="2.779"/>
          <line id="Línea_3249" data-name="Línea 3249" x1="10.96" y1="18.043" transform="translate(73.206 42.754)" fill="none" stroke="#000" stroke-linecap="round" stroke-linejoin="round" stroke-miterlimit="10" stroke-width="2.779"/>
          <line id="Línea_3250" data-name="Línea 3250" x1="10.993" y1="11.729" transform="translate(82.469 42.754)" fill="none" stroke="#000" stroke-linecap="round" stroke-linejoin="round" stroke-miterlimit="10" stroke-width="2.779"/>
          <line id="Línea_3251" data-name="Línea 3251" y1="11.729" x2="10.993" transform="translate(1.39 42.754)" fill="none" stroke="#000" stroke-linecap="round" stroke-linejoin="round" stroke-miterlimit="10" stroke-width="2.779"/>
          <line id="Línea_3252" data-name="Línea 3252" x1="2.804" y2="8.461" transform="translate(23.327 57.009)" fill="none" stroke="#000" stroke-linecap="round" stroke-linejoin="round" stroke-miterlimit="10" stroke-width="2.779"/>
          <line id="Línea_3253" data-name="Línea 3253" x1="2.683" y2="8.099" transform="translate(28.17 42.754)" fill="none" stroke="#000" stroke-linecap="round" stroke-linejoin="round" stroke-miterlimit="10" stroke-width="2.779"/>
          <line id="Línea_3254" data-name="Línea 3254" x1="10.964" y2="18.049" transform="translate(10.682 42.754)" fill="none" stroke="#000" stroke-linecap="round" stroke-linejoin="round" stroke-miterlimit="10" stroke-width="2.779"/>
          <path id="Trazado_994511" data-name="Trazado 994511" d="M93.462,31.639h-.406A9.362,9.362,0,0,1,85.278,27.6a7.214,7.214,0,0,0-5.987-3.182h-.011a1.81,1.81,0,0,1-1.543-.811,9.926,9.926,0,0,0-12.129-3.857,1.78,1.78,0,0,1-1.857-.309,11.114,11.114,0,0,0-11.43-2.051,1.8,1.8,0,0,1-1.808-.309A9.916,9.916,0,0,0,36.391,18.5a1.777,1.777,0,0,1-1.665.635,9.927,9.927,0,0,0-9.926,4.49,1.823,1.823,0,0,1-1.711.823q-.318-.028-.643-.028a7.212,7.212,0,0,0-6.076,3.32,1.783,1.783,0,0,1-1.829.8,5.215,5.215,0,0,0-4.312,1.1,9.022,9.022,0,0,1-5.765,2H1.39" fill="none" stroke="#000" stroke-linecap="round" stroke-linejoin="round" stroke-miterlimit="10" stroke-width="2.779"/>
          <line id="Línea_3255" data-name="Línea 3255" x2="21.377" transform="translate(72.085 37.197)" fill="none" stroke="#000" stroke-linecap="round" stroke-linejoin="round" stroke-miterlimit="10" stroke-width="2.779"/>
          <line id="Línea_3256" data-name="Línea 3256" x2="64.211" transform="translate(1.39 37.197)" fill="none" stroke="#000" stroke-linecap="round" stroke-linejoin="round" stroke-miterlimit="10" stroke-width="2.779"/>
          <line id="Línea_3257" data-name="Línea 3257" x1="92.072" transform="translate(1.39 42.609)" fill="none" stroke="#000" stroke-linecap="round" stroke-linejoin="round" stroke-miterlimit="10" stroke-width="2.779"/>
          <path id="Trazado_994512" data-name="Trazado 994512" d="M29.361,71.3a4.459,4.459,0,0,1,6.417,3.281,3.556,3.556,0,0,1-.565,7.067H23.478" fill="none" stroke="#000" stroke-linecap="round" stroke-linejoin="round" stroke-miterlimit="10" stroke-width="2.779"/>
          <path id="Trazado_994513" data-name="Trazado 994513" d="M93.462,63.133s-1.468-3.14-6.18-3.14A6.167,6.167,0,0,0,82.465,62.3a8.336,8.336,0,0,0-12,6.134,6.648,6.648,0,0,0,1.056,13.211H93.462" fill="none" stroke="#000" stroke-linecap="round" stroke-linejoin="round" stroke-miterlimit="10" stroke-width="2.779"/>
          <path id="Trazado_994514" data-name="Trazado 994514" d="M1.39,63.133s1.429-3.14,6.18-3.14A6.167,6.167,0,0,1,12.387,62.3a8.336,8.336,0,0,1,12,6.134,6.648,6.648,0,0,1-1.056,13.211h-10.2" fill="none" stroke="#000" stroke-linecap="round" stroke-linejoin="round" stroke-miterlimit="10" stroke-width="2.779"/>
          <line id="Línea_3258" data-name="Línea 3258" x2="36.312" transform="translate(35.213 81.649)" fill="none" stroke="#000" stroke-linecap="round" stroke-linejoin="round" stroke-miterlimit="10" stroke-width="2.779"/>
          <path id="Trazado_994515" data-name="Trazado 994515" d="M1.39,81.649H13.125a3.556,3.556,0,0,0,.565-7.067,4.454,4.454,0,0,0-5.584-3.6,4.858,4.858,0,0,0-6.716-1.9" fill="none" stroke="#000" stroke-linecap="round" stroke-linejoin="round" stroke-miterlimit="10" stroke-width="2.779"/>
          <path id="Trazado_994516" data-name="Trazado 994516" d="M93.463,69.686A5.557,5.557,0,0,0,84.4,72.9a4.44,4.44,0,1,0-1.065,8.751" fill="none" stroke="#000" stroke-linecap="round" stroke-linejoin="round" stroke-miterlimit="10" stroke-width="2.779"/>
        </g>
      </g>
    </g>
  </g>
</svg>
