<svg xmlns="http://www.w3.org/2000/svg" xmlns:xlink="http://www.w3.org/1999/xlink" width="42" height="42" viewBox="0 0 42 42">
  <defs>
    <clipPath id="clip-path">
      <rect id="Rectángulo_454636" data-name="Rectángulo 454636" width="42" height="42" transform="translate(518.711 1191)" fill="#fff" stroke="#707070" stroke-width="1"/>
    </clipPath>
  </defs>
  <g id="Enmascarar_grupo_1119135" data-name="Enmascarar grupo 1119135" transform="translate(-518.711 -1191)" clip-path="url(#clip-path)">
    <g id="mercado" transform="translate(518.711 1191)">
      <g id="Grupo_1177118" data-name="Grupo 1177118">
        <g id="Grupo_1177110" data-name="Grupo 1177110">
          <path id="Trazado_994059" data-name="Trazado 994059" d="M21.569,7.147V8.407a2.282,2.282,0,0,1-4.564,0V7.147a2.282,2.282,0,0,1,4.564,0Z" fill="#ffcebf"/>
          <path id="Trazado_994060" data-name="Trazado 994060" d="M19.286,4.865a2.269,2.269,0,0,0-1.063.263,2.281,2.281,0,0,1,1.219,2.018V8.407a2.281,2.281,0,0,1-1.219,2.018,2.282,2.282,0,0,0,3.346-2.018V7.147A2.282,2.282,0,0,0,19.286,4.865Z" fill="#ffb09e"/>
          <path id="Trazado_994061" data-name="Trazado 994061" d="M21.569,7.147v.415H17V7.147a2.282,2.282,0,0,1,4.564,0Z" fill="#99e6fc"/>
          <path id="Trazado_994062" data-name="Trazado 994062" d="M19.286,4.865a2.269,2.269,0,0,0-1.063.263,2.281,2.281,0,0,1,1.219,2.018v.415h2.127V7.147A2.282,2.282,0,0,0,19.286,4.865Z" fill="#62dbfb"/>
          <path id="Trazado_994063" data-name="Trazado 994063" d="M23.412,12.964,23,23.834h-7.6L15,12.964Z" fill="#fef48b"/>
          <path id="Trazado_994064" data-name="Trazado 994064" d="M21.285,12.964l-.409,10.87H23l.409-10.87Z" fill="#fef056"/>
          <path id="Trazado_994065" data-name="Trazado 994065" d="M23.412,12.964h1.569l-.871-1.34a1.37,1.37,0,0,1,.477-1.94h0a1.37,1.37,0,0,1,1.767.371l3.7,4.929a1.477,1.477,0,0,1-.026,1.806h0a1.477,1.477,0,0,1-1.063.554l-5.731.358Z" fill="#fef48b"/>
          <path id="Trazado_994066" data-name="Trazado 994066" d="M30.027,16.791a1.479,1.479,0,0,1-1.063.554l-1.625.1a1.457,1.457,0,0,0,.251-.1,1.476,1.476,0,0,0,.5-2.2l-3.7-4.929a1.26,1.26,0,0,0-.193-.207,1.348,1.348,0,0,1,.389-.328,1.37,1.37,0,0,1,1.767.371l3.7,4.929A1.477,1.477,0,0,1,30.027,16.791Z" fill="#fef056"/>
          <path id="Trazado_994067" data-name="Trazado 994067" d="M15,12.964l.409,10.87H12.26l-.278-7.745A3.017,3.017,0,0,1,15,12.964Z" fill="#fef056"/>
        </g>
        <path id="Trazado_994068" data-name="Trazado 994068" d="M36.372,4.865H5.791a1.1,1.1,0,0,1-1.1-1.1V1.711a1.1,1.1,0,0,1,1.1-1.1H36.372a1.1,1.1,0,0,1,1.1,1.1V3.767A1.1,1.1,0,0,1,36.372,4.865Z" fill="#b98080"/>
        <path id="Trazado_994069" data-name="Trazado 994069" d="M37.47,1.711V3.767a1.1,1.1,0,0,1-1.1,1.1H34.245a1.1,1.1,0,0,0,1.1-1.1V1.711a1.1,1.1,0,0,0-1.1-1.1h2.127A1.1,1.1,0,0,1,37.47,1.711Z" fill="#ae6c6c"/>
        <path id="Trazado_994070" data-name="Trazado 994070" d="M37.388,38.491H4.612V22.364a1.1,1.1,0,0,1,1.1-1.1H36.291a1.1,1.1,0,0,1,1.1,1.1V38.491Z" fill="#b98080"/>
        <path id="Trazado_994071" data-name="Trazado 994071" d="M37.388,22.363V38.491H35.261V22.363a1.1,1.1,0,0,0-1.1-1.1H36.29A1.1,1.1,0,0,1,37.388,22.363Z" fill="#ae6c6c"/>
        <g id="Grupo_1177113" data-name="Grupo 1177113">
          <g id="Grupo_1177111" data-name="Grupo 1177111">
            <rect id="Rectángulo_454649" data-name="Rectángulo 454649" width="2.209" height="16.401" transform="translate(7.146 4.865)" fill="#9e9797"/>
          </g>
          <g id="Grupo_1177112" data-name="Grupo 1177112">
            <rect id="Rectángulo_454650" data-name="Rectángulo 454650" width="2.209" height="16.401" transform="translate(32.645 4.865)" fill="#8c8585"/>
          </g>
        </g>
        <path id="Trazado_994072" data-name="Trazado 994072" d="M40.082,41.386H18.765a1.4,1.4,0,0,1-1.4-1.4V30.152h23.96v9.987A1.247,1.247,0,0,1,40.082,41.386Z" fill="#c59191"/>
        <path id="Trazado_994073" data-name="Trazado 994073" d="M39.2,30.152v9.987a1.247,1.247,0,0,1-1.247,1.247h2.127a1.247,1.247,0,0,0,1.247-1.247V30.152Z" fill="#b98080"/>
        <path id="Trazado_994074" data-name="Trazado 994074" d="M1.918,41.386H15.972a1.4,1.4,0,0,0,1.4-1.4v-4.5H.671V40.14A1.247,1.247,0,0,0,1.918,41.386Z" fill="#fcd18a"/>
        <path id="Trazado_994075" data-name="Trazado 994075" d="M15.242,35.486v4.5a1.4,1.4,0,0,1-1.4,1.4h2.127a1.4,1.4,0,0,0,1.4-1.4v-4.5Z" fill="#fbc56d"/>
        <rect id="Rectángulo_454651" data-name="Rectángulo 454651" width="16.697" height="7.304" transform="translate(17.369 35.486) rotate(180)" fill="#fcd18a"/>
        <rect id="Rectángulo_454652" data-name="Rectángulo 454652" width="2.127" height="7.304" transform="translate(15.242 28.182)" fill="#fbc56d"/>
        <g id="Grupo_1177114" data-name="Grupo 1177114">
          <path id="Trazado_994076" data-name="Trazado 994076" d="M4.011,35.486H.671V33.949a3.133,3.133,0,0,1,.985-2.28l.685-.646.685.646a3.133,3.133,0,0,1,.985,2.28Z" fill="#80d261"/>
          <path id="Trazado_994077" data-name="Trazado 994077" d="M7.35,35.486H4.011V33.949A3.133,3.133,0,0,1,5,31.669l.685-.646.685.646a3.133,3.133,0,0,1,.985,2.28Z" fill="#80d261"/>
          <path id="Trazado_994078" data-name="Trazado 994078" d="M10.69,35.486H7.35V33.949a3.133,3.133,0,0,1,.985-2.28l.685-.646.685.646a3.133,3.133,0,0,1,.985,2.28Z" fill="#80d261"/>
          <path id="Trazado_994079" data-name="Trazado 994079" d="M14.029,35.486H10.69V33.949a3.133,3.133,0,0,1,.985-2.28l.685-.646.685.646a3.133,3.133,0,0,1,.985,2.28v1.537Z" fill="#80d261"/>
          <path id="Trazado_994080" data-name="Trazado 994080" d="M17.369,35.486H14.029V33.949a3.133,3.133,0,0,1,.985-2.28l.685-.646.685.646a3.133,3.133,0,0,1,.985,2.28v1.537Z" fill="#80d261"/>
        </g>
        <g id="Grupo_1177115" data-name="Grupo 1177115">
          <path id="Trazado_994081" data-name="Trazado 994081" d="M3.026,31.669l-.685-.646-.685.646a3.125,3.125,0,0,0-.3.323,3.132,3.132,0,0,1,.688,1.958v1.537H4.011V33.949A3.133,3.133,0,0,0,3.026,31.669Z" fill="#68ca44"/>
          <path id="Trazado_994082" data-name="Trazado 994082" d="M6.366,31.669l-.685-.646L5,31.669a3.134,3.134,0,0,0-.3.323,3.132,3.132,0,0,1,.688,1.958v1.537H7.35V33.949A3.133,3.133,0,0,0,6.366,31.669Z" fill="#68ca44"/>
          <path id="Trazado_994083" data-name="Trazado 994083" d="M9.705,31.669l-.685-.646-.685.646a3.134,3.134,0,0,0-.3.323,3.132,3.132,0,0,1,.688,1.958v1.537H10.69V33.949A3.133,3.133,0,0,0,9.705,31.669Z" fill="#68ca44"/>
          <path id="Trazado_994084" data-name="Trazado 994084" d="M13.045,31.669l-.685-.646-.685.646a3.134,3.134,0,0,0-.3.323,3.132,3.132,0,0,1,.688,1.958v1.537h1.964V33.949A3.133,3.133,0,0,0,13.045,31.669Z" fill="#68ca44"/>
          <path id="Trazado_994085" data-name="Trazado 994085" d="M16.384,31.669l-.685-.646-.685.646a3.134,3.134,0,0,0-.3.323,3.132,3.132,0,0,1,.688,1.958v1.537h1.964V33.949A3.133,3.133,0,0,0,16.384,31.669Z" fill="#68ca44"/>
        </g>
        <g id="Grupo_1177116" data-name="Grupo 1177116">
          <path id="Trazado_994086" data-name="Trazado 994086" d="M4.011,28.182H.671V26.645a3.133,3.133,0,0,1,.985-2.28l.685-.646.685.646a3.133,3.133,0,0,1,.985,2.28Z" fill="#80d261"/>
          <path id="Trazado_994087" data-name="Trazado 994087" d="M7.35,28.182H4.011V26.645A3.133,3.133,0,0,1,5,24.365l.685-.646.685.646a3.133,3.133,0,0,1,.985,2.28Z" fill="#80d261"/>
          <path id="Trazado_994088" data-name="Trazado 994088" d="M10.69,28.182H7.35V26.645a3.133,3.133,0,0,1,.985-2.28l.685-.646.685.646a3.133,3.133,0,0,1,.985,2.28Z" fill="#80d261"/>
          <path id="Trazado_994089" data-name="Trazado 994089" d="M14.029,28.182H10.69V26.645a3.133,3.133,0,0,1,.985-2.28l.685-.646.685.646a3.133,3.133,0,0,1,.985,2.28v1.537Z" fill="#80d261"/>
          <path id="Trazado_994090" data-name="Trazado 994090" d="M17.369,28.182H14.029V26.645a3.133,3.133,0,0,1,.985-2.28l.685-.646.685.646a3.133,3.133,0,0,1,.985,2.28v1.537Z" fill="#80d261"/>
        </g>
        <g id="Grupo_1177117" data-name="Grupo 1177117">
          <path id="Trazado_994091" data-name="Trazado 994091" d="M3.026,24.365l-.685-.646-.685.646a3.125,3.125,0,0,0-.3.323,3.132,3.132,0,0,1,.688,1.958v1.537H4.011V26.645A3.133,3.133,0,0,0,3.026,24.365Z" fill="#68ca44"/>
          <path id="Trazado_994092" data-name="Trazado 994092" d="M6.366,24.365l-.685-.646L5,24.365a3.134,3.134,0,0,0-.3.323,3.132,3.132,0,0,1,.688,1.958v1.537H7.35V26.645A3.133,3.133,0,0,0,6.366,24.365Z" fill="#68ca44"/>
          <path id="Trazado_994093" data-name="Trazado 994093" d="M9.705,24.365l-.685-.646-.685.646a3.134,3.134,0,0,0-.3.323,3.132,3.132,0,0,1,.688,1.958v1.537H10.69V26.645A3.133,3.133,0,0,0,9.705,24.365Z" fill="#68ca44"/>
          <path id="Trazado_994094" data-name="Trazado 994094" d="M13.045,24.365l-.685-.646-.685.646a3.134,3.134,0,0,0-.3.323,3.132,3.132,0,0,1,.688,1.958v1.537h1.964V26.645A3.133,3.133,0,0,0,13.045,24.365Z" fill="#68ca44"/>
          <path id="Trazado_994095" data-name="Trazado 994095" d="M16.384,24.365l-.685-.646-.685.646a3.134,3.134,0,0,0-.3.323,3.132,3.132,0,0,1,.688,1.958v1.537h1.964V26.645A3.133,3.133,0,0,0,16.384,24.365Z" fill="#68ca44"/>
        </g>
        <path id="Trazado_994096" data-name="Trazado 994096" d="M17.369,30.152h7.987v-.509a2.15,2.15,0,0,0-2.15-2.15h0v-.3a1.963,1.963,0,0,0-1.963-1.963h0a1.964,1.964,0,0,0-1.719,1.015Z" fill="#d1f19e"/>
        <path id="Trazado_994097" data-name="Trazado 994097" d="M25.355,30.152h7.987v-.509a2.15,2.15,0,0,0-2.15-2.15h0v-.3a1.963,1.963,0,0,0-1.963-1.963h0a1.964,1.964,0,0,0-1.719,1.015Z" fill="#d1f19e"/>
        <path id="Trazado_994098" data-name="Trazado 994098" d="M33.342,30.152h7.987v-.509a2.15,2.15,0,0,0-2.15-2.15h0v-.3a1.963,1.963,0,0,0-1.963-1.963h0A1.964,1.964,0,0,0,35.5,26.248Z" fill="#d1f19e"/>
        <path id="Trazado_994099" data-name="Trazado 994099" d="M23.205,27.493v-.3a1.962,1.962,0,0,0-3.026-1.65,1.961,1.961,0,0,1,.9,1.65v.3a2.15,2.15,0,0,1,2.15,2.15v.509h2.127v-.509A2.15,2.15,0,0,0,23.205,27.493Z" fill="#bbec6c"/>
        <path id="Trazado_994100" data-name="Trazado 994100" d="M31.192,27.493v-.3a1.962,1.962,0,0,0-3.026-1.65,1.961,1.961,0,0,1,.9,1.65v.3a2.15,2.15,0,0,1,2.15,2.15v.509h2.127v-.509A2.15,2.15,0,0,0,31.192,27.493Z" fill="#bbec6c"/>
        <path id="Trazado_994101" data-name="Trazado 994101" d="M39.179,27.493v-.3a1.962,1.962,0,0,0-3.026-1.65,1.961,1.961,0,0,1,.9,1.65v.3a2.15,2.15,0,0,1,2.15,2.15v.509h2.127v-.509A2.15,2.15,0,0,0,39.179,27.493Z" fill="#bbec6c"/>
      </g>
      <g id="Grupo_1177125" data-name="Grupo 1177125">
        <path id="Trazado_994102" data-name="Trazado 994102" d="M36.372,4.865H5.791a1.1,1.1,0,0,1-1.1-1.1V1.711a1.1,1.1,0,0,1,1.1-1.1H36.372a1.1,1.1,0,0,1,1.1,1.1V3.767A1.1,1.1,0,0,1,36.372,4.865Z" fill="none" stroke="#000" stroke-linecap="round" stroke-linejoin="round" stroke-miterlimit="10" stroke-width="1.227"/>
        <path id="Trazado_994103" data-name="Trazado 994103" d="M4.612,24.8V22.363a1.1,1.1,0,0,1,1.1-1.1H36.29a1.1,1.1,0,0,1,1.1,1.1V25.24" fill="none" stroke="#000" stroke-linecap="round" stroke-linejoin="round" stroke-miterlimit="10" stroke-width="1.227"/>
        <g id="Grupo_1177121" data-name="Grupo 1177121">
          <g id="Grupo_1177119" data-name="Grupo 1177119">
            <path id="Trazado_994104" data-name="Trazado 994104" d="M9.355,7.731V21.266H7.146V4.865H9.355" fill="none" stroke="#000" stroke-linecap="round" stroke-linejoin="round" stroke-miterlimit="10" stroke-width="1.227"/>
          </g>
          <g id="Grupo_1177120" data-name="Grupo 1177120">
            <rect id="Rectángulo_454653" data-name="Rectángulo 454653" width="2.209" height="16.401" transform="translate(32.645 4.865)" fill="none" stroke="#000" stroke-linecap="round" stroke-linejoin="round" stroke-miterlimit="10" stroke-width="1.227"/>
          </g>
        </g>
        <path id="Trazado_994105" data-name="Trazado 994105" d="M40.082,41.386H18.765a1.4,1.4,0,0,1-1.4-1.4V30.152h23.96v9.987A1.247,1.247,0,0,1,40.082,41.386Z" fill="none" stroke="#000" stroke-linecap="round" stroke-linejoin="round" stroke-miterlimit="10" stroke-width="1.227"/>
        <path id="Trazado_994106" data-name="Trazado 994106" d="M1.918,41.386H15.972a1.4,1.4,0,0,0,1.4-1.4v-4.5H.671V40.14A1.247,1.247,0,0,0,1.918,41.386Z" fill="none" stroke="#000" stroke-linecap="round" stroke-linejoin="round" stroke-miterlimit="10" stroke-width="1.227"/>
        <rect id="Rectángulo_454654" data-name="Rectángulo 454654" width="16.697" height="7.304" transform="translate(17.369 35.486) rotate(180)" fill="none" stroke="#000" stroke-linecap="round" stroke-linejoin="round" stroke-miterlimit="10" stroke-width="1.227"/>
        <g id="Grupo_1177122" data-name="Grupo 1177122">
          <path id="Trazado_994107" data-name="Trazado 994107" d="M4.011,35.486H.671V33.949a3.133,3.133,0,0,1,.985-2.28l.685-.646.685.646a3.133,3.133,0,0,1,.985,2.28Z" fill="none" stroke="#000" stroke-linecap="round" stroke-linejoin="round" stroke-miterlimit="10" stroke-width="1.227"/>
          <path id="Trazado_994108" data-name="Trazado 994108" d="M7.35,35.486H4.011V33.949A3.133,3.133,0,0,1,5,31.669l.685-.646.685.646a3.133,3.133,0,0,1,.985,2.28Z" fill="none" stroke="#000" stroke-linecap="round" stroke-linejoin="round" stroke-miterlimit="10" stroke-width="1.227"/>
          <path id="Trazado_994109" data-name="Trazado 994109" d="M10.69,35.486H7.35V33.949a3.133,3.133,0,0,1,.985-2.28l.685-.646.685.646a3.133,3.133,0,0,1,.985,2.28Z" fill="none" stroke="#000" stroke-linecap="round" stroke-linejoin="round" stroke-miterlimit="10" stroke-width="1.227"/>
          <path id="Trazado_994110" data-name="Trazado 994110" d="M14.029,35.486H10.69V33.949a3.133,3.133,0,0,1,.985-2.28l.685-.646.685.646a3.133,3.133,0,0,1,.985,2.28v1.537Z" fill="none" stroke="#000" stroke-linecap="round" stroke-linejoin="round" stroke-miterlimit="10" stroke-width="1.227"/>
          <path id="Trazado_994111" data-name="Trazado 994111" d="M17.369,35.486H14.029V33.949a3.133,3.133,0,0,1,.985-2.28l.685-.646.685.646a3.133,3.133,0,0,1,.985,2.28v1.537Z" fill="none" stroke="#000" stroke-linecap="round" stroke-linejoin="round" stroke-miterlimit="10" stroke-width="1.227"/>
        </g>
        <g id="Grupo_1177123" data-name="Grupo 1177123">
          <path id="Trazado_994112" data-name="Trazado 994112" d="M4.011,28.182H.671V26.645a3.133,3.133,0,0,1,.985-2.28l.685-.646.685.646a3.133,3.133,0,0,1,.985,2.28Z" fill="none" stroke="#000" stroke-linecap="round" stroke-linejoin="round" stroke-miterlimit="10" stroke-width="1.227"/>
          <path id="Trazado_994113" data-name="Trazado 994113" d="M7.35,28.182H4.011V26.645A3.133,3.133,0,0,1,5,24.365l.685-.646.685.646a3.133,3.133,0,0,1,.985,2.28Z" fill="none" stroke="#000" stroke-linecap="round" stroke-linejoin="round" stroke-miterlimit="10" stroke-width="1.227"/>
          <path id="Trazado_994114" data-name="Trazado 994114" d="M10.69,28.182H7.35V26.645a3.133,3.133,0,0,1,.985-2.28l.685-.646.685.646a3.133,3.133,0,0,1,.985,2.28Z" fill="none" stroke="#000" stroke-linecap="round" stroke-linejoin="round" stroke-miterlimit="10" stroke-width="1.227"/>
          <path id="Trazado_994115" data-name="Trazado 994115" d="M14.029,28.182H10.69V26.645a3.133,3.133,0,0,1,.985-2.28l.685-.646.685.646a3.133,3.133,0,0,1,.985,2.28v1.537Z" fill="none" stroke="#000" stroke-linecap="round" stroke-linejoin="round" stroke-miterlimit="10" stroke-width="1.227"/>
          <path id="Trazado_994116" data-name="Trazado 994116" d="M17.369,28.182H14.029V26.645a3.133,3.133,0,0,1,.985-2.28l.685-.646.685.646a3.133,3.133,0,0,1,.985,2.28v1.537Z" fill="none" stroke="#000" stroke-linecap="round" stroke-linejoin="round" stroke-miterlimit="10" stroke-width="1.227"/>
        </g>
        <path id="Trazado_994117" data-name="Trazado 994117" d="M17.369,30.152h7.987v-.509a2.15,2.15,0,0,0-2.15-2.15h0v-.3a1.963,1.963,0,0,0-1.963-1.963h0a1.964,1.964,0,0,0-1.719,1.015Z" fill="none" stroke="#000" stroke-linecap="round" stroke-linejoin="round" stroke-miterlimit="10" stroke-width="1.227"/>
        <path id="Trazado_994118" data-name="Trazado 994118" d="M25.355,30.152h7.987v-.509a2.15,2.15,0,0,0-2.15-2.15h0v-.3a1.963,1.963,0,0,0-1.963-1.963h0a1.964,1.964,0,0,0-1.719,1.015Z" fill="none" stroke="#000" stroke-linecap="round" stroke-linejoin="round" stroke-miterlimit="10" stroke-width="1.227"/>
        <path id="Trazado_994119" data-name="Trazado 994119" d="M33.342,30.152h7.987v-.509a2.15,2.15,0,0,0-2.15-2.15h0v-.3a1.963,1.963,0,0,0-1.963-1.963h0A1.964,1.964,0,0,0,35.5,26.248Z" fill="none" stroke="#000" stroke-linecap="round" stroke-linejoin="round" stroke-miterlimit="10" stroke-width="1.227"/>
        <line id="Línea_3209" data-name="Línea 3209" x2="23.96" transform="translate(17.369 32.932)" fill="none" stroke="#000" stroke-linecap="round" stroke-linejoin="round" stroke-miterlimit="10" stroke-width="1.227"/>
        <line id="Línea_3210" data-name="Línea 3210" x2="23.96" transform="translate(17.369 35.712)" fill="none" stroke="#000" stroke-linecap="round" stroke-linejoin="round" stroke-miterlimit="10" stroke-width="1.227"/>
        <line id="Línea_3211" data-name="Línea 3211" x2="4.548" transform="translate(36.781 38.491)" fill="none" stroke="#000" stroke-linecap="round" stroke-linejoin="round" stroke-miterlimit="10" stroke-width="1.227"/>
        <line id="Línea_3212" data-name="Línea 3212" x2="16.519" transform="translate(17.369 38.491)" fill="none" stroke="#000" stroke-linecap="round" stroke-linejoin="round" stroke-miterlimit="10" stroke-width="1.227"/>
        <g id="Grupo_1177124" data-name="Grupo 1177124">
          <path id="Trazado_994120" data-name="Trazado 994120" d="M19.286,10.689h0a2.282,2.282,0,0,0,2.282-2.282V7.147a2.282,2.282,0,0,0-2.282-2.282h0A2.282,2.282,0,0,0,17,7.147v1.26A2.282,2.282,0,0,0,19.286,10.689Z" fill="none" stroke="#000" stroke-linecap="round" stroke-linejoin="round" stroke-miterlimit="10" stroke-width="1.227"/>
          <line id="Línea_3213" data-name="Línea 3213" x1="7.926" transform="translate(15.307 7.561)" fill="none" stroke="#000" stroke-linecap="round" stroke-linejoin="round" stroke-miterlimit="10" stroke-width="1.227"/>
          <path id="Trazado_994121" data-name="Trazado 994121" d="M23.1,21.266l.313-8.3H15l.312,8.3" fill="none" stroke="#000" stroke-linecap="round" stroke-linejoin="round" stroke-miterlimit="10" stroke-width="1.227"/>
          <path id="Trazado_994122" data-name="Trazado 994122" d="M23.412,12.964h1.569l-.871-1.34a1.37,1.37,0,0,1,.477-1.94h0a1.37,1.37,0,0,1,1.767.371l3.7,4.929a1.477,1.477,0,0,1-.026,1.806h0a1.477,1.477,0,0,1-1.063.554l-5.731.358Z" fill="none" stroke="#000" stroke-linecap="round" stroke-linejoin="round" stroke-miterlimit="10" stroke-width="1.227"/>
          <line id="Línea_3214" data-name="Línea 3214" y2="2.119" transform="translate(19.286 12.964)" fill="none" stroke="#000" stroke-linecap="round" stroke-linejoin="round" stroke-miterlimit="10" stroke-width="1.227"/>
          <line id="Línea_3215" data-name="Línea 3215" x2="1.175" y2="1.639" transform="translate(24.981 12.964)" fill="none" stroke="#000" stroke-linecap="round" stroke-linejoin="round" stroke-miterlimit="10" stroke-width="1.227"/>
          <path id="Trazado_994123" data-name="Trazado 994123" d="M15.31,21.266,15,12.964a3.017,3.017,0,0,0-3.015,3.126l.186,5.177" fill="none" stroke="#000" stroke-linecap="round" stroke-linejoin="round" stroke-miterlimit="10" stroke-width="1.227"/>
        </g>
      </g>
    </g>
  </g>
</svg>
