<svg xmlns="http://www.w3.org/2000/svg" xmlns:xlink="http://www.w3.org/1999/xlink" width="33.491" height="42" viewBox="0 0 33.491 42">
  <defs>
    <clipPath id="clip-path">
      <rect id="Rectángulo_454728" data-name="Rectángulo 454728" width="33.491" height="42" transform="translate(1197.904 3480)" fill="#02614b" stroke="#02614b" stroke-width="1"/>
    </clipPath>
    <clipPath id="clip-path-2">
      <path id="path1449" d="M0-33.491H33.491V0H0Z" fill="#02614b"/>
    </clipPath>
  </defs>
  <g id="Enmascarar_grupo_1119151" data-name="Enmascarar grupo 1119151" transform="translate(-1197.904 -3480)" clip-path="url(#clip-path)">
    <g id="g1443" transform="translate(1197.904 3517.745)">
      <g id="g1445">
        <g id="g1447" clip-path="url(#clip-path-2)">
          <g id="g1453" transform="translate(4.897 -24.983)">
            <path id="path1455" d="M0,0V-4.451A.654.654,0,0,1,.654-5.1H23.2a.654.654,0,0,1,.654.654V-.625" fill="none" stroke="#02614b" stroke-linecap="round" stroke-linejoin="round" stroke-miterlimit="10" stroke-width="0.981"/>
          </g>
          <g id="g1457" transform="translate(6.775 -24.983)">
            <path id="path1459" d="M0,0V-2.9a.327.327,0,0,1,.327-.327H9.351a.327.327,0,0,1,.327.327V-.625" fill="none" stroke="#02614b" stroke-linecap="round" stroke-linejoin="round" stroke-miterlimit="10" stroke-width="0.981"/>
          </g>
          <g id="g1461" transform="translate(18.466 -25.607)">
            <path id="path1463" d="M0,0V-2.274A.327.327,0,0,1,.327-2.6H7.94a.327.327,0,0,1,.327.327V0" fill="none" stroke="#02614b" stroke-linecap="round" stroke-linejoin="round" stroke-miterlimit="10" stroke-width="0.981"/>
          </g>
          <g id="g1465" transform="translate(7.505 -11.766)">
            <path id="path1467" d="M0,0V8.036a.327.327,0,0,1-.327.327H-3.012a.327.327,0,0,1-.327-.327V0" fill="none" stroke="#02614b" stroke-linecap="round" stroke-linejoin="round" stroke-miterlimit="10" stroke-width="0.981"/>
          </g>
          <g id="g1469" transform="translate(17.46 -20.096)">
            <path id="path1471" d="M0,0V1.37" fill="none" stroke="#02614b" stroke-linecap="round" stroke-linejoin="round" stroke-miterlimit="10" stroke-width="0.981"/>
          </g>
          <g id="g1473" transform="translate(19.095 -20.7)">
            <path id="path1475" d="M0,0,.671,1.37" fill="none" stroke="#02614b" stroke-linecap="round" stroke-linejoin="round" stroke-miterlimit="10" stroke-width="0.981"/>
          </g>
          <g id="g1477" transform="translate(15.824 -20.7)">
            <path id="path1479" d="M0,0-.671,1.37" fill="none" stroke="#02614b" stroke-linecap="round" stroke-linejoin="round" stroke-miterlimit="10" stroke-width="0.981"/>
          </g>
          <g id="g1481" transform="translate(27.741 -20.096)">
            <path id="path1483" d="M0,0V1.37" fill="none" stroke="#02614b" stroke-linecap="round" stroke-linejoin="round" stroke-miterlimit="10" stroke-width="0.981"/>
          </g>
          <g id="g1485" transform="translate(29.376 -20.7)">
            <path id="path1487" d="M0,0,.671,1.37" fill="none" stroke="#02614b" stroke-linecap="round" stroke-linejoin="round" stroke-miterlimit="10" stroke-width="0.981"/>
          </g>
          <g id="g1489" transform="translate(26.105 -20.7)">
            <path id="path1491" d="M0,0-.671,1.37" fill="none" stroke="#02614b" stroke-linecap="round" stroke-linejoin="round" stroke-miterlimit="10" stroke-width="0.981"/>
          </g>
          <g id="g1493" transform="translate(17.46 -8.332)">
            <path id="path1495" d="M0,0V-1.709" fill="none" stroke="#02614b" stroke-linecap="round" stroke-linejoin="round" stroke-miterlimit="10" stroke-width="0.981"/>
          </g>
          <g id="g1497" transform="translate(14.344 -13.159)">
            <path id="path1499" d="M0,0A.343.343,0,0,1,.384-.341,3.116,3.116,0,0,1,3.116,2.751v.605H2.44A2.44,2.44,0,0,1,0,.917Z" fill="none" stroke="#02614b" stroke-linecap="round" stroke-linejoin="round" stroke-miterlimit="10" stroke-width="0.981"/>
          </g>
          <g id="g1501" transform="translate(20.576 -13.159)">
            <path id="path1503" d="M0,0A.343.343,0,0,0-.384-.341,3.116,3.116,0,0,0-3.116,2.751v.605h.676A2.44,2.44,0,0,0,0,.917Z" fill="none" stroke="#02614b" stroke-linecap="round" stroke-linejoin="round" stroke-miterlimit="10" stroke-width="0.981"/>
          </g>
          <g id="g1505" transform="translate(27.741 -8.332)">
            <path id="path1507" d="M0,0V-1.709" fill="none" stroke="#02614b" stroke-linecap="round" stroke-linejoin="round" stroke-miterlimit="10" stroke-width="0.981"/>
          </g>
          <g id="g1509" transform="translate(24.625 -13.159)">
            <path id="path1511" d="M0,0A.343.343,0,0,1,.384-.341,3.116,3.116,0,0,1,3.116,2.751v.605H2.44A2.44,2.44,0,0,1,0,.917Z" fill="none" stroke="#02614b" stroke-linecap="round" stroke-linejoin="round" stroke-miterlimit="10" stroke-width="0.981"/>
          </g>
          <g id="g1513" transform="translate(30.856 -13.159)">
            <path id="path1515" d="M0,0A.343.343,0,0,0-.384-.341,3.116,3.116,0,0,0-3.116,2.751v.605h.676A2.44,2.44,0,0,0,0,.917Z" fill="none" stroke="#02614b" stroke-linecap="round" stroke-linejoin="round" stroke-miterlimit="10" stroke-width="0.981"/>
          </g>
          <g id="g1517" transform="translate(18.232 -3.403)">
            <path id="path1519" d="M0,0H14.14a.628.628,0,0,0,.628-.628V-1.911a.628.628,0,0,0-.628-.628H12.974a.868.868,0,0,1-.815-.555A2.832,2.832,0,0,0,9.508-4.929,2.832,2.832,0,0,0,6.858-3.095a.868.868,0,0,1-.815.555H2.694a.868.868,0,0,1-.815-.555A2.832,2.832,0,0,0-.772-4.929,2.832,2.832,0,0,0-3.423-3.095a.868.868,0,0,1-.815.555H-5.4a.628.628,0,0,0-.628.628V-.628A.628.628,0,0,0-5.4,0h3.115" fill="none" stroke="#02614b" stroke-linecap="round" stroke-linejoin="round" stroke-miterlimit="10" stroke-width="0.981"/>
          </g>
          <g id="g1521" transform="translate(0.491 -14.471)">
            <path id="path1523" d="M0,0V2.051A.654.654,0,0,0,.654,2.7h9.383a.654.654,0,0,0,.654-.654V-9.857a.654.654,0,0,0-.654-.654H.654A.654.654,0,0,0,0-9.857v7.567" fill="none" stroke="#02614b" stroke-linecap="round" stroke-linejoin="round" stroke-miterlimit="10" stroke-width="0.981"/>
          </g>
          <g id="g1525" transform="translate(5.836 -20.599)">
            <path id="path1527" d="M0,0V1.143" fill="none" stroke="#02614b" stroke-linecap="round" stroke-linejoin="round" stroke-miterlimit="10" stroke-width="0.981"/>
          </g>
          <g id="g1529" transform="translate(5.836 -19.456)">
            <path id="path1531" d="M0,0H-1.069" fill="none" stroke="#02614b" stroke-linecap="round" stroke-linejoin="round" stroke-miterlimit="10" stroke-width="0.981"/>
          </g>
          <g id="g1533" transform="translate(5.836 -22.559)">
            <path id="path1535" d="M0,0A3.1,3.1,0,0,0-3.1,3.1,3.1,3.1,0,0,0,0,6.206,3.1,3.1,0,0,0,3.1,3.1,3.1,3.1,0,0,0,0,0Z" fill="none" stroke="#02614b" stroke-linecap="round" stroke-linejoin="round" stroke-miterlimit="10" stroke-width="0.981"/>
          </g>
          <g id="g1537" transform="translate(3.577 -14.19)">
            <path id="path1539" d="M0,0H.195" fill="none" stroke="#02614b" stroke-linecap="round" stroke-linejoin="round" stroke-miterlimit="10" stroke-width="0.981"/>
          </g>
          <g id="g1541" transform="translate(7.9 -14.19)">
            <path id="path1543" d="M0,0H.195" fill="none" stroke="#02614b" stroke-linecap="round" stroke-linejoin="round" stroke-miterlimit="10" stroke-width="0.981"/>
          </g>
          <g id="g1545" transform="translate(15.961 -25.208)">
            <path id="path1547" d="M0,0V2.2a.4.4,0,0,0,.4.4H2.6A.4.4,0,0,0,3,2.2V0a.4.4,0,0,0-.4-.4H.4A.4.4,0,0,0,0,0Z" fill="none" stroke="#02614b" stroke-linecap="round" stroke-linejoin="round" stroke-miterlimit="10" stroke-width="0.981"/>
          </g>
          <g id="g1549" transform="translate(26.242 -25.208)">
            <path id="path1551" d="M0,0V2.2a.4.4,0,0,0,.4.4H2.6A.4.4,0,0,0,3,2.2V0a.4.4,0,0,0-.4-.4H.4A.4.4,0,0,0,0,0Z" fill="none" stroke="#02614b" stroke-linecap="round" stroke-linejoin="round" stroke-miterlimit="10" stroke-width="0.981"/>
          </g>
        </g>
      </g>
    </g>
  </g>
</svg>
