<svg xmlns="http://www.w3.org/2000/svg" xmlns:xlink="http://www.w3.org/1999/xlink" width="33.491" height="42" viewBox="0 0 33.491 42">
  <defs>
    <clipPath id="clip-path">
      <rect id="Rectángulo_454726" data-name="Rectángulo 454726" width="33.491" height="42" transform="translate(949.114 3480)" fill="#02614b" stroke="#707070" stroke-width="1"/>
    </clipPath>
  </defs>
  <g id="Enmascarar_grupo_1119150" data-name="Enmascarar grupo 1119150" transform="translate(-949.114 -3480)" clip-path="url(#clip-path)">
    <g id="rio" transform="translate(947.772 3482.912)">
      <path id="Trazado_994603" data-name="Trazado 994603" d="M21.6,8.173H25.52a2.315,2.315,0,0,0,2.161-1.484h2.685A2.317,2.317,0,0,0,32.68,4.374V4.368a2,2,0,0,0-1.79-2.011,2.044,2.044,0,0,0-.482.017,2.37,2.37,0,0,0-4.131.4,1.948,1.948,0,0,0-1.232.546,2.363,2.363,0,0,0-3.613.937,1.962,1.962,0,0,0-1.789,2.387A1.992,1.992,0,0,0,21.6,8.173Zm4.8-4.416a.9.9,0,0,1,.146.013.5.5,0,0,0,.56-.375,1.381,1.381,0,0,1,2.607-.239.5.5,0,0,0,.644.254.933.933,0,0,1,.447-.067,1.008,1.008,0,0,1,.884,1.025v.006A1.328,1.328,0,0,1,30.367,5.7H26.448a1,1,0,0,1-.991-.75.984.984,0,0,1,.071-.641l0-.007a.982.982,0,0,1,.117-.183.969.969,0,0,1,.756-.362ZM20.8,5.6a.976.976,0,0,1,.91-.348.5.5,0,0,0,.554-.376,1.375,1.375,0,0,1,2.263-.707,1.952,1.952,0,0,0,1.92,2.517h.1a1.324,1.324,0,0,1-1.029.5H21.6a1,1,0,0,1-.992-.752A.968.968,0,0,1,20.8,5.6Z" fill="#02614b"/>
      <path id="Trazado_994604" data-name="Trazado 994604" d="M25.621,21.972A17.012,17.012,0,0,0,18.426,20.6c-2.552-.076-4.628-.141-6.566-2.015H34.338a.495.495,0,1,0,0-.989H27.484V14.407a.5.5,0,0,0-.174-.376l-2.755-2.349a.5.5,0,0,0-.642,0l-2.1,1.792L14.393,7.508a5.715,5.715,0,0,0-7.447.211l-5.44,4.914a.495.495,0,1,0,.663.735l5.44-4.915a4.732,4.732,0,0,1,6.164-.174l7.291,5.864a.493.493,0,0,0-.08.265v3.185H1.837a.495.495,0,1,0,0,.989H7.582c.259,3.157,2.972,7.11,8.6,8.811,8.709,2.633,10.328,7.06,10.344,7.1a.5.5,0,0,0,.469.339.488.488,0,0,0,.157-.025.5.5,0,0,0,.313-.626c-.067-.2-1.742-4.938-10.994-7.735-4.914-1.486-7.609-4.983-7.889-7.865h1.931c2.4,2.838,5.068,2.92,7.89,3A16,16,0,0,1,25.2,22.869,38.021,38.021,0,0,1,34,28.436a.495.495,0,0,0,.67-.728A38.2,38.2,0,0,0,25.621,21.972Zm-1.74-4.38V16.6h.707v.989Zm-1.908-2.958.149-.127.007-.006,2.105-1.794L26.5,14.635v2.958h-.918V16.109a.494.494,0,0,0-.495-.495h-1.7a.494.494,0,0,0-.495.495v1.484h-.918Z" fill="#02614b"/>
      <path id="Trazado_994605" data-name="Trazado 994605" d="M20.638,23.01a.495.495,0,1,0-.19.971,12.578,12.578,0,0,1,3.276,1.093.495.495,0,1,0,.456-.878A13.607,13.607,0,0,0,20.638,23.01Z" fill="#02614b"/>
      <path id="Trazado_994606" data-name="Trazado 994606" d="M26.316,28.491a.495.495,0,1,0-.49.859,10.562,10.562,0,0,1,2.233,1.8.495.495,0,1,0,.727-.671A11.488,11.488,0,0,0,26.316,28.491Z" fill="#02614b"/>
      <path id="Trazado_994607" data-name="Trazado 994607" d="M12.346,21.886a.5.5,0,0,0-.676.723,9.123,9.123,0,0,0,2.144,1.456.495.495,0,1,0,.422-.9A8.141,8.141,0,0,1,12.346,21.886Z" fill="#02614b"/>
      <path id="Trazado_994608" data-name="Trazado 994608" d="M18.111,31.512H15.567a.495.495,0,0,0,0,.989h2.544a.495.495,0,1,0,0-.989Z" fill="#02614b"/>
      <path id="Trazado_994609" data-name="Trazado 994609" d="M10.881,28.426H9.22a.495.495,0,1,0,0,.989h1.66a.495.495,0,1,0,0-.989Z" fill="#02614b"/>
      <path id="Trazado_994610" data-name="Trazado 994610" d="M5.546,25.294H3.886a.495.495,0,0,0,0,.989h1.66a.495.495,0,1,0,0-.989Z" fill="#02614b"/>
      <path id="Trazado_994611" data-name="Trazado 994611" d="M6.179,20.843H4.519a.495.495,0,0,0,0,.989h1.66a.495.495,0,1,0,0-.989Z" fill="#02614b"/>
      <path id="Trazado_994612" data-name="Trazado 994612" d="M29.781,20.089a.495.495,0,0,0,0,.989h2.544a.495.495,0,1,0,0-.989Z" fill="#02614b"/>
    </g>
  </g>
</svg>
