<svg xmlns="http://www.w3.org/2000/svg" xmlns:xlink="http://www.w3.org/1999/xlink" width="104" height="104" viewBox="0 0 104 104">
  <defs>
    <clipPath id="clip-path">
      <rect id="Rectángulo_454588" data-name="Rectángulo 454588" width="96" height="96" transform="translate(745.746 9172)" fill="#fff" stroke="#707070" stroke-width="1"/>
    </clipPath>
  </defs>
  <g id="Grupo_1177224" data-name="Grupo 1177224" transform="translate(-741.746 -9168)">
    <path id="Elipse_5729" data-name="Elipse 5729" d="M52,0A52,52,0,1,1,0,52,52,52,0,0,1,52,0Z" transform="translate(741.746 9168)" fill="#02614b"/>
    <g id="Enmascarar_grupo_1119144" data-name="Enmascarar grupo 1119144" clip-path="url(#clip-path)">
      <g id="sequia" transform="translate(745.746 9172)">
        <path id="Trazado_994517" data-name="Trazado 994517" d="M70.5,66v8.25a3.75,3.75,0,1,1-7.5,0V66Z" fill="#c99e85"/>
        <path id="Trazado_994518" data-name="Trazado 994518" d="M33,66v8.25a3.75,3.75,0,1,1-7.5,0V66Z" fill="#c99e85"/>
        <path id="Trazado_994519" data-name="Trazado 994519" d="M94.5,66V79.5A7.5,7.5,0,0,1,87,87H9a7.5,7.5,0,0,1-7.5-7.5V66h24v8.25a3.75,3.75,0,1,0,7.5,0V66H63v8.25a3.75,3.75,0,1,0,7.5,0V66Z" fill="#956143"/>
        <path id="Trazado_994520" data-name="Trazado 994520" d="M18,46.5,25.5,66H1.5V40.5Z" fill="#c99e85"/>
        <path id="Trazado_994521" data-name="Trazado 994521" d="M58.5,49.5,63,66H33L27,48l15,4.5Z" fill="#c99e85"/>
        <path id="Trazado_994522" data-name="Trazado 994522" d="M66,48l4.5,18H63L58.5,49.5,42,52.5,27,48l6,18H25.5L18,46.5l4.5-6L42,45l27-7.5,1.47,8.82Z" fill="#b28364"/>
        <path id="Trazado_994523" data-name="Trazado 994523" d="M70.47,46.32,78,43.5l16.5,9V66h-24L66,48Z" fill="#c99e85"/>
        <path id="Trazado_994524" data-name="Trazado 994524" d="M94.5,42V52.5L78,43.5,81,36Z" fill="#b28364"/>
        <path id="Trazado_994525" data-name="Trazado 994525" d="M94.5,27V42L81,36Z" fill="#c99e85"/>
        <path id="Trazado_994526" data-name="Trazado 994526" d="M64.23,14.73,67.5,9H87l7.5,9-21,12-12-10.5Z" fill="#c99e85"/>
        <path id="Trazado_994527" data-name="Trazado 994527" d="M58.5,9l-6,7.5L34.5,18l-3-9Z" fill="#c99e85"/>
        <path id="Trazado_994528" data-name="Trazado 994528" d="M94.5,18v9L81,36l-3,7.5-7.53,2.82L69,37.5l-13.5-15L33,25.5l-10.5,15-4.5,6-16.5-6V33l15,3L27,21l-1.5-6,6-6,3,9,18-1.5,6-7.5,5.73,5.73L61.5,19.5,73.5,30Z" fill="#956143"/>
        <path id="Trazado_994529" data-name="Trazado 994529" d="M55.5,22.5,69,37.5,42,45,22.5,40.5,33,25.5Z" fill="#c99e85"/>
        <path id="Trazado_994530" data-name="Trazado 994530" d="M25.5,15,27,21,16.5,36l-15-3V16.5L12,9H24Z" fill="#c99e85"/>
        <g id="Grupo_1177230" data-name="Grupo 1177230">
          <circle id="Elipse_13666" data-name="Elipse 13666" cx="2.25" cy="2.25" r="2.25" transform="translate(13.5 13.5)" fill="#b28364"/>
          <circle id="Elipse_13667" data-name="Elipse 13667" cx="2.25" cy="2.25" r="2.25" transform="translate(75 48)" fill="#b28364"/>
          <circle id="Elipse_13668" data-name="Elipse 13668" cx="2.25" cy="2.25" r="2.25" transform="translate(31.5 34.5)" fill="#b28364"/>
          <circle id="Elipse_13669" data-name="Elipse 13669" cx="1.5" cy="1.5" r="1.5" transform="translate(15 58.5)" fill="#b28364"/>
          <circle id="Elipse_13670" data-name="Elipse 13670" cx="1.5" cy="1.5" r="1.5" transform="translate(72 21)" fill="#b28364"/>
        </g>
        <circle id="Elipse_13671" data-name="Elipse 13671" cx="2.25" cy="2.25" r="2.25" transform="translate(46.5 75)" fill="#252525"/>
        <circle id="Elipse_13672" data-name="Elipse 13672" cx="1.5" cy="1.5" r="1.5" transform="translate(12 75)" fill="#252525"/>
        <circle id="Elipse_13673" data-name="Elipse 13673" cx="1.5" cy="1.5" r="1.5" transform="translate(81 75)" fill="#252525"/>
        <path id="Trazado_994531" data-name="Trazado 994531" d="M95.652,17.038l-7.5-9A1.5,1.5,0,0,0,87,7.5H67.5a1.5,1.5,0,0,0-1.3.75l-2.3,4.027L59.56,7.939A1.5,1.5,0,0,0,58.5,7.5h-27a1.5,1.5,0,0,0-1.06.439l-4.127,4.127-.858-3.429A1.5,1.5,0,0,0,24,7.5H12a1.487,1.487,0,0,0-.872.28l-10.5,7.5A1.5,1.5,0,0,0,0,16.5v63a9.009,9.009,0,0,0,9,9H87a9.009,9.009,0,0,0,9-9V18a1.5,1.5,0,0,0-.348-.962ZM71.672,64.5,67.779,48.933l10.1-3.783L93,53.391V64.5ZM59.948,49.105a1.5,1.5,0,0,0-1.716-1.08L42.086,50.961l-14.655-4.4a1.5,1.5,0,0,0-1.854,1.911L31.524,66,31.5,74.25a2.25,2.25,0,1,1-4.5,0V66c0-.185-7.3-19.264-7.3-19.264l3.416-4.554S41.652,46.5,41.764,46.5a1.085,1.085,0,0,0,.638-.054l10.8-3a1.5,1.5,0,1,0-.8-2.892l-10.434,2.9L25,39.538,33.854,26.9l21.063-2.809L66.268,36.7,59.6,38.55a1.5,1.5,0,1,0,.8,2.892L67.8,39.387l.993,5.961L65.472,46.59a1.5,1.5,0,0,0-.927,1.769L69,66v8.25a2.25,2.25,0,0,1-4.5,0V66C64.5,65.866,59.948,49.105,59.948,49.105ZM34.082,64.5,29.337,50.268,41.57,53.937a1.451,1.451,0,0,0,.7.038l15.15-2.754L61.037,64.5ZM3,42.64l13.845,5.036L23.316,64.5H3ZM81.814,38,93,42.975v7L79.887,42.82ZM84.1,35.736,93,29.8v9.89ZM55.378,10.5l-3.646,4.558L35.55,16.409,33.581,10.5Zm-42.9,0H22.83l2.55,10.2-2.607,3.726a1.5,1.5,0,1,0,2.457,1.721l3-4.287a1.5,1.5,0,0,0,.226-1.222l-1.295-5.176,3.684-3.684,2.232,6.7A1.5,1.5,0,0,0,34.5,19.5a1.18,1.18,0,0,0,.126,0l18-1.5a1.5,1.5,0,0,0,1.05-.557l4.95-6.192,3.732,3.732L60.2,18.75a1.5,1.5,0,0,0,.313,1.875l12,10.5a1.5,1.5,0,0,0,1.732.173l15-8.571a1.5,1.5,0,0,0-1.488-2.6l-14.072,8.04L63.411,19.174l4.96-8.674H86.3L93,18.543v7.65l-12.832,8.55a2.85,2.85,0,0,0-.561.692l-2.754,6.885-5.2,1.95-1.171-7.025a2.622,2.622,0,0,0-.364-.75l-13.5-15a1.5,1.5,0,0,0-1.312-.483l-22.5,3a1.5,1.5,0,0,0-1.031.627l-10.5,15-3.808,5.077L3,39.45V34.83S16.4,37.5,16.5,37.5a1.5,1.5,0,0,0,1.229-.641l3.15-4.5a1.5,1.5,0,1,0-2.457-1.719l-2.588,3.7L3,31.77v-14.5ZM87,85.5H9a6,6,0,0,1-6-6v-12H24v6.75a5.25,5.25,0,1,0,10.5,0V67.5h27v6.75a5.25,5.25,0,0,0,10.5,0V67.5H93v12A6,6,0,0,1,87,85.5Z" fill="#252525"/>
      </g>
    </g>
  </g>
</svg>
